SplineFontDB: 3.2
FontName: RobotoMonoForPowerline-Regular
FullName: Roboto Mono for Powerline
FamilyName: Roboto Mono for Powerline
Weight: Book
Copyright: Copyright 2015 Google Inc. All Rights Reserved.
Version: 2.000986; 2015; ttfautohint (v1.3)
ItalicAngle: 0
UnderlinePosition: -200
UnderlineWidth: 100
Ascent: 1536
Descent: 512
InvalidEm: 0
sfntRevision: 0x00020041
LayerCount: 2
Layer: 0 1 "Back" 1
Layer: 1 1 "Fore" 0
XUID: [1021 530 684337051 16194115]
StyleMap: 0x0040
FSType: 0
OS2Version: 3
OS2_WeightWidthSlopeOnly: 0
OS2_UseTypoMetrics: 0
CreationTime: 1221222574
ModificationTime: 1704853473
PfmFamily: 81
TTFWeight: 400
TTFWidth: 5
LineGap: 0
VLineGap: 0
Panose: 0 0 0 0 0 0 0 0 0 0
OS2TypoAscent: 1536
OS2TypoAOffset: 0
OS2TypoDescent: -512
OS2TypoDOffset: 0
OS2TypoLinegap: 102
OS2WinAscent: 1946
OS2WinAOffset: 0
OS2WinDescent: 512
OS2WinDOffset: 0
HheadAscent: 1900
HheadAOffset: 0
HheadDescent: -500
HheadDOffset: 0
OS2SubXSize: 1434
OS2SubYSize: 1331
OS2SubXOff: 0
OS2SubYOff: 287
OS2SupXSize: 1434
OS2SupYSize: 1331
OS2SupXOff: 0
OS2SupYOff: 977
OS2StrikeYSize: 102
OS2StrikeYPos: 512
OS2CapHeight: 1456
OS2XHeight: 1082
OS2Vendor: 'pyrs'
OS2CodePages: 2000019f.4f010000
OS2UnicodeRanges: e00002ff.1000205b.00000020.00000000
Lookup: 1 0 0 "'smcp' Lowercase to Small Capitals lookup 0" { "'smcp' Lowercase to Small Capitals lookup 0 subtable"  } ['smcp' ('DFLT' <'dflt' > ) ]
DEI: 91125
TtTable: prep
SVTCA[y-axis]
MPPEM
PUSHB_1
 200
GT
IF
PUSHB_2
 1
 1
INSTCTRL
EIF
PUSHW_3
 1
 2048
 2048
MUL
WCVTF
PUSHB_2
 0
 6
WS
PUSHB_6
 0
 71
 51
 31
 4
 0
LOOPCALL
PUSHB_2
 0
 6
WS
NPUSHB
 10
 77
 1
 58
 8
 38
 8
 20
 7
 4
 8
LOOPCALL
PUSHB_2
 0
 6
WS
NPUSHB
 10
 78
 0
 68
 6
 48
 6
 29
 5
 4
 8
LOOPCALL
PUSHB_2
 0
 10
WS
PUSHW_4
 4992
 3776
 2496
 1344
PUSHB_2
 4
 9
LOOPCALL
PUSHB_2
 0
 14
WS
PUSHB_6
 0
 64
 64
 64
 4
 9
LOOPCALL
PUSHB_2
 3
 0
WCVTP
PUSHB_2
 36
 1
GETINFO
LTEQ
IF
PUSHB_1
 64
GETINFO
IF
PUSHB_2
 3
 100
WCVTP
PUSHB_2
 38
 1
GETINFO
LTEQ
IF
PUSHW_3
 2176
 1
 1088

StartChar: exclam
Encoding: 33 33 7
Width: 1229
GlyphClass: 2
Flags: W
LayerCount: 2
Fore
SplineSet
690 471 m 1,0,-1
 504 471 l 1,1,-1
 504 1456 l 1,2,-1
 690 1456 l 1,3,-1
 690 471 l 1,0,-1
486 97 m 0,4,5
 486 145 486 145 514.5 177 c 128,-1,6
 543 209 543 209 600 209 c 256,7,8
 657 209 657 209 686.5 177 c 128,-1,9
 716 145 716 145 716 97 c 0,10,11
 716 51 716 51 686.5 20 c 128,-1,12
 657 -11 657 -11 600 -11 c 256,13,14
 543 -11 543 -11 514.5 20 c 128,-1,15
 486 51 486 51 486 97 c 0,4,5
EndSplineSet
EndChar

StartChar: quotedbl
Encoding: 34 34 8
Width: 1229
GlyphClass: 2
Flags: W
LayerCount: 2
Fore
SplineSet
505 1427 m 1,0,-1
 484 1057 l 1,1,-1
 354 1057 l 1,2,-1
 355 1411 l 1,3,-1
 355 1536 l 1,4,-1
 505 1536 l 1,5,-1
 505 1427 l 1,0,-1
862 1427 m 1,6,-1
 841 1057 l 1,7,-1
 712 1057 l 1,8,-1
 713 1411 l 1,9,-1
 713 1536 l 1,10,-1
 863 1536 l 1,11,-1
 862 1427 l 1,6,-1
EndSplineSet
EndChar

StartChar: numbersign
Encoding: 35 35 9
Width: 1229
GlyphClass: 2
Flags: W
LayerCount: 2
Fore
SplineSet
707 410 m 1,0,-1
 443 410 l 1,1,-1
 363 0 l 1,2,-1
 220 0 l 1,3,-1
 300 410 l 1,4,-1
 61 410 l 1,5,-1
 61 547 l 1,6,-1
 326 547 l 1,7,-1
 395 901 l 1,8,-1
 137 901 l 1,9,-1
 137 1040 l 1,10,-1
 422 1040 l 1,11,-1
 504 1456 l 1,12,-1
 647 1456 l 1,13,-1
 565 1040 l 1,14,-1
 829 1040 l 1,15,-1
 911 1456 l 1,16,-1
 1054 1456 l 1,17,-1
 972 1040 l 1,18,-1
 1177 1040 l 1,19,-1
 1177 901 l 1,20,-1
 945 901 l 1,21,-1
 876 547 l 1,22,-1
 1102 547 l 1,23,-1
 1102 410 l 1,24,-1
 850 410 l 1,25,-1
 770 0 l 1,26,-1
 627 0 l 1,27,-1
 707 410 l 1,0,-1
469 547 m 1,28,-1
 733 547 l 1,29,-1
 802 901 l 1,30,-1
 538 901 l 1,31,-1
 469 547 l 1,28,-1
EndSplineSet
EndChar

StartChar: dollar
Encoding: 36 36 10
Width: 1229
GlyphClass: 2
Flags: W
LayerCount: 2
Fore
SplineSet
907 375 m 0,0,1
 908 466 908 466 840.5 531 c 128,-1,2
 773 596 773 596 626 644 c 0,3,4
 533 673 533 673 458 711 c 128,-1,5
 383 749 383 749 329.5 801.5 c 128,-1,6
 276 854 276 854 247 922 c 128,-1,7
 218 990 218 990 218 1079 c 0,8,9
 218 1163 218 1163 243.5 1231 c 128,-1,10
 269 1299 269 1299 315.5 1349.5 c 128,-1,11
 362 1400 362 1400 428.5 1431 c 128,-1,12
 495 1462 495 1462 576 1472 c 1,13,-1
 576 1692 l 1,14,-1
 725 1692 l 1,15,-1
 725 1472 l 1,16,17
 893 1449 893 1449 986 1330.5 c 128,-1,18
 1079 1212 1079 1212 1080 1008 c 1,19,-1
 896 1008 l 1,20,21
 896 1075 896 1075 879.5 1131.5 c 128,-1,22
 863 1188 863 1188 831.5 1228.5 c 128,-1,23
 800 1269 800 1269 754 1292 c 128,-1,24
 708 1315 708 1315 649 1315 c 0,25,26
 528 1315 528 1315 466 1252 c 128,-1,27
 404 1189 404 1189 403 1082 c 0,28,29
 403 1032 403 1032 419 993 c 128,-1,30
 435 954 435 954 469.5 922 c 128,-1,31
 504 890 504 890 558.5 862.5 c 128,-1,32
 613 835 613 835 690 809 c 0,33,34
 784 778 784 778 859 740 c 128,-1,35
 934 702 934 702 986 651 c 128,-1,36
 1038 600 1038 600 1065.5 533 c 128,-1,37
 1093 466 1093 466 1093 377 c 0,38,39
 1093 290 1093 290 1065.5 221 c 128,-1,40
 1038 152 1038 152 988 102.5 c 128,-1,41
 938 53 938 53 866.5 23 c 128,-1,42
 795 -7 795 -7 708 -16 c 1,43,-1
 708 -208 l 1,44,-1
 559 -208 l 1,45,-1
 559 -17 l 1,46,47
 481 -9 481 -9 409.5 19 c 128,-1,48
 338 47 338 47 283 100.5 c 128,-1,49
 228 154 228 154 195 235 c 128,-1,50
 162 316 162 316 162 429 c 1,51,-1
 347 429 l 1,52,53
 347 345 347 345 372 289.5 c 128,-1,54
 397 234 397 234 436.5 201 c 128,-1,55
 476 168 476 168 526 154 c 128,-1,56
 576 140 576 140 627 140 c 0,57,58
 692 140 692 140 744 156 c 128,-1,59
 796 172 796 172 832 202.5 c 128,-1,60
 868 233 868 233 887.5 276.5 c 128,-1,61
 907 320 907 320 907 375 c 0,0,1
EndSplineSet
EndChar

StartChar: percent
Encoding: 37 37 11
Width: 1229
GlyphClass: 2
Flags: W
LayerCount: 2
Fore
SplineSet
44 1194 m 2,0,1
 44 1251 44 1251 61.5 1302.5 c 128,-1,2
 79 1354 79 1354 112.5 1393 c 128,-1,3
 146 1432 146 1432 196 1454.5 c 128,-1,4
 246 1477 246 1477 311 1477 c 0,5,6
 377 1477 377 1477 427.5 1454.5 c 128,-1,7
 478 1432 478 1432 511.5 1393 c 128,-1,8
 545 1354 545 1354 562.5 1302.5 c 128,-1,9
 580 1251 580 1251 580 1194 c 2,10,-1
 580 1117 l 2,11,12
 580 1060 580 1060 562.5 1009 c 128,-1,13
 545 958 545 958 511.5 919.5 c 128,-1,14
 478 881 478 881 428 858.5 c 128,-1,15
 378 836 378 836 313 836 c 256,16,17
 248 836 248 836 197.5 858.5 c 128,-1,18
 147 881 147 881 113 919.5 c 128,-1,19
 79 958 79 958 61.5 1009 c 128,-1,20
 44 1060 44 1060 44 1117 c 2,21,-1
 44 1194 l 2,0,1
182 1117 m 2,22,23
 182 1086 182 1086 189 1057.5 c 128,-1,24
 196 1029 196 1029 212 1006.5 c 128,-1,25
 228 984 228 984 252.5 970.5 c 128,-1,26
 277 957 277 957 313 957 c 0,27,28
 348 957 348 957 372.5 970.5 c 128,-1,29
 397 984 397 984 412 1006.5 c 128,-1,30
 427 1029 427 1029 434.5 1057.5 c 128,-1,31
 442 1086 442 1086 442 1117 c 2,32,-1
 442 1194 l 2,33,34
 442 1225 442 1225 434.5 1254.5 c 128,-1,35
 427 1284 427 1284 411.5 1306.5 c 128,-1,36
 396 1329 396 1329 371.5 1342.5 c 128,-1,37
 347 1356 347 1356 311 1356 c 0,38,39
 276 1356 276 1356 251.5 1342.5 c 128,-1,40
 227 1329 227 1329 211.5 1306.5 c 128,-1,41
 196 1284 196 1284 189 1254.5 c 128,-1,42
 182 1225 182 1225 182 1194 c 2,43,-1
 182 1117 l 2,22,23
645 338 m 2,44,45
 645 395 645 395 662.5 446 c 128,-1,46
 680 497 680 497 714 536 c 128,-1,47
 748 575 748 575 798 597.5 c 128,-1,48
 848 620 848 620 913 620 c 0,49,50
 979 620 979 620 1029 597.5 c 128,-1,51
 1079 575 1079 575 1113 536 c 128,-1,52
 1147 497 1147 497 1164.5 446 c 128,-1,53
 1182 395 1182 395 1182 338 c 2,54,-1
 1182 260 l 2,55,56
 1182 203 1182 203 1164.5 152 c 128,-1,57
 1147 101 1147 101 1113 62.5 c 128,-1,58
 1079 24 1079 24 1029.5 1.5 c 128,-1,59
 980 -21 980 -21 915 -21 c 0,60,61
 849 -21 849 -21 798.5 1.5 c 128,-1,62
 748 24 748 24 714 62.5 c 128,-1,63
 680 101 680 101 662.5 152 c 128,-1,64
 645 203 645 203 645 260 c 2,65,-1
 645 338 l 2,44,45
783 260 m 2,66,67
 783 229 783 229 790.5 200 c 128,-1,68
 798 171 798 171 813.5 148.5 c 128,-1,69
 829 126 829 126 854 112.5 c 128,-1,70
 879 99 879 99 915 99 c 0,71,72
 950 99 950 99 974.5 112.5 c 128,-1,73
 999 126 999 126 1014 148.5 c 128,-1,74
 1029 171 1029 171 1036 200 c 128,-1,75
 1043 229 1043 229 1043 260 c 2,76,-1
 1043 338 l 2,77,78
 1043 369 1043 369 1036 398 c 128,-1,79
 1029 427 1029 427 1013.5 449.5 c 128,-1,80
 998 472 998 472 973 485.5 c 128,-1,81
 948 499 948 499 913 499 c 0,82,83
 877 499 877 499 852.5 485.5 c 128,-1,84
 828 472 828 472 812.5 449.5 c 128,-1,85
 797 427 797 427 790 398 c 128,-1,86
 783 369 783 369 783 338 c 2,87,-1
 783 260 l 2,66,67
398 188 m 1,88,-1
 287 250 l 1,89,-1
 854 1287 l 1,90,-1
 965 1225 l 1,91,-1
 398 188 l 1,88,-1
EndSplineSet
EndChar

StartChar: ampersand
Encoding: 38 38 12
Width: 1229
GlyphClass: 2
Flags: W
LayerCount: 2
Fore
SplineSet
107 373 m 0,0,1
 107 440 107 440 127 497 c 128,-1,2
 147 554 147 554 183 603.5 c 128,-1,3
 219 653 219 653 269 697.5 c 128,-1,4
 319 742 319 742 380 785 c 1,5,6
 313 876 313 876 273.5 957 c 128,-1,7
 234 1038 234 1038 234 1126 c 0,8,9
 234 1211 234 1211 259.5 1276.5 c 128,-1,10
 285 1342 285 1342 332 1386.5 c 128,-1,11
 379 1431 379 1431 445 1454 c 128,-1,12
 511 1477 511 1477 593 1477 c 0,13,14
 664 1477 664 1477 722 1452 c 128,-1,15
 780 1427 780 1427 820.5 1384.5 c 128,-1,16
 861 1342 861 1342 883 1286 c 128,-1,17
 905 1230 905 1230 905 1168 c 0,18,19
 905 1115 905 1115 889.5 1071.5 c 128,-1,20
 874 1028 874 1028 846.5 990 c 128,-1,21
 819 952 819 952 781 918 c 128,-1,22
 743 884 743 884 699 851 c 2,23,-1
 605 771 l 1,24,-1
 912 368 l 1,25,26
 947 432 947 432 967 508 c 128,-1,27
 987 584 987 584 988 672 c 1,28,-1
 1155 672 l 1,29,30
 1155 544 1155 544 1118.5 434.5 c 128,-1,31
 1082 325 1082 325 1012 237 c 1,32,-1
 1193 0 l 1,33,-1
 972 0 l 1,34,-1
 889 110 l 1,35,36
 815 47 815 47 726 13.5 c 128,-1,37
 637 -20 637 -20 539 -20 c 0,38,39
 440 -20 440 -20 360 9 c 128,-1,40
 280 38 280 38 224 90 c 128,-1,41
 168 142 168 142 137.5 214.5 c 128,-1,42
 107 287 107 287 107 373 c 0,0,1
539 130 m 0,43,44
 610 130 610 130 676 156 c 128,-1,45
 742 182 742 182 799 230 c 1,46,-1
 476 661 l 1,47,-1
 448 637 l 2,48,49
 398 596 398 596 367 557 c 128,-1,50
 336 518 336 518 319.5 483.5 c 128,-1,51
 303 449 303 449 297.5 420.5 c 128,-1,52
 292 392 292 392 292 373 c 0,53,54
 292 322 292 322 308 278 c 128,-1,55
 324 234 324 234 355 201 c 128,-1,56
 386 168 386 168 432 149 c 128,-1,57
 478 130 478 130 539 130 c 0,43,44
420 1128 m 0,58,59
 420 1072 420 1072 445 1013.5 c 128,-1,60
 470 955 470 955 515 890 c 1,61,-1
 632 983 l 2,62,63
 663 1004 663 1004 683 1027 c 128,-1,64
 703 1050 703 1050 714 1073.5 c 128,-1,65
 725 1097 725 1097 729.5 1121 c 128,-1,66
 734 1145 734 1145 734 1168 c 0,67,68
 734 1198 734 1198 724.5 1226.5 c 128,-1,69
 715 1255 715 1255 696.5 1276.5 c 128,-1,70
 678 1298 678 1298 652 1311.5 c 128,-1,71
 626 1325 626 1325 593 1325 c 0,72,73
 550 1325 550 1325 517.5 1309 c 128,-1,74
 485 1293 485 1293 463.5 1266 c 128,-1,75
 442 1239 442 1239 431 1203.5 c 128,-1,76
 420 1168 420 1168 420 1128 c 0,58,59
EndSplineSet
EndChar

StartChar: quotesingle
Encoding: 39 39 13
Width: 1229
GlyphClass: 2
Flags: W
LayerCount: 2
Fore
SplineSet
653 1425 m 1,0,-1
 632 1057 l 1,1,-1
 494 1057 l 1,2,-1
 495 1409 l 1,3,-1
 495 1536 l 1,4,-1
 653 1536 l 1,5,-1
 653 1425 l 1,0,-1
EndSplineSet
EndChar

StartChar: parenleft
Encoding: 40 40 14
Width: 1229
GlyphClass: 2
Flags: W
LayerCount: 2
Fore
SplineSet
357 591 m 2,0,1
 357 734 357 734 379.5 860 c 128,-1,2
 402 986 402 986 440 1093.5 c 128,-1,3
 478 1201 478 1201 527.5 1290 c 128,-1,4
 577 1379 577 1379 631.5 1448 c 128,-1,5
 686 1517 686 1517 741 1566 c 128,-1,6
 796 1615 796 1615 846 1643 c 1,7,-1
 885 1521 l 1,8,9
 823 1474 823 1474 761.5 1393 c 128,-1,10
 700 1312 700 1312 651.5 1196.5 c 128,-1,11
 603 1081 603 1081 572.5 930.5 c 128,-1,12
 542 780 542 780 542 593 c 2,13,-1
 542 579 l 2,14,15
 542 392 542 392 572.5 241 c 128,-1,16
 603 90 603 90 651.5 -26 c 128,-1,17
 700 -142 700 -142 761.5 -224.5 c 128,-1,18
 823 -307 823 -307 885 -357 c 1,19,-1
 846 -470 l 1,20,21
 796 -442 796 -442 740.5 -393.5 c 128,-1,22
 685 -345 685 -345 630.5 -275.5 c 128,-1,23
 576 -206 576 -206 526.5 -117.5 c 128,-1,24
 477 -29 477 -29 439.5 78.5 c 128,-1,25
 402 186 402 186 379.5 312 c 128,-1,26
 357 438 357 438 357 581 c 2,27,-1
 357 591 l 2,0,1
EndSplineSet
EndChar

StartChar: parenright
Encoding: 41 41 15
Width: 1229
GlyphClass: 2
Flags: W
LayerCount: 2
Fore
SplineSet
849 581 m 2,0,1
 849 438 849 438 826.5 312 c 128,-1,2
 804 186 804 186 766 78.5 c 128,-1,3
 728 -29 728 -29 678.5 -117.5 c 128,-1,4
 629 -206 629 -206 574.5 -275.5 c 128,-1,5
 520 -345 520 -345 464.5 -393.5 c 128,-1,6
 409 -442 409 -442 359 -470 c 1,7,-1
 320 -357 l 1,8,9
 382 -311 382 -311 443.5 -228.5 c 128,-1,10
 505 -146 505 -146 553.5 -29 c 128,-1,11
 602 88 602 88 632.5 240 c 128,-1,12
 663 392 663 392 663 579 c 2,13,-1
 663 593 l 2,14,15
 663 780 663 780 631 932.5 c 128,-1,16
 599 1085 599 1085 548.5 1202.5 c 128,-1,17
 498 1320 498 1320 437.5 1402 c 128,-1,18
 377 1484 377 1484 320 1530 c 1,19,-1
 359 1643 l 1,20,21
 409 1615 409 1615 464.5 1566 c 128,-1,22
 520 1517 520 1517 574.5 1448 c 128,-1,23
 629 1379 629 1379 678.5 1290 c 128,-1,24
 728 1201 728 1201 766 1093.5 c 128,-1,25
 804 986 804 986 826.5 860 c 128,-1,26
 849 734 849 734 849 591 c 2,27,-1
 849 581 l 2,0,1
EndSplineSet
EndChar

StartChar: asterisk
Encoding: 42 42 16
Width: 1229
GlyphClass: 2
Flags: W
LayerCount: 2
Fore
SplineSet
537 683 m 1,0,-1
 160 779 l 1,1,-1
 214 954 l 1,2,-1
 579 803 l 1,3,-1
 554 1224 l 1,4,-1
 732 1224 l 1,5,-1
 703 797 l 1,6,-1
 1066 947 l 1,7,-1
 1120 769 l 1,8,-1
 738 675 l 1,9,-1
 994 351 l 1,10,-1
 848 241 l 1,11,-1
 634 604 l 1,12,-1
 422 250 l 1,13,-1
 276 356 l 1,14,-1
 537 683 l 1,0,-1
EndSplineSet
EndChar

StartChar: plus
Encoding: 43 43 17
Width: 1229
GlyphClass: 2
Flags: W
LayerCount: 2
Fore
SplineSet
710 781 m 1,0,-1
 1117 781 l 1,1,-1
 1117 597 l 1,2,-1
 710 597 l 1,3,-1
 710 146 l 1,4,-1
 525 146 l 1,5,-1
 525 597 l 1,6,-1
 119 597 l 1,7,-1
 119 781 l 1,8,-1
 525 781 l 1,9,-1
 525 1206 l 1,10,-1
 710 1206 l 1,11,-1
 710 781 l 1,0,-1
EndSplineSet
EndChar

StartChar: comma
Encoding: 44 44 18
Width: 1229
GlyphClass: 2
Flags: W
LayerCount: 2
Fore
SplineSet
643 43 m 2,0,1
 643 -4 643 -4 631.5 -55.5 c 128,-1,2
 620 -107 620 -107 597.5 -157.5 c 128,-1,3
 575 -208 575 -208 543 -254 c 128,-1,4
 511 -300 511 -300 469 -336 c 1,5,-1
 354 -273 l 1,6,7
 402 -203 402 -203 422 -124 c 128,-1,8
 442 -45 442 -45 442 40 c 2,9,-1
 442 219 l 1,10,-1
 643 219 l 1,11,-1
 643 43 l 2,0,1
EndSplineSet
EndChar

StartChar: hyphen
Encoding: 45 45 19
Width: 1230
GlyphClass: 2
Flags: W
LayerCount: 2
Fore
SplineSet
983 561 m 1,0,-1
 218 561 l 1,1,-1
 218 713 l 1,2,-1
 983 713 l 1,3,-1
 983 561 l 1,0,-1
EndSplineSet
EndChar

StartChar: period
Encoding: 46 46 20
Width: 1229
GlyphClass: 2
Flags: W
LayerCount: 2
Fore
SplineSet
496 120 m 0,0,1
 496 150 496 150 505.5 176 c 128,-1,2
 515 202 515 202 533 221.5 c 128,-1,3
 551 241 551 241 578 252 c 128,-1,4
 605 263 605 263 641 263 c 256,5,6
 677 263 677 263 704.5 252 c 128,-1,7
 732 241 732 241 750.5 221.5 c 128,-1,8
 769 202 769 202 778.5 176 c 128,-1,9
 788 150 788 150 788 120 c 0,10,11
 788 91 788 91 778.5 65.5 c 128,-1,12
 769 40 769 40 750.5 21 c 128,-1,13
 732 2 732 2 704.5 -8.5 c 128,-1,14
 677 -19 677 -19 641 -19 c 256,15,16
 605 -19 605 -19 578 -8.5 c 128,-1,17
 551 2 551 2 533 21 c 128,-1,18
 515 40 515 40 505.5 65.5 c 128,-1,19
 496 91 496 91 496 120 c 0,0,1
EndSplineSet
EndChar

StartChar: slash
Encoding: 47 47 21
Width: 1229
GlyphClass: 2
Flags: W
LayerCount: 2
Fore
SplineSet
418 -125 m 1,0,-1
 252 -125 l 1,1,-1
 860 1456 l 1,2,-1
 1025 1456 l 1,3,-1
 418 -125 l 1,0,-1
EndSplineSet
EndChar

StartChar: zero
Encoding: 48 48 22
Width: 1229
GlyphClass: 2
Flags: W
LayerCount: 2
Fore
SplineSet
1088 557 m 2,0,1
 1088 418 1088 418 1056 310.5 c 128,-1,2
 1024 203 1024 203 964 129.5 c 128,-1,3
 904 56 904 56 817 18 c 128,-1,4
 730 -20 730 -20 618 -20 c 0,5,6
 507 -20 507 -20 419.5 18 c 128,-1,7
 332 56 332 56 271 129.5 c 128,-1,8
 210 203 210 203 177.5 310.5 c 128,-1,9
 145 418 145 418 145 557 c 2,10,-1
 145 898 l 2,11,12
 145 1037 145 1037 177 1144.5 c 128,-1,13
 209 1252 209 1252 269.5 1326 c 128,-1,14
 330 1400 330 1400 417.5 1438.5 c 128,-1,15
 505 1477 505 1477 616 1477 c 0,16,17
 728 1477 728 1477 815.5 1438.5 c 128,-1,18
 903 1400 903 1400 963.5 1326 c 128,-1,19
 1024 1252 1024 1252 1056 1144.5 c 128,-1,20
 1088 1037 1088 1037 1088 898 c 2,21,-1
 1088 557 l 2,0,1
331 594 m 1,22,-1
 898 1029 l 1,23,24
 882 1174 882 1174 813.5 1249.5 c 128,-1,25
 745 1325 745 1325 616 1325 c 0,26,27
 470 1325 470 1325 400.5 1226.5 c 128,-1,28
 331 1128 331 1128 331 939 c 2,29,-1
 331 594 l 1,22,-1
902 852 m 1,30,-1
 336 419 l 1,31,32
 353 278 353 278 423 204 c 128,-1,33
 493 130 493 130 618 130 c 0,34,35
 765 130 765 130 833.5 230 c 128,-1,36
 902 330 902 330 902 518 c 2,37,-1
 902 852 l 1,30,-1
EndSplineSet
EndChar

StartChar: one
Encoding: 49 49 23
Width: 1229
GlyphClass: 2
Flags: W
LayerCount: 2
Fore
SplineSet
774 0 m 1,0,-1
 589 0 l 1,1,-1
 589 1220 l 1,2,-1
 208 1075 l 1,3,-1
 208 1244 l 1,4,-1
 759 1456 l 1,5,-1
 774 1456 l 1,6,-1
 774 0 l 1,0,-1
EndSplineSet
EndChar

StartChar: two
Encoding: 50 50 24
Width: 1229
GlyphClass: 2
Flags: W
LayerCount: 2
Fore
SplineSet
1067 0 m 1,0,-1
 113 0 l 1,1,-1
 113 133 l 1,2,-1
 590 663 l 2,3,4
 654 734 654 734 697 789 c 128,-1,5
 740 844 740 844 766 890.5 c 128,-1,6
 792 937 792 937 803 978.5 c 128,-1,7
 814 1020 814 1020 814 1064 c 0,8,9
 814 1118 814 1118 796.5 1165.5 c 128,-1,10
 779 1213 779 1213 745.5 1248 c 128,-1,11
 712 1283 712 1283 664.5 1303.5 c 128,-1,12
 617 1324 617 1324 557 1324 c 0,13,14
 484 1324 484 1324 430.5 1303 c 128,-1,15
 377 1282 377 1282 341.5 1243.5 c 128,-1,16
 306 1205 306 1205 288.5 1150 c 128,-1,17
 271 1095 271 1095 271 1027 c 1,18,-1
 85 1027 l 1,19,20
 85 1119 85 1119 117 1200.5 c 128,-1,21
 149 1282 149 1282 209.5 1343 c 128,-1,22
 270 1404 270 1404 357.5 1440 c 128,-1,23
 445 1476 445 1476 557 1476 c 0,24,25
 660 1476 660 1476 742.5 1445.5 c 128,-1,26
 825 1415 825 1415 882 1361 c 128,-1,27
 939 1307 939 1307 969.5 1233 c 128,-1,28
 1000 1159 1000 1159 1000 1072 c 0,29,30
 1000 1007 1000 1007 978 943.5 c 128,-1,31
 956 880 956 880 918.5 818 c 128,-1,32
 881 756 881 756 831.5 695.5 c 128,-1,33
 782 635 782 635 727 575 c 2,34,-1
 336 151 l 1,35,-1
 1067 151 l 1,36,-1
 1067 0 l 1,0,-1
EndSplineSet
EndChar

StartChar: three
Encoding: 51 51 25
Width: 1229
GlyphClass: 2
Flags: W
LayerCount: 2
Fore
SplineSet
390 817 m 1,0,-1
 522 817 l 2,1,2
 592 817 592 817 645.5 836 c 128,-1,3
 699 855 699 855 735.5 888 c 128,-1,4
 772 921 772 921 791 967 c 128,-1,5
 810 1013 810 1013 810 1068 c 0,6,7
 810 1195 810 1195 745 1259.5 c 128,-1,8
 680 1324 680 1324 555 1324 c 0,9,10
 496 1324 496 1324 447.5 1306.5 c 128,-1,11
 399 1289 399 1289 364.5 1256 c 128,-1,12
 330 1223 330 1223 311 1177 c 128,-1,13
 292 1131 292 1131 292 1074 c 1,14,-1
 106 1074 l 1,15,16
 106 1157 106 1157 138.5 1230.5 c 128,-1,17
 171 1304 171 1304 230 1358.5 c 128,-1,18
 289 1413 289 1413 371.5 1444.5 c 128,-1,19
 454 1476 454 1476 555 1476 c 0,20,21
 653 1476 653 1476 734 1449.5 c 128,-1,22
 815 1423 815 1423 873 1371 c 128,-1,23
 931 1319 931 1319 963 1242 c 128,-1,24
 995 1165 995 1165 995 1064 c 0,25,26
 995 1022 995 1022 982 977 c 128,-1,27
 969 932 969 932 942 889.5 c 128,-1,28
 915 847 915 847 872.5 809.5 c 128,-1,29
 830 772 830 772 771 747 c 1,30,31
 842 724 842 724 889.5 687 c 128,-1,32
 937 650 937 650 965.5 604 c 128,-1,33
 994 558 994 558 1005.5 507 c 128,-1,34
 1017 456 1017 456 1017 406 c 0,35,36
 1017 304 1017 304 982 225 c 128,-1,37
 947 146 947 146 885 91.5 c 128,-1,38
 823 37 823 37 738.5 8.5 c 128,-1,39
 654 -20 654 -20 556 -20 c 0,40,41
 460 -20 460 -20 375.5 7 c 128,-1,42
 291 34 291 34 229 86 c 128,-1,43
 167 138 167 138 130.5 213 c 128,-1,44
 94 288 94 288 94 384 c 1,45,-1
 279 384 l 1,46,47
 279 327 279 327 298.5 280 c 128,-1,48
 318 233 318 233 354 200 c 128,-1,49
 390 167 390 167 441.5 149 c 128,-1,50
 493 131 493 131 556 131 c 256,51,52
 619 131 619 131 670 147.5 c 128,-1,53
 721 164 721 164 757 198 c 128,-1,54
 793 232 793 232 812.5 282.5 c 128,-1,55
 832 333 832 333 832 402 c 0,56,57
 832 470 832 470 809.5 519.5 c 128,-1,58
 787 569 787 569 746.5 602 c 128,-1,59
 706 635 706 635 648.5 651 c 128,-1,60
 591 667 591 667 522 667 c 2,61,-1
 390 667 l 1,62,-1
 390 817 l 1,0,-1
EndSplineSet
EndChar

StartChar: four
Encoding: 52 52 26
Width: 1229
GlyphClass: 2
Flags: W
LayerCount: 2
Fore
SplineSet
924 489 m 1,0,-1
 1127 489 l 1,1,-1
 1127 338 l 1,2,-1
 924 338 l 1,3,-1
 924 0 l 1,4,-1
 739 0 l 1,5,-1
 739 338 l 1,6,-1
 75 338 l 1,7,-1
 75 447 l 1,8,-1
 727 1456 l 1,9,-1
 924 1456 l 1,10,-1
 924 489 l 1,0,-1
280 489 m 1,11,-1
 739 489 l 1,12,-1
 739 1210 l 1,13,-1
 709 1154 l 1,14,-1
 280 489 l 1,11,-1
EndSplineSet
EndChar

StartChar: five
Encoding: 53 53 27
Width: 1229
GlyphClass: 2
Flags: W
LayerCount: 2
Fore
SplineSet
240 730 m 1,0,-1
 313 1456 l 1,1,-1
 1060 1456 l 1,2,-1
 1060 1276 l 1,3,-1
 469 1276 l 1,4,-1
 428 888 l 1,5,6
 471 913 471 913 531 932 c 128,-1,7
 591 951 591 951 670 951 c 0,8,9
 771 951 771 951 851 916 c 128,-1,10
 931 881 931 881 987 817.5 c 128,-1,11
 1043 754 1043 754 1073 664 c 128,-1,12
 1103 574 1103 574 1103 464 c 0,13,14
 1103 360 1103 360 1075 271 c 128,-1,15
 1047 182 1047 182 990.5 117.5 c 128,-1,16
 934 53 934 53 848 16.5 c 128,-1,17
 762 -20 762 -20 646 -20 c 0,18,19
 557 -20 557 -20 478 5 c 128,-1,20
 399 30 399 30 337.5 80 c 128,-1,21
 276 130 276 130 236.5 206 c 128,-1,22
 197 282 197 282 187 383 c 1,23,-1
 363 383 l 1,24,25
 380 259 380 259 454.5 195 c 128,-1,26
 529 131 529 131 646 131 c 0,27,28
 712 131 712 131 763 154.5 c 128,-1,29
 814 178 814 178 848.5 221.5 c 128,-1,30
 883 265 883 265 900.5 326 c 128,-1,31
 918 387 918 387 918 462 c 0,32,33
 918 530 918 530 898.5 589 c 128,-1,34
 879 648 879 648 842 691.5 c 128,-1,35
 805 735 805 735 751 760 c 128,-1,36
 697 785 697 785 627 785 c 0,37,38
 581 785 581 785 547.5 778.5 c 128,-1,39
 514 772 514 772 487 760 c 128,-1,40
 460 748 460 748 436.5 731 c 128,-1,41
 413 714 413 714 388 692 c 1,42,-1
 240 730 l 1,0,-1
EndSplineSet
EndChar

StartChar: six
Encoding: 54 54 28
Width: 1229
GlyphClass: 2
Flags: W
LayerCount: 2
Fore
SplineSet
856 1457 m 1,0,-1
 856 1291 l 1,1,-1
 840 1291 l 2,2,3
 748 1291 748 1291 675.5 1272 c 128,-1,4
 603 1253 603 1253 548 1220 c 128,-1,5
 493 1187 493 1187 453.5 1141.5 c 128,-1,6
 414 1096 414 1096 388 1042 c 128,-1,7
 362 988 362 988 348 929 c 128,-1,8
 334 870 334 870 330 809 c 1,9,10
 356 840 356 840 390 866.5 c 128,-1,11
 424 893 424 893 463.5 912.5 c 128,-1,12
 503 932 503 932 548.5 943.5 c 128,-1,13
 594 955 594 955 644 955 c 0,14,15
 753 955 753 955 832 913.5 c 128,-1,16
 911 872 911 872 962 804 c 128,-1,17
 1013 736 1013 736 1037 650 c 128,-1,18
 1061 564 1061 564 1061 475 c 0,19,20
 1061 373 1061 373 1032.5 283 c 128,-1,21
 1004 193 1004 193 947 125.5 c 128,-1,22
 890 58 890 58 805.5 19 c 128,-1,23
 721 -20 721 -20 610 -20 c 0,24,25
 531 -20 531 -20 465.5 3 c 128,-1,26
 400 26 400 26 348 65.5 c 128,-1,27
 296 105 296 105 257 159 c 128,-1,28
 218 213 218 213 192.5 275 c 128,-1,29
 167 337 167 337 154 404 c 128,-1,30
 141 471 141 471 141 538 c 2,31,-1
 141 625 l 2,32,33
 141 725 141 725 153.5 825.5 c 128,-1,34
 166 926 166 926 196 1018 c 128,-1,35
 226 1110 226 1110 277 1190.5 c 128,-1,36
 328 1271 328 1271 405.5 1330 c 128,-1,37
 483 1389 483 1389 590 1423 c 128,-1,38
 697 1457 697 1457 840 1457 c 2,39,-1
 856 1457 l 1,0,-1
614 801 m 0,40,41
 567 801 567 801 523 786 c 128,-1,42
 479 771 479 771 441 744 c 128,-1,43
 403 717 403 717 374 679 c 128,-1,44
 345 641 345 641 328 595 c 1,45,-1
 328 533 l 2,46,47
 328 437 328 437 351 362.5 c 128,-1,48
 374 288 374 288 413 237 c 128,-1,49
 452 186 452 186 503 159.5 c 128,-1,50
 554 133 554 133 610 133 c 0,51,52
 675 133 675 133 725 158 c 128,-1,53
 775 183 775 183 809.5 227 c 128,-1,54
 844 271 844 271 861.5 332.5 c 128,-1,55
 879 394 879 394 879 466 c 0,56,57
 879 530 879 530 863 590.5 c 128,-1,58
 847 651 847 651 814 698 c 128,-1,59
 781 745 781 745 731 773 c 128,-1,60
 681 801 681 801 614 801 c 0,40,41
EndSplineSet
EndChar

StartChar: seven
Encoding: 55 55 29
Width: 1229
GlyphClass: 2
Flags: W
LayerCount: 2
Fore
SplineSet
1096 1352 m 1,0,-1
 493 0 l 1,1,-1
 299 0 l 1,2,-1
 900 1294 l 1,3,-1
 112 1294 l 1,4,-1
 112 1456 l 1,5,-1
 1096 1456 l 1,6,-1
 1096 1352 l 1,0,-1
EndSplineSet
EndChar

StartChar: eight
Encoding: 56 56 30
Width: 1229
GlyphClass: 2
Flags: W
LayerCount: 2
Fore
SplineSet
1070 1076 m 0,0,1
 1069 967 1069 967 1011 882 c 128,-1,2
 953 797 953 797 856 749 c 1,3,4
 912 725 912 725 957.5 689.5 c 128,-1,5
 1003 654 1003 654 1035.5 608 c 128,-1,6
 1068 562 1068 562 1085.5 508 c 128,-1,7
 1103 454 1103 454 1103 393 c 0,8,9
 1103 294 1103 294 1066.5 217 c 128,-1,10
 1030 140 1030 140 967.5 87.5 c 128,-1,11
 905 35 905 35 821 7.5 c 128,-1,12
 737 -20 737 -20 641 -20 c 0,13,14
 543 -20 543 -20 458.5 7 c 128,-1,15
 374 34 374 34 311.5 86.5 c 128,-1,16
 249 139 249 139 213 216 c 128,-1,17
 177 293 177 293 177 393 c 0,18,19
 177 454 177 454 194 508.5 c 128,-1,20
 211 563 211 563 243 608.5 c 128,-1,21
 275 654 275 654 320 690 c 128,-1,22
 365 726 365 726 421 750 c 1,23,24
 373 774 373 774 334 807.5 c 128,-1,25
 295 841 295 841 268 882.5 c 128,-1,26
 241 924 241 924 226 973 c 128,-1,27
 211 1022 211 1022 211 1076 c 0,28,29
 211 1171 211 1171 243 1245.5 c 128,-1,30
 275 1320 275 1320 331.5 1371 c 128,-1,31
 388 1422 388 1422 466.5 1449 c 128,-1,32
 545 1476 545 1476 638 1476 c 0,33,34
 730 1476 730 1476 809 1449 c 128,-1,35
 888 1422 888 1422 946 1371 c 128,-1,36
 1004 1320 1004 1320 1037 1245.5 c 128,-1,37
 1070 1171 1070 1171 1070 1076 c 0,0,1
918 397 m 0,38,39
 918 458 918 458 897.5 509 c 128,-1,40
 877 560 877 560 840 596.5 c 128,-1,41
 803 633 803 633 751.5 653 c 128,-1,42
 700 673 700 673 639 673 c 0,43,44
 576 673 576 673 525 653 c 128,-1,45
 474 633 474 633 438 596.5 c 128,-1,46
 402 560 402 560 382.5 509 c 128,-1,47
 363 458 363 458 363 397 c 0,48,49
 363 334 363 334 382.5 284.5 c 128,-1,50
 402 235 402 235 438 201 c 128,-1,51
 474 167 474 167 525.5 149 c 128,-1,52
 577 131 577 131 641 131 c 0,53,54
 702 131 702 131 753 149 c 128,-1,55
 804 167 804 167 840.5 201 c 128,-1,56
 877 235 877 235 897.5 284.5 c 128,-1,57
 918 334 918 334 918 397 c 0,38,39
884 1073 m 0,58,59
 884 1128 884 1128 865.5 1174 c 128,-1,60
 847 1220 847 1220 814.5 1253.5 c 128,-1,61
 782 1287 782 1287 737 1305.5 c 128,-1,62
 692 1324 692 1324 638 1324 c 256,63,64
 584 1324 584 1324 540 1306.5 c 128,-1,65
 496 1289 496 1289 464 1256 c 128,-1,66
 432 1223 432 1223 414.5 1176.5 c 128,-1,67
 397 1130 397 1130 397 1073 c 256,68,69
 397 1016 397 1016 414.5 970.5 c 128,-1,70
 432 925 432 925 464.5 892.5 c 128,-1,71
 497 860 497 860 541.5 842.5 c 128,-1,72
 586 825 586 825 640 825 c 0,73,74
 693 825 693 825 738 842.5 c 128,-1,75
 783 860 783 860 815.5 892.5 c 128,-1,76
 848 925 848 925 866 971 c 128,-1,77
 884 1017 884 1017 884 1073 c 0,58,59
EndSplineSet
EndChar

StartChar: nine
Encoding: 57 57 31
Width: 1229
GlyphClass: 2
Flags: W
LayerCount: 2
Fore
SplineSet
373 164 m 2,0,1
 472 164 472 164 547 181.5 c 128,-1,2
 622 199 622 199 677.5 231 c 128,-1,3
 733 263 733 263 770 306.5 c 128,-1,4
 807 350 807 350 830.5 402.5 c 128,-1,5
 854 455 854 455 865 513.5 c 128,-1,6
 876 572 876 572 879 633 c 1,7,8
 855 603 855 603 824 576.5 c 128,-1,9
 793 550 793 550 754 530 c 128,-1,10
 715 510 715 510 667.5 498.5 c 128,-1,11
 620 487 620 487 564 487 c 0,12,13
 456 487 456 487 377.5 529.5 c 128,-1,14
 299 572 299 572 248 641 c 128,-1,15
 197 710 197 710 173 797 c 128,-1,16
 149 884 149 884 149 972 c 0,17,18
 149 1075 149 1075 177.5 1166.5 c 128,-1,19
 206 1258 206 1258 262.5 1326.5 c 128,-1,20
 319 1395 319 1395 403.5 1435.5 c 128,-1,21
 488 1476 488 1476 600 1476 c 0,22,23
 684 1476 684 1476 751.5 1452.5 c 128,-1,24
 819 1429 819 1429 870.5 1387.5 c 128,-1,25
 922 1346 922 1346 959 1289.5 c 128,-1,26
 996 1233 996 1233 1019.5 1167.5 c 128,-1,27
 1043 1102 1043 1102 1054 1030.5 c 128,-1,28
 1065 959 1065 959 1065 887 c 2,29,-1
 1065 820 l 2,30,31
 1065 727 1065 727 1056 629.5 c 128,-1,32
 1047 532 1047 532 1020.5 441 c 128,-1,33
 994 350 994 350 946 269.5 c 128,-1,34
 898 189 898 189 821 129 c 128,-1,35
 744 69 744 69 634 34 c 128,-1,36
 524 -1 524 -1 373 -1 c 2,37,-1
 354 -1 l 1,38,-1
 354 164 l 1,39,-1
 373 164 l 2,0,1
594 640 m 0,40,41
 641 640 641 640 685.5 655.5 c 128,-1,42
 730 671 730 671 767.5 699.5 c 128,-1,43
 805 728 805 728 834.5 766.5 c 128,-1,44
 864 805 864 805 881 852 c 1,45,-1
 881 912 l 2,46,47
 881 1009 881 1009 858.5 1085 c 128,-1,48
 836 1161 836 1161 797.5 1213.5 c 128,-1,49
 759 1266 759 1266 708.5 1294 c 128,-1,50
 658 1322 658 1322 601 1322 c 0,51,52
 536 1322 536 1322 486 1296 c 128,-1,53
 436 1270 436 1270 401.5 1224.5 c 128,-1,54
 367 1179 367 1179 349 1116.5 c 128,-1,55
 331 1054 331 1054 331 982 c 0,56,57
 331 918 331 918 347 856.5 c 128,-1,58
 363 795 363 795 395.5 747 c 128,-1,59
 428 699 428 699 477.5 669.5 c 128,-1,60
 527 640 527 640 594 640 c 0,40,41
EndSplineSet
EndChar

StartChar: less
Encoding: 60 60 34
Width: 1229
GlyphClass: 2
Flags: W
LayerCount: 2
Fore
SplineSet
406 663 m 1,0,-1
 353 646 l 1,1,-1
 406 628 l 1,2,-1
 1018 392 l 1,3,-1
 1018 196 l 1,4,-1
 170 575 l 1,5,-1
 170 721 l 1,6,-1
 1018 1099 l 1,7,-1
 1018 903 l 1,8,-1
 406 663 l 1,0,-1
EndSplineSet
EndChar

StartChar: equal
Encoding: 61 61 35
Width: 1229
GlyphClass: 2
Flags: W
LayerCount: 2
Fore
SplineSet
1066 780 m 1,0,-1
 173 780 l 1,1,-1
 173 941 l 1,2,-1
 1066 941 l 1,3,-1
 1066 780 l 1,0,-1
1066 365 m 1,4,-1
 173 365 l 1,5,-1
 173 525 l 1,6,-1
 1066 525 l 1,7,-1
 1066 365 l 1,4,-1
EndSplineSet
EndChar

StartChar: greater
Encoding: 62 62 36
Width: 1229
GlyphClass: 2
Flags: W
LayerCount: 2
Fore
SplineSet
178 909 m 1,0,-1
 178 1100 l 1,1,-1
 1061 722 l 1,2,-1
 1061 576 l 1,3,-1
 178 197 l 1,4,-1
 178 389 l 1,5,-1
 825 633 l 1,6,-1
 885 650 l 1,7,-1
 825 669 l 1,8,-1
 178 909 l 1,0,-1
EndSplineSet
EndChar

StartChar: question
Encoding: 63 63 37
Width: 1229
GlyphClass: 2
Flags: W
LayerCount: 2
Fore
SplineSet
511 410 m 1,0,1
 512 482 512 482 517 528.5 c 128,-1,2
 522 575 522 575 538 611.5 c 128,-1,3
 554 648 554 648 584 681.5 c 128,-1,4
 614 715 614 715 664 761 c 0,5,6
 698 796 698 796 733.5 833 c 128,-1,7
 769 870 769 870 798.5 910.5 c 128,-1,8
 828 951 828 951 847 996 c 128,-1,9
 866 1041 866 1041 866 1091 c 0,10,11
 866 1200 866 1200 803 1257.5 c 128,-1,12
 740 1315 740 1315 623 1315 c 0,13,14
 576 1315 576 1315 531.5 1303.5 c 128,-1,15
 487 1292 487 1292 452.5 1267.5 c 128,-1,16
 418 1243 418 1243 397 1205.5 c 128,-1,17
 376 1168 376 1168 376 1116 c 1,18,-1
 191 1116 l 1,19,20
 192 1200 192 1200 226 1267 c 128,-1,21
 260 1334 260 1334 317.5 1380.5 c 128,-1,22
 375 1427 375 1427 453.5 1451.5 c 128,-1,23
 532 1476 532 1476 623 1476 c 0,24,25
 724 1476 724 1476 803.5 1450.5 c 128,-1,26
 883 1425 883 1425 938 1376 c 128,-1,27
 993 1327 993 1327 1022 1257 c 128,-1,28
 1051 1187 1051 1187 1051 1097 c 0,29,30
 1051 1025 1051 1025 1026 961.5 c 128,-1,31
 1001 898 1001 898 962 841.5 c 128,-1,32
 923 785 923 785 874.5 736 c 128,-1,33
 826 687 826 687 779 645 c 0,34,35
 749 616 749 616 732.5 590 c 128,-1,36
 716 564 716 564 708 537 c 128,-1,37
 700 510 700 510 698 479.5 c 128,-1,38
 696 449 696 449 696 410 c 1,39,-1
 511 410 l 1,0,1
490 97 m 0,40,41
 490 145 490 145 518.5 177 c 128,-1,42
 547 209 547 209 604 209 c 256,43,44
 661 209 661 209 690.5 177 c 128,-1,45
 720 145 720 145 720 97 c 0,46,47
 720 51 720 51 690.5 20 c 128,-1,48
 661 -11 661 -11 604 -11 c 256,49,50
 547 -11 547 -11 518.5 20 c 128,-1,51
 490 51 490 51 490 97 c 0,40,41
EndSplineSet
EndChar

StartChar: at
Encoding: 64 64 38
Width: 1229
GlyphClass: 2
Flags: W
LayerCount: 2
Fore
SplineSet
1159 789 m 0,0,1
 1156 709 1156 709 1140 625.5 c 128,-1,2
 1124 542 1124 542 1091.5 474 c 128,-1,3
 1059 406 1059 406 1008 363 c 128,-1,4
 957 320 957 320 883 320 c 0,5,6
 822 320 822 320 781.5 352 c 128,-1,7
 741 384 741 384 724 441 c 1,8,9
 689 385 689 385 637.5 352.5 c 128,-1,10
 586 320 586 320 524 320 c 0,11,12
 475 320 475 320 439 346 c 128,-1,13
 403 372 403 372 380.5 419 c 128,-1,14
 358 466 358 466 349.5 531 c 128,-1,15
 341 596 341 596 347 674 c 0,16,17
 356 785 356 785 384 874.5 c 128,-1,18
 412 964 412 964 456.5 1026.5 c 128,-1,19
 501 1089 501 1089 560 1122.5 c 128,-1,20
 619 1156 619 1156 690 1156 c 0,21,22
 757 1156 757 1156 801 1129.5 c 128,-1,23
 845 1103 845 1103 871 1067 c 1,24,-1
 827 563 l 2,25,26
 824 522 824 522 829 496.5 c 128,-1,27
 834 471 834 471 843.5 456.5 c 128,-1,28
 853 442 853 442 867 437 c 128,-1,29
 881 432 881 432 897 432 c 0,30,31
 934 432 934 432 962.5 460.5 c 128,-1,32
 991 489 991 489 1010 537.5 c 128,-1,33
 1029 586 1029 586 1039 651 c 128,-1,34
 1049 716 1049 716 1050 789 c 0,35,36
 1054 916 1054 916 1029 1017 c 128,-1,37
 1004 1118 1004 1118 952.5 1188 c 128,-1,38
 901 1258 901 1258 826 1295 c 128,-1,39
 751 1332 751 1332 655 1332 c 0,40,41
 554 1332 554 1332 470.5 1284.5 c 128,-1,42
 387 1237 387 1237 326 1152 c 128,-1,43
 265 1067 265 1067 230 949 c 128,-1,44
 195 831 195 831 191 691 c 0,45,46
 186 555 186 555 210 449 c 128,-1,47
 234 343 234 343 287 269.5 c 128,-1,48
 340 196 340 196 422.5 157.5 c 128,-1,49
 505 119 505 119 617 119 c 0,50,51
 647 119 647 119 678 123.5 c 128,-1,52
 709 128 709 128 739 136.5 c 128,-1,53
 769 145 769 145 796 157 c 128,-1,54
 823 169 823 169 845 184 c 1,55,-1
 877 67 l 1,56,57
 852 48 852 48 820 34 c 128,-1,58
 788 20 788 20 753 10.5 c 128,-1,59
 718 1 718 1 682 -3.5 c 128,-1,60
 646 -8 646 -8 614 -8 c 0,61,62
 467 -8 467 -8 361.5 43.5 c 128,-1,63
 256 95 256 95 189.5 188 c 128,-1,64
 123 281 123 281 93.5 409.5 c 128,-1,65
 64 538 64 538 69 691 c 0,66,67
 73 794 73 794 94 891.5 c 128,-1,68
 115 989 115 989 151.5 1074 c 128,-1,69
 188 1159 188 1159 239.5 1229.5 c 128,-1,70
 291 1300 291 1300 355 1351 c 128,-1,71
 419 1402 419 1402 495.5 1430 c 128,-1,72
 572 1458 572 1458 658 1458 c 0,73,74
 780 1458 780 1458 875 1410.5 c 128,-1,75
 970 1363 970 1363 1034.5 1275 c 128,-1,76
 1099 1187 1099 1187 1131 1063.5 c 128,-1,77
 1163 940 1163 940 1159 789 c 0,0,1
470 674 m 0,78,79
 465 572 465 572 487 515 c 128,-1,80
 509 458 509 458 557 458 c 0,81,82
 606 458 606 458 646 485 c 128,-1,83
 686 512 686 512 716 575 c 1,84,-1
 755 1020 l 1,85,86
 727 1033 727 1033 697 1033 c 0,87,88
 644 1033 644 1033 604.5 1007.5 c 128,-1,89
 565 982 565 982 538 935.5 c 128,-1,90
 511 889 511 889 494.5 822.5 c 128,-1,91
 478 756 478 756 470 674 c 0,78,79
EndSplineSet
EndChar

StartChar: A
Encoding: 65 65 39
Width: 1229
GlyphClass: 2
Flags: W
LayerCount: 2
Fore
SplineSet
869 377 m 1,0,-1
 383 377 l 1,1,-1
 266 0 l 1,2,-1
 81 0 l 1,3,-1
 551 1456 l 1,4,-1
 706 1456 l 1,5,-1
 1168 0 l 1,6,-1
 984 0 l 1,7,-1
 869 377 l 1,0,-1
433 538 m 1,8,-1
 820 538 l 1,9,-1
 628 1170 l 1,10,-1
 433 538 l 1,8,-1
EndSplineSet
Substitution2: "'smcp' Lowercase to Small Capitals lookup 0 subtable" A.smcp
EndChar

StartChar: B
Encoding: 66 66 40
Width: 1229
GlyphClass: 2
Flags: W
LayerCount: 2
Fore
SplineSet
172 0 m 1,0,-1
 172 1456 l 1,1,-1
 605 1456 l 2,2,3
 695 1455 695 1455 781 1432.5 c 128,-1,4
 867 1410 867 1410 934 1363 c 128,-1,5
 1001 1316 1001 1316 1041 1243 c 128,-1,6
 1081 1170 1081 1170 1080 1068 c 0,7,8
 1079 1011 1079 1011 1061.5 964 c 128,-1,9
 1044 917 1044 917 1013.5 879.5 c 128,-1,10
 983 842 983 842 942 814 c 128,-1,11
 901 786 901 786 855 766 c 1,12,13
 913 749 913 749 961.5 717.5 c 128,-1,14
 1010 686 1010 686 1045 641.5 c 128,-1,15
 1080 597 1080 597 1099.5 541 c 128,-1,16
 1119 485 1119 485 1119 420 c 0,17,18
 1120 318 1120 318 1080 240 c 128,-1,19
 1040 162 1040 162 973 109.5 c 128,-1,20
 906 57 906 57 818.5 29 c 128,-1,21
 731 1 731 1 638 0 c 2,22,-1
 172 0 l 1,0,-1
358 681 m 1,23,-1
 358 157 l 1,24,-1
 643 157 l 2,25,26
 701 158 701 158 753 176.5 c 128,-1,27
 805 195 805 195 845 228 c 128,-1,28
 885 261 885 261 908.5 309 c 128,-1,29
 932 357 932 357 932 418 c 0,30,31
 933 480 933 480 911.5 528 c 128,-1,32
 890 576 890 576 852 609.5 c 128,-1,33
 814 643 814 643 763 661 c 128,-1,34
 712 679 712 679 653 681 c 2,35,-1
 358 681 l 1,23,-1
358 835 m 1,36,-1
 616 835 l 2,37,38
 668 836 668 836 718 851.5 c 128,-1,39
 768 867 768 867 807 896.5 c 128,-1,40
 846 926 846 926 870 969 c 128,-1,41
 894 1012 894 1012 894 1069 c 0,42,43
 894 1130 894 1130 870.5 1173 c 128,-1,44
 847 1216 847 1216 807.5 1243.5 c 128,-1,45
 768 1271 768 1271 716.5 1284 c 128,-1,46
 665 1297 665 1297 611 1298 c 2,47,-1
 358 1298 l 1,48,-1
 358 835 l 1,36,-1
EndSplineSet
Substitution2: "'smcp' Lowercase to Small Capitals lookup 0 subtable" B.smcp
EndChar

StartChar: C
Encoding: 67 67 41
Width: 1229
GlyphClass: 2
Flags: W
LayerCount: 2
Fore
SplineSet
1117 438 m 1,0,1
 1104 337 1104 337 1065 252.5 c 128,-1,2
 1026 168 1026 168 963.5 107.5 c 128,-1,3
 901 47 901 47 815.5 13.5 c 128,-1,4
 730 -20 730 -20 625 -20 c 0,5,6
 535 -20 535 -20 461.5 5.5 c 128,-1,7
 388 31 388 31 330.5 76 c 128,-1,8
 273 121 273 121 231.5 182 c 128,-1,9
 190 243 190 243 162.5 315 c 128,-1,10
 135 387 135 387 121.5 466 c 128,-1,11
 108 545 108 545 107 626 c 2,12,-1
 107 829 l 2,13,14
 108 910 108 910 121.5 989 c 128,-1,15
 135 1068 135 1068 162.5 1140 c 128,-1,16
 190 1212 190 1212 231.5 1273.5 c 128,-1,17
 273 1335 273 1335 330.5 1380 c 128,-1,18
 388 1425 388 1425 461 1450.5 c 128,-1,19
 534 1476 534 1476 625 1476 c 0,20,21
 734 1476 734 1476 820 1442.5 c 128,-1,22
 906 1409 906 1409 968 1347.5 c 128,-1,23
 1030 1286 1030 1286 1067.5 1200 c 128,-1,24
 1105 1114 1105 1114 1117 1010 c 1,25,-1
 932 1010 l 1,26,27
 923 1076 923 1076 901 1133 c 128,-1,28
 879 1190 879 1190 842 1233 c 128,-1,29
 805 1276 805 1276 751.5 1300.5 c 128,-1,30
 698 1325 698 1325 625 1325 c 0,31,32
 559 1325 559 1325 508.5 1303.5 c 128,-1,33
 458 1282 458 1282 421.5 1245 c 128,-1,34
 385 1208 385 1208 360.5 1159 c 128,-1,35
 336 1110 336 1110 321 1055 c 128,-1,36
 306 1000 306 1000 299.5 942.5 c 128,-1,37
 293 885 293 885 293 831 c 2,38,-1
 293 626 l 2,39,40
 293 572 293 572 299.5 514.5 c 128,-1,41
 306 457 306 457 321 401.5 c 128,-1,42
 336 346 336 346 360 297 c 128,-1,43
 384 248 384 248 421 210.5 c 128,-1,44
 458 173 458 173 508 151.5 c 128,-1,45
 558 130 558 130 625 130 c 0,46,47
 698 130 698 130 751.5 153 c 128,-1,48
 805 176 805 176 842 217.5 c 128,-1,49
 879 259 879 259 901 315.5 c 128,-1,50
 923 372 923 372 932 438 c 1,51,-1
 1117 438 l 1,0,1
EndSplineSet
Substitution2: "'smcp' Lowercase to Small Capitals lookup 0 subtable" C.smcp
EndChar

StartChar: D
Encoding: 68 68 42
Width: 1229
GlyphClass: 2
Flags: W
LayerCount: 2
Fore
SplineSet
155 0 m 1,0,-1
 155 1456 l 1,1,-1
 492 1456 l 2,2,3
 644 1454 644 1454 763.5 1404.5 c 128,-1,4
 883 1355 883 1355 965.5 1266.5 c 128,-1,5
 1048 1178 1048 1178 1091.5 1054.5 c 128,-1,6
 1135 931 1135 931 1136 781 c 2,7,-1
 1136 674 l 2,8,9
 1135 524 1135 524 1091.5 400.5 c 128,-1,10
 1048 277 1048 277 965.5 188.5 c 128,-1,11
 883 100 883 100 763.5 50.5 c 128,-1,12
 644 1 644 1 492 0 c 2,13,-1
 155 0 l 1,0,-1
343 1304 m 1,14,-1
 343 151 l 1,15,-1
 492 151 l 2,16,17
 610 152 610 152 696 192.5 c 128,-1,18
 782 233 782 233 838.5 303 c 128,-1,19
 895 373 895 373 922.5 468 c 128,-1,20
 950 563 950 563 951 674 c 2,21,-1
 951 783 l 2,22,23
 950 894 950 894 922 988.5 c 128,-1,24
 894 1083 894 1083 838 1152.5 c 128,-1,25
 782 1222 782 1222 696 1262 c 128,-1,26
 610 1302 610 1302 492 1304 c 2,27,-1
 343 1304 l 1,14,-1
EndSplineSet
Substitution2: "'smcp' Lowercase to Small Capitals lookup 0 subtable" D.smcp
EndChar

StartChar: E
Encoding: 69 69 43
Width: 1229
GlyphClass: 2
Flags: W
LayerCount: 2
Fore
SplineSet
975 673 m 1,0,-1
 367 673 l 1,1,-1
 367 157 l 1,2,-1
 1076 157 l 1,3,-1
 1076 0 l 1,4,-1
 182 0 l 1,5,-1
 182 1456 l 1,6,-1
 1067 1456 l 1,7,-1
 1067 1298 l 1,8,-1
 367 1298 l 1,9,-1
 367 830 l 1,10,-1
 975 830 l 1,11,-1
 975 673 l 1,0,-1
EndSplineSet
Substitution2: "'smcp' Lowercase to Small Capitals lookup 0 subtable" E.smcp
EndChar

StartChar: F
Encoding: 70 70 44
Width: 1229
GlyphClass: 2
Flags: W
LayerCount: 2
Fore
SplineSet
984 643 m 1,0,-1
 378 643 l 1,1,-1
 378 0 l 1,2,-1
 191 0 l 1,3,-1
 191 1456 l 1,4,-1
 1085 1456 l 1,5,-1
 1085 1298 l 1,6,-1
 378 1298 l 1,7,-1
 378 800 l 1,8,-1
 984 800 l 1,9,-1
 984 643 l 1,0,-1
EndSplineSet
Substitution2: "'smcp' Lowercase to Small Capitals lookup 0 subtable" F.smcp
EndChar

StartChar: G
Encoding: 71 71 45
Width: 1229
GlyphClass: 2
Flags: W
LayerCount: 2
Fore
SplineSet
1116 191 m 1,0,1
 1024 83 1024 83 905 31 c 128,-1,2
 786 -21 786 -21 644 -20 c 0,3,4
 554 -19 554 -19 478.5 7.5 c 128,-1,5
 403 34 403 34 343 80.5 c 128,-1,6
 283 127 283 127 238 190 c 128,-1,7
 193 253 193 253 162.5 326.5 c 128,-1,8
 132 400 132 400 116.5 480.5 c 128,-1,9
 101 561 101 561 100 643 c 2,10,-1
 100 812 l 2,11,12
 101 893 101 893 114.5 973.5 c 128,-1,13
 128 1054 128 1054 156 1128 c 128,-1,14
 184 1202 184 1202 226 1265.5 c 128,-1,15
 268 1329 268 1329 326.5 1375.5 c 128,-1,16
 385 1422 385 1422 459 1449 c 128,-1,17
 533 1476 533 1476 625 1476 c 0,18,19
 727 1476 727 1476 813 1444.5 c 128,-1,20
 899 1413 899 1413 963 1354.5 c 128,-1,21
 1027 1296 1027 1296 1066 1213.5 c 128,-1,22
 1105 1131 1105 1131 1114 1029 c 1,23,-1
 931 1029 l 1,24,25
 920 1092 920 1092 897 1145.5 c 128,-1,26
 874 1199 874 1199 836.5 1237 c 128,-1,27
 799 1275 799 1275 747 1296.5 c 128,-1,28
 695 1318 695 1318 626 1318 c 0,29,30
 560 1318 560 1318 509 1295.5 c 128,-1,31
 458 1273 458 1273 420 1235 c 128,-1,32
 382 1197 382 1197 357 1146.5 c 128,-1,33
 332 1096 332 1096 316 1040 c 128,-1,34
 300 984 300 984 293 926 c 128,-1,35
 286 868 286 868 286 814 c 2,36,-1
 286 643 l 2,37,38
 287 588 287 588 295.5 529.5 c 128,-1,39
 304 471 304 471 322 415 c 128,-1,40
 340 359 340 359 368 309 c 128,-1,41
 396 259 396 259 435.5 221 c 128,-1,42
 475 183 475 183 527 160.5 c 128,-1,43
 579 138 579 138 645 137 c 0,44,45
 683 136 683 136 724.5 140 c 128,-1,46
 766 144 766 144 805 156 c 128,-1,47
 844 168 844 168 878 188.5 c 128,-1,48
 912 209 912 209 935 242 c 1,49,-1
 937 569 l 1,50,-1
 641 569 l 1,51,-1
 641 725 l 1,52,-1
 1113 725 l 1,53,-1
 1116 191 l 1,0,1
EndSplineSet
Substitution2: "'smcp' Lowercase to Small Capitals lookup 0 subtable" G.smcp
EndChar

StartChar: H
Encoding: 72 72 46
Width: 1229
GlyphClass: 2
Flags: W
LayerCount: 2
Fore
SplineSet
1087 0 m 1,0,-1
 912 0 l 1,1,-1
 912 673 l 1,2,-1
 315 673 l 1,3,-1
 315 0 l 1,4,-1
 141 0 l 1,5,-1
 141 1456 l 1,6,-1
 315 1456 l 1,7,-1
 315 830 l 1,8,-1
 912 830 l 1,9,-1
 912 1456 l 1,10,-1
 1087 1456 l 1,11,-1
 1087 0 l 1,0,-1
EndSplineSet
Substitution2: "'smcp' Lowercase to Small Capitals lookup 0 subtable" H.smcp
EndChar

StartChar: I
Encoding: 73 73 47
Width: 1229
GlyphClass: 2
Flags: W
LayerCount: 2
Fore
SplineSet
174 1456 m 1,0,-1
 1054 1456 l 1,1,-1
 1054 1295 l 1,2,-1
 705 1295 l 1,3,-1
 705 160 l 1,4,-1
 1054 160 l 1,5,-1
 1054 0 l 1,6,-1
 174 0 l 1,7,-1
 174 160 l 1,8,-1
 515 160 l 1,9,-1
 515 1295 l 1,10,-1
 174 1295 l 1,11,-1
 174 1456 l 1,0,-1
EndSplineSet
Substitution2: "'smcp' Lowercase to Small Capitals lookup 0 subtable" I.smcp
EndChar

StartChar: J
Encoding: 74 74 48
Width: 1229
GlyphClass: 2
Flags: W
LayerCount: 2
Fore
SplineSet
857 1456 m 1,0,-1
 1046 1456 l 1,1,-1
 1046 443 l 2,2,3
 1044 342 1044 342 1007.5 257 c 128,-1,4
 971 172 971 172 908 110.5 c 128,-1,5
 845 49 845 49 759.5 14.5 c 128,-1,6
 674 -20 674 -20 573 -20 c 0,7,8
 471 -20 471 -20 387.5 11 c 128,-1,9
 304 42 304 42 242.5 99.5 c 128,-1,10
 181 157 181 157 144 238.5 c 128,-1,11
 107 320 107 320 98 421 c 1,12,-1
 286 421 l 1,13,14
 289 360 289 360 310.5 308 c 128,-1,15
 332 256 332 256 369 217.5 c 128,-1,16
 406 179 406 179 457.5 158 c 128,-1,17
 509 137 509 137 573 137 c 0,18,19
 639 137 639 137 691 161.5 c 128,-1,20
 743 186 743 186 779.5 228 c 128,-1,21
 816 270 816 270 835.5 325.5 c 128,-1,22
 855 381 855 381 857 443 c 2,23,-1
 857 1456 l 1,0,-1
EndSplineSet
Substitution2: "'smcp' Lowercase to Small Capitals lookup 0 subtable" J.smcp
EndChar

StartChar: K
Encoding: 75 75 49
Width: 1229
GlyphClass: 2
Flags: W
LayerCount: 2
Fore
SplineSet
523 676 m 1,0,-1
 361 492 l 1,1,-1
 361 0 l 1,2,-1
 172 0 l 1,3,-1
 172 1456 l 1,4,-1
 361 1456 l 1,5,-1
 361 745 l 1,6,-1
 502 921 l 1,7,-1
 929 1456 l 1,8,-1
 1154 1456 l 1,9,-1
 645 819 l 1,10,-1
 1188 0 l 1,11,-1
 963 0 l 1,12,-1
 523 676 l 1,0,-1
EndSplineSet
Substitution2: "'smcp' Lowercase to Small Capitals lookup 0 subtable" K.smcp
EndChar

StartChar: L
Encoding: 76 76 50
Width: 1229
GlyphClass: 2
Flags: W
LayerCount: 2
Fore
SplineSet
383 157 m 1,0,-1
 1095 157 l 1,1,-1
 1095 0 l 1,2,-1
 198 0 l 1,3,-1
 198 1456 l 1,4,-1
 383 1456 l 1,5,-1
 383 157 l 1,0,-1
EndSplineSet
Substitution2: "'smcp' Lowercase to Small Capitals lookup 0 subtable" L.smcp
EndChar

StartChar: M
Encoding: 77 77 51
Width: 1229
GlyphClass: 2
Flags: W
LayerCount: 2
Fore
SplineSet
377 1456 m 1,0,-1
 614 728 l 1,1,-1
 870 1456 l 1,2,-1
 1100 1456 l 1,3,-1
 1100 0 l 1,4,-1
 920 0 l 1,5,-1
 920 581 l 1,6,-1
 935 1189 l 1,7,-1
 666 405 l 1,8,-1
 560 405 l 1,9,-1
 313 1168 l 1,10,-1
 328 581 l 1,11,-1
 328 0 l 1,12,-1
 148 0 l 1,13,-1
 148 1456 l 1,14,-1
 377 1456 l 1,0,-1
EndSplineSet
Substitution2: "'smcp' Lowercase to Small Capitals lookup 0 subtable" M.smcp
EndChar

StartChar: N
Encoding: 78 78 52
Width: 1229
GlyphClass: 2
Flags: W
LayerCount: 2
Fore
SplineSet
1086 0 m 1,0,-1
 898 0 l 1,1,-1
 333 1088 l 1,2,-1
 330 0 l 1,3,-1
 143 0 l 1,4,-1
 143 1456 l 1,5,-1
 331 1456 l 1,6,-1
 896 370 l 1,7,-1
 899 1456 l 1,8,-1
 1086 1456 l 1,9,-1
 1086 0 l 1,0,-1
EndSplineSet
Substitution2: "'smcp' Lowercase to Small Capitals lookup 0 subtable" N.smcp
EndChar

StartChar: O
Encoding: 79 79 53
Width: 1229
GlyphClass: 2
Flags: W
LayerCount: 2
Fore
SplineSet
1121 644 m 2,0,1
 1120 566 1120 566 1107.5 486.5 c 128,-1,2
 1095 407 1095 407 1069 333 c 128,-1,3
 1043 259 1043 259 1002.5 195 c 128,-1,4
 962 131 962 131 906 83 c 128,-1,5
 850 35 850 35 777.5 7.5 c 128,-1,6
 705 -20 705 -20 615 -20 c 256,7,8
 525 -20 525 -20 452.5 7.5 c 128,-1,9
 380 35 380 35 324 83 c 128,-1,10
 268 131 268 131 227 195.5 c 128,-1,11
 186 260 186 260 159.5 334 c 128,-1,12
 133 408 133 408 120 487 c 128,-1,13
 107 566 107 566 106 644 c 2,14,-1
 106 810 l 2,15,16
 107 888 107 888 119.5 967.5 c 128,-1,17
 132 1047 132 1047 158.5 1121 c 128,-1,18
 185 1195 185 1195 225.5 1259.5 c 128,-1,19
 266 1324 266 1324 322 1372.5 c 128,-1,20
 378 1421 378 1421 450.5 1448.5 c 128,-1,21
 523 1476 523 1476 613 1476 c 256,22,23
 703 1476 703 1476 776 1448.5 c 128,-1,24
 849 1421 849 1421 905 1373 c 128,-1,25
 961 1325 961 1325 1001.5 1260.5 c 128,-1,26
 1042 1196 1042 1196 1068.5 1122 c 128,-1,27
 1095 1048 1095 1048 1107.5 968 c 128,-1,28
 1120 888 1120 888 1121 810 c 2,29,-1
 1121 644 l 2,0,1
938 812 m 2,30,31
 937 864 937 864 931 920.5 c 128,-1,32
 925 977 925 977 910.5 1032.5 c 128,-1,33
 896 1088 896 1088 872 1138.5 c 128,-1,34
 848 1189 848 1189 812 1227.5 c 128,-1,35
 776 1266 776 1266 727 1288.5 c 128,-1,36
 678 1311 678 1311 613 1311 c 0,37,38
 549 1311 549 1311 500 1288 c 128,-1,39
 451 1265 451 1265 415 1226.5 c 128,-1,40
 379 1188 379 1188 355 1137.5 c 128,-1,41
 331 1087 331 1087 316.5 1031.5 c 128,-1,42
 302 976 302 976 295.5 919.5 c 128,-1,43
 289 863 289 863 288 812 c 2,44,-1
 288 644 l 2,45,46
 289 593 289 593 295.5 536 c 128,-1,47
 302 479 302 479 317 423.5 c 128,-1,48
 332 368 332 368 356 317 c 128,-1,49
 380 266 380 266 416 227.5 c 128,-1,50
 452 189 452 189 501 166 c 128,-1,51
 550 143 550 143 615 143 c 256,52,53
 680 143 680 143 729.5 166 c 128,-1,54
 779 189 779 189 814.5 227.5 c 128,-1,55
 850 266 850 266 873.5 316.5 c 128,-1,56
 897 367 897 367 911.5 422.5 c 128,-1,57
 926 478 926 478 931.5 535 c 128,-1,58
 937 592 937 592 938 644 c 2,59,-1
 938 812 l 2,30,31
EndSplineSet
Substitution2: "'smcp' Lowercase to Small Capitals lookup 0 subtable" O.smcp
EndChar

StartChar: P
Encoding: 80 80 54
Width: 1229
GlyphClass: 2
Flags: W
LayerCount: 2
Fore
SplineSet
376 584 m 1,0,-1
 376 0 l 1,1,-1
 191 0 l 1,2,-1
 191 1456 l 1,3,-1
 663 1456 l 2,4,5
 761 1454 761 1454 848.5 1425 c 128,-1,6
 936 1396 936 1396 1002 1341 c 128,-1,7
 1068 1286 1068 1286 1106.5 1205 c 128,-1,8
 1145 1124 1145 1124 1145 1019 c 256,9,10
 1145 914 1145 914 1106.5 833.5 c 128,-1,11
 1068 753 1068 753 1002 698 c 128,-1,12
 936 643 936 643 848.5 614 c 128,-1,13
 761 585 761 585 663 584 c 2,14,-1
 376 584 l 1,0,-1
376 736 m 1,15,-1
 663 736 l 2,16,17
 727 737 727 737 781 756.5 c 128,-1,18
 835 776 835 776 875 812 c 128,-1,19
 915 848 915 848 937.5 899.5 c 128,-1,20
 960 951 960 951 960 1017 c 256,21,22
 960 1083 960 1083 937.5 1136 c 128,-1,23
 915 1189 915 1189 875.5 1226 c 128,-1,24
 836 1263 836 1263 781.5 1283 c 128,-1,25
 727 1303 727 1303 663 1304 c 2,26,-1
 376 1304 l 1,27,-1
 376 736 l 1,15,-1
EndSplineSet
Substitution2: "'smcp' Lowercase to Small Capitals lookup 0 subtable" P.smcp
EndChar

StartChar: Q
Encoding: 81 81 55
Width: 1229
GlyphClass: 2
Flags: W
LayerCount: 2
Fore
SplineSet
1134 663 m 2,0,1
 1133 582 1133 582 1120 500 c 128,-1,2
 1107 418 1107 418 1080.5 342 c 128,-1,3
 1054 266 1054 266 1012.5 199.5 c 128,-1,4
 971 133 971 133 913 84 c 1,5,-1
 1164 -125 l 1,6,-1
 1037 -246 l 1,7,-1
 749 -2 l 1,8,9
 687 -20 687 -20 615 -20 c 0,10,11
 522 -20 522 -20 448 8.5 c 128,-1,12
 374 37 374 37 316.5 86 c 128,-1,13
 259 135 259 135 217 201.5 c 128,-1,14
 175 268 175 268 148 344 c 128,-1,15
 121 420 121 420 108 501.5 c 128,-1,16
 95 583 95 583 94 663 c 2,17,-1
 94 791 l 2,18,19
 95 871 95 871 108 953 c 128,-1,20
 121 1035 121 1035 148 1111 c 128,-1,21
 175 1187 175 1187 216 1253.5 c 128,-1,22
 257 1320 257 1320 314.5 1369.5 c 128,-1,23
 372 1419 372 1419 446.5 1447.5 c 128,-1,24
 521 1476 521 1476 614 1476 c 256,25,26
 707 1476 707 1476 781.5 1447.5 c 128,-1,27
 856 1419 856 1419 913.5 1370 c 128,-1,28
 971 1321 971 1321 1012.5 1254.5 c 128,-1,29
 1054 1188 1054 1188 1080.5 1112 c 128,-1,30
 1107 1036 1107 1036 1120 953.5 c 128,-1,31
 1133 871 1133 871 1134 791 c 2,32,-1
 1134 663 l 2,0,1
950 793 m 2,33,34
 949 848 949 848 943.5 907.5 c 128,-1,35
 938 967 938 967 923.5 1024.5 c 128,-1,36
 909 1082 909 1082 884.5 1134 c 128,-1,37
 860 1186 860 1186 823 1225.5 c 128,-1,38
 786 1265 786 1265 734.5 1288 c 128,-1,39
 683 1311 683 1311 614 1311 c 0,40,41
 546 1311 546 1311 495 1287.5 c 128,-1,42
 444 1264 444 1264 407 1224.5 c 128,-1,43
 370 1185 370 1185 345.5 1133 c 128,-1,44
 321 1081 321 1081 306 1023.5 c 128,-1,45
 291 966 291 966 284.5 906.5 c 128,-1,46
 278 847 278 847 278 793 c 2,47,-1
 278 663 l 2,48,49
 278 609 278 609 284.5 549.5 c 128,-1,50
 291 490 291 490 306 432 c 128,-1,51
 321 374 321 374 345.5 322 c 128,-1,52
 370 270 370 270 407 230 c 128,-1,53
 444 190 444 190 495.5 166.5 c 128,-1,54
 547 143 547 143 615 143 c 0,55,56
 684 143 684 143 735.5 166.5 c 128,-1,57
 787 190 787 190 824 229.5 c 128,-1,58
 861 269 861 269 885 321 c 128,-1,59
 909 373 909 373 923.5 431 c 128,-1,60
 938 489 938 489 943.5 548.5 c 128,-1,61
 949 608 949 608 950 663 c 2,62,-1
 950 793 l 2,33,34
EndSplineSet
Substitution2: "'smcp' Lowercase to Small Capitals lookup 0 subtable" Q.smcp
EndChar

StartChar: R
Encoding: 82 82 56
Width: 1229
GlyphClass: 2
Flags: W
LayerCount: 2
Fore
SplineSet
656 594 m 1,0,-1
 365 594 l 1,1,-1
 365 0 l 1,2,-1
 181 0 l 1,3,-1
 181 1456 l 1,4,-1
 608 1456 l 2,5,6
 710 1454 710 1454 800 1427 c 128,-1,7
 890 1400 890 1400 957.5 1346 c 128,-1,8
 1025 1292 1025 1292 1063.5 1210.5 c 128,-1,9
 1102 1129 1102 1129 1102 1019 c 0,10,11
 1102 948 1102 948 1081.5 889 c 128,-1,12
 1061 830 1061 830 1025 782 c 128,-1,13
 989 734 989 734 939 697 c 128,-1,14
 889 660 889 660 829 634 c 1,15,-1
 1138 12 l 1,16,-1
 1137 0 l 1,17,-1
 942 0 l 1,18,-1
 656 594 l 1,0,-1
365 746 m 1,19,-1
 613 746 l 2,20,21
 675 747 675 747 730 765.5 c 128,-1,22
 785 784 785 784 826.5 819 c 128,-1,23
 868 854 868 854 892 904.5 c 128,-1,24
 916 955 916 955 916 1021 c 0,25,26
 916 1091 916 1091 893 1143.5 c 128,-1,27
 870 1196 870 1196 829 1231.5 c 128,-1,28
 788 1267 788 1267 731.5 1285 c 128,-1,29
 675 1303 675 1303 608 1304 c 2,30,-1
 365 1304 l 1,31,-1
 365 746 l 1,19,-1
EndSplineSet
Substitution2: "'smcp' Lowercase to Small Capitals lookup 0 subtable" R.smcp
EndChar

StartChar: S
Encoding: 83 83 57
Width: 1229
GlyphClass: 2
Flags: W
LayerCount: 2
Fore
SplineSet
936 368 m 0,0,1
 936 435 936 435 905.5 481 c 128,-1,2
 875 527 875 527 827 558.5 c 128,-1,3
 779 590 779 590 721.5 611 c 128,-1,4
 664 632 664 632 611 649 c 0,5,6
 534 674 534 674 454.5 709 c 128,-1,7
 375 744 375 744 309.5 795 c 128,-1,8
 244 846 244 846 202.5 915.5 c 128,-1,9
 161 985 161 985 161 1079 c 256,10,11
 161 1173 161 1173 202.5 1247 c 128,-1,12
 244 1321 244 1321 311 1372 c 128,-1,13
 378 1423 378 1423 463 1449.5 c 128,-1,14
 548 1476 548 1476 634 1476 c 0,15,16
 729 1476 729 1476 817 1444.5 c 128,-1,17
 905 1413 905 1413 973 1356 c 128,-1,18
 1041 1299 1041 1299 1082 1218 c 128,-1,19
 1123 1137 1123 1137 1125 1037 c 1,20,-1
 935 1037 l 1,21,22
 927 1100 927 1100 904 1151.5 c 128,-1,23
 881 1203 881 1203 843 1240 c 128,-1,24
 805 1277 805 1277 752.5 1297.5 c 128,-1,25
 700 1318 700 1318 634 1318 c 0,26,27
 581 1318 581 1318 530.5 1303 c 128,-1,28
 480 1288 480 1288 440.5 1258 c 128,-1,29
 401 1228 401 1228 377.5 1184 c 128,-1,30
 354 1140 354 1140 354 1082 c 0,31,32
 355 1019 355 1019 386 975.5 c 128,-1,33
 417 932 417 932 464.5 902 c 128,-1,34
 512 872 512 872 567.5 852 c 128,-1,35
 623 832 623 832 672 817 c 0,36,37
 726 800 726 800 781 778.5 c 128,-1,38
 836 757 836 757 887 729 c 128,-1,39
 938 701 938 701 982 666 c 128,-1,40
 1026 631 1026 631 1059 586.5 c 128,-1,41
 1092 542 1092 542 1110.5 488.5 c 128,-1,42
 1129 435 1129 435 1129 370 c 0,43,44
 1129 272 1129 272 1085.5 199 c 128,-1,45
 1042 126 1042 126 973 77.5 c 128,-1,46
 904 29 904 29 817 4.5 c 128,-1,47
 730 -20 730 -20 643 -20 c 0,48,49
 546 -20 546 -20 453 10 c 128,-1,50
 360 40 360 40 286.5 96.5 c 128,-1,51
 213 153 213 153 167 234.5 c 128,-1,52
 121 316 121 316 118 420 c 1,53,-1
 307 420 l 1,54,55
 316 352 316 352 344 299.5 c 128,-1,56
 372 247 372 247 416 210.5 c 128,-1,57
 460 174 460 174 517.5 155.5 c 128,-1,58
 575 137 575 137 643 137 c 0,59,60
 697 137 697 137 749.5 150.5 c 128,-1,61
 802 164 802 164 843 192.5 c 128,-1,62
 884 221 884 221 910 264.5 c 128,-1,63
 936 308 936 308 936 368 c 0,0,1
EndSplineSet
Substitution2: "'smcp' Lowercase to Small Capitals lookup 0 subtable" S.smcp
EndChar

StartChar: T
Encoding: 84 84 58
Width: 1229
GlyphClass: 2
Flags: W
LayerCount: 2
Fore
SplineSet
1156 1298 m 1,0,-1
 706 1298 l 1,1,-1
 706 0 l 1,2,-1
 526 0 l 1,3,-1
 526 1298 l 1,4,-1
 76 1298 l 1,5,-1
 76 1456 l 1,6,-1
 1156 1456 l 1,7,-1
 1156 1298 l 1,0,-1
EndSplineSet
Substitution2: "'smcp' Lowercase to Small Capitals lookup 0 subtable" T.smcp
EndChar

StartChar: U
Encoding: 85 85 59
Width: 1229
GlyphClass: 2
Flags: W
LayerCount: 2
Fore
SplineSet
1088 1456 m 1,0,-1
 1090 470 l 2,1,2
 1088 368 1088 368 1053 279 c 128,-1,3
 1018 190 1018 190 955 123.5 c 128,-1,4
 892 57 892 57 805 18.5 c 128,-1,5
 718 -20 718 -20 614 -20 c 0,6,7
 508 -20 508 -20 421 18 c 128,-1,8
 334 56 334 56 272 122.5 c 128,-1,9
 210 189 210 189 175 278.5 c 128,-1,10
 140 368 140 368 139 470 c 2,11,-1
 141 1456 l 1,12,-1
 317 1456 l 1,13,-1
 321 470 l 2,14,15
 322 405 322 405 341.5 345 c 128,-1,16
 361 285 361 285 397.5 239 c 128,-1,17
 434 193 434 193 488.5 165 c 128,-1,18
 543 137 543 137 614 137 c 256,19,20
 685 137 685 137 739 164.5 c 128,-1,21
 793 192 793 192 829.5 238.5 c 128,-1,22
 866 285 866 285 885 345 c 128,-1,23
 904 405 904 405 906 470 c 2,24,-1
 909 1456 l 1,25,-1
 1088 1456 l 1,0,-1
EndSplineSet
Substitution2: "'smcp' Lowercase to Small Capitals lookup 0 subtable" U.smcp
EndChar

StartChar: V
Encoding: 86 86 60
Width: 1229
GlyphClass: 2
Flags: W
LayerCount: 2
Fore
SplineSet
610 298 m 1,0,-1
 954 1456 l 1,1,-1
 1151 1456 l 1,2,-1
 692 0 l 1,3,-1
 531 0 l 1,4,-1
 71 1456 l 1,5,-1
 269 1456 l 1,6,-1
 610 298 l 1,0,-1
EndSplineSet
Substitution2: "'smcp' Lowercase to Small Capitals lookup 0 subtable" V.smcp
EndChar

StartChar: W
Encoding: 87 87 61
Width: 1229
GlyphClass: 2
Flags: W
LayerCount: 2
Fore
SplineSet
896 394 m 1,0,-1
 1007 1456 l 1,1,-1
 1182 1456 l 1,2,-1
 1005 0 l 1,3,-1
 816 0 l 1,4,-1
 629 1097 l 1,5,-1
 440 0 l 1,6,-1
 250 0 l 1,7,-1
 73 1456 l 1,8,-1
 249 1456 l 1,9,-1
 360 394 l 1,10,-1
 547 1456 l 1,11,-1
 708 1456 l 1,12,-1
 896 394 l 1,0,-1
EndSplineSet
Substitution2: "'smcp' Lowercase to Small Capitals lookup 0 subtable" W.smcp
EndChar

StartChar: X
Encoding: 88 88 62
Width: 1229
GlyphClass: 2
Flags: W
LayerCount: 2
Fore
SplineSet
625 885 m 1,0,-1
 939 1456 l 1,1,-1
 1157 1456 l 1,2,-1
 734 734 l 1,3,-1
 1167 0 l 1,4,-1
 951 0 l 1,5,-1
 629 582 l 1,6,-1
 306 0 l 1,7,-1
 87 0 l 1,8,-1
 521 734 l 1,9,-1
 98 1456 l 1,10,-1
 315 1456 l 1,11,-1
 625 885 l 1,0,-1
EndSplineSet
Substitution2: "'smcp' Lowercase to Small Capitals lookup 0 subtable" X.smcp
EndChar

StartChar: Y
Encoding: 89 89 63
Width: 1229
GlyphClass: 2
Flags: W
LayerCount: 2
Fore
SplineSet
603 725 m 1,0,-1
 935 1456 l 1,1,-1
 1145 1456 l 1,2,-1
 692 543 l 1,3,-1
 689 0 l 1,4,-1
 517 0 l 1,5,-1
 514 543 l 1,6,-1
 61 1456 l 1,7,-1
 272 1456 l 1,8,-1
 603 725 l 1,0,-1
EndSplineSet
Substitution2: "'smcp' Lowercase to Small Capitals lookup 0 subtable" Y.smcp
EndChar

StartChar: Z
Encoding: 90 90 64
Width: 1229
GlyphClass: 2
Flags: W
LayerCount: 2
Fore
SplineSet
325 157 m 1,0,-1
 1079 157 l 1,1,-1
 1079 0 l 1,2,-1
 116 0 l 1,3,-1
 114 144 l 1,4,-1
 839 1298 l 1,5,-1
 127 1298 l 1,6,-1
 127 1456 l 1,7,-1
 1050 1456 l 1,8,-1
 1052 1315 l 1,9,-1
 325 157 l 1,0,-1
EndSplineSet
Substitution2: "'smcp' Lowercase to Small Capitals lookup 0 subtable" Z.smcp
EndChar

StartChar: bracketleft
Encoding: 91 91 65
Width: 1229
GlyphClass: 2
Flags: W
LayerCount: 2
Fore
SplineSet
822 1512 m 1,0,-1
 601 1512 l 1,1,-1
 601 -160 l 1,2,-1
 822 -160 l 1,3,-1
 822 -312 l 1,4,-1
 426 -312 l 1,5,-1
 426 1664 l 1,6,-1
 822 1664 l 1,7,-1
 822 1512 l 1,0,-1
EndSplineSet
EndChar

StartChar: backslash
Encoding: 92 92 66
Width: 1229
GlyphClass: 2
Flags: W
LayerCount: 2
Fore
SplineSet
231 1456 m 1,0,-1
 398 1456 l 1,1,-1
 1006 -125 l 1,2,-1
 839 -125 l 1,3,-1
 231 1456 l 1,0,-1
EndSplineSet
EndChar

StartChar: bracketright
Encoding: 93 93 67
Width: 1229
GlyphClass: 2
Flags: W
LayerCount: 2
Fore
SplineSet
405 1664 m 1,0,-1
 802 1664 l 1,1,-1
 802 -312 l 1,2,-1
 405 -312 l 1,3,-1
 405 -160 l 1,4,-1
 627 -160 l 1,5,-1
 627 1512 l 1,6,-1
 405 1512 l 1,7,-1
 405 1664 l 1,0,-1
EndSplineSet
EndChar

StartChar: asciicircum
Encoding: 94 94 68
Width: 1229
GlyphClass: 2
Flags: W
LayerCount: 2
Fore
SplineSet
403 677 m 1,0,-1
 231 677 l 1,1,-1
 551 1456 l 1,2,-1
 678 1456 l 1,3,-1
 997 677 l 1,4,-1
 826 677 l 1,5,-1
 628 1163 l 1,6,-1
 613 1231 l 1,7,-1
 598 1163 l 1,8,-1
 403 677 l 1,0,-1
EndSplineSet
EndChar

StartChar: underscore
Encoding: 95 95 69
Width: 1229
GlyphClass: 2
Flags: W
LayerCount: 2
Fore
SplineSet
1072 -151 m 1,0,-1
 155 -151 l 1,1,-1
 155 0 l 1,2,-1
 1072 0 l 1,3,-1
 1072 -151 l 1,0,-1
EndSplineSet
EndChar

StartChar: grave
Encoding: 96 96 70
Width: 1229
GlyphClass: 2
Flags: W
LayerCount: 2
Fore
SplineSet
813 1215 m 1,0,-1
 663 1215 l 1,1,-1
 415 1481 l 1,2,-1
 638 1481 l 1,3,-1
 813 1215 l 1,0,-1
EndSplineSet
EndChar

StartChar: a
Encoding: 97 97 71
Width: 1229
GlyphClass: 2
Flags: W
LayerCount: 2
Fore
SplineSet
885 0 m 1,0,1
 874 21 874 21 867.5 52.5 c 128,-1,2
 861 84 861 84 858 118 c 1,3,4
 830 90 830 90 795.5 65 c 128,-1,5
 761 40 761 40 719.5 21 c 128,-1,6
 678 2 678 2 631 -9 c 128,-1,7
 584 -20 584 -20 531 -20 c 0,8,9
 445 -20 445 -20 375.5 5 c 128,-1,10
 306 30 306 30 257.5 72.5 c 128,-1,11
 209 115 209 115 182.5 173.5 c 128,-1,12
 156 232 156 232 156 300 c 0,13,14
 156 389 156 389 191.5 456 c 128,-1,15
 227 523 227 523 292 567.5 c 128,-1,16
 357 612 357 612 448.5 634 c 128,-1,17
 540 656 540 656 653 656 c 2,18,-1
 855 656 l 1,19,-1
 855 741 l 2,20,21
 855 790 855 790 837 829 c 128,-1,22
 819 868 819 868 786 895.5 c 128,-1,23
 753 923 753 923 705.5 938 c 128,-1,24
 658 953 658 953 599 953 c 0,25,26
 544 953 544 953 500.5 939 c 128,-1,27
 457 925 457 925 427 902 c 128,-1,28
 397 879 397 879 380.5 847.5 c 128,-1,29
 364 816 364 816 364 782 c 1,30,-1
 178 782 l 1,31,32
 179 841 179 841 208.5 898 c 128,-1,33
 238 955 238 955 293.5 1000.5 c 128,-1,34
 349 1046 349 1046 428.5 1074 c 128,-1,35
 508 1102 508 1102 609 1102 c 0,36,37
 701 1102 701 1102 780 1079.5 c 128,-1,38
 859 1057 859 1057 916.5 1011.5 c 128,-1,39
 974 966 974 966 1007 898 c 128,-1,40
 1040 830 1040 830 1040 739 c 2,41,-1
 1040 236 l 2,42,43
 1040 182 1040 182 1050 121.5 c 128,-1,44
 1060 61 1060 61 1078 16 c 1,45,-1
 1078 0 l 1,46,-1
 885 0 l 1,0,1
558 141 m 256,47,48
 612 141 612 141 659 155 c 128,-1,49
 706 169 706 169 744.5 192 c 128,-1,50
 783 215 783 215 811 244.5 c 128,-1,51
 839 274 839 274 855 306 c 1,52,-1
 855 525 l 1,53,-1
 683 525 l 2,54,55
 521 525 521 525 431 477 c 128,-1,56
 341 429 341 429 341 326 c 0,57,58
 341 286 341 286 354.5 252 c 128,-1,59
 368 218 368 218 395 193.5 c 128,-1,60
 422 169 422 169 463 155 c 128,-1,61
 504 141 504 141 558 141 c 256,47,48
EndSplineSet
Substitution2: "'smcp' Lowercase to Small Capitals lookup 0 subtable" A.smcp
EndChar

StartChar: b
Encoding: 98 98 72
Width: 1229
GlyphClass: 2
Flags: W
LayerCount: 2
Fore
SplineSet
1091 529 m 2,0,1
 1091 413 1091 413 1063 312.5 c 128,-1,2
 1035 212 1035 212 981 138 c 128,-1,3
 927 64 927 64 847.5 22 c 128,-1,4
 768 -20 768 -20 665 -20 c 0,5,6
 561 -20 561 -20 484.5 17 c 128,-1,7
 408 54 408 54 354 123 c 1,8,-1
 345 0 l 1,9,-1
 175 0 l 1,10,-1
 175 1536 l 1,11,-1
 360 1536 l 1,12,-1
 360 966 l 1,13,14
 413 1032 413 1032 488 1067 c 128,-1,15
 563 1102 563 1102 663 1102 c 0,16,17
 767 1102 767 1102 847 1061 c 128,-1,18
 927 1020 927 1020 981 947 c 128,-1,19
 1035 874 1035 874 1063 772.5 c 128,-1,20
 1091 671 1091 671 1091 550 c 2,21,-1
 1091 529 l 2,0,1
906 550 m 2,22,23
 906 629 906 629 890.5 700.5 c 128,-1,24
 875 772 875 772 841 826.5 c 128,-1,25
 807 881 807 881 752 913 c 128,-1,26
 697 945 697 945 617 945 c 0,27,28
 569 945 569 945 529 932.5 c 128,-1,29
 489 920 489 920 457.5 897.5 c 128,-1,30
 426 875 426 875 401.5 844.5 c 128,-1,31
 377 814 377 814 360 778 c 1,32,-1
 360 305 l 1,33,34
 378 269 378 269 402.5 238.5 c 128,-1,35
 427 208 427 208 459 185 c 128,-1,36
 491 162 491 162 531 149.5 c 128,-1,37
 571 137 571 137 619 137 c 0,38,39
 695 137 695 137 749.5 168.5 c 128,-1,40
 804 200 804 200 838.5 254 c 128,-1,41
 873 308 873 308 889.5 379 c 128,-1,42
 906 450 906 450 906 529 c 2,43,-1
 906 550 l 2,22,23
EndSplineSet
Substitution2: "'smcp' Lowercase to Small Capitals lookup 0 subtable" B.smcp
EndChar

StartChar: c
Encoding: 99 99 73
Width: 1229
GlyphClass: 2
Flags: W
LayerCount: 2
Fore
SplineSet
635 130 m 0,0,1
 685 130 685 130 732.5 146 c 128,-1,2
 780 162 780 162 817 190.5 c 128,-1,3
 854 219 854 219 876.5 257.5 c 128,-1,4
 899 296 899 296 900 341 c 1,5,-1
 1075 341 l 1,6,7
 1074 269 1074 269 1037.5 203.5 c 128,-1,8
 1001 138 1001 138 940 88.5 c 128,-1,9
 879 39 879 39 800 9.5 c 128,-1,10
 721 -20 721 -20 635 -20 c 0,11,12
 512 -20 512 -20 420 24 c 128,-1,13
 328 68 328 68 266.5 142.5 c 128,-1,14
 205 217 205 217 174 314.5 c 128,-1,15
 143 412 143 412 143 520 c 2,16,-1
 143 562 l 2,17,18
 143 669 143 669 174 767 c 128,-1,19
 205 865 205 865 266.5 939.5 c 128,-1,20
 328 1014 328 1014 420 1058 c 128,-1,21
 512 1102 512 1102 635 1102 c 0,22,23
 731 1102 731 1102 811.5 1071.5 c 128,-1,24
 892 1041 892 1041 950.5 988.5 c 128,-1,25
 1009 936 1009 936 1042 864 c 128,-1,26
 1075 792 1075 792 1075 710 c 1,27,-1
 900 710 l 1,28,29
 899 759 899 759 878.5 802.5 c 128,-1,30
 858 846 858 846 823 879 c 128,-1,31
 788 912 788 912 739.5 931 c 128,-1,32
 691 950 691 950 635 950 c 0,33,34
 549 950 549 950 490.5 915.5 c 128,-1,35
 432 881 432 881 396 825.5 c 128,-1,36
 360 770 360 770 344.5 701 c 128,-1,37
 329 632 329 632 329 562 c 2,38,-1
 329 520 l 2,39,40
 329 449 329 449 344.5 379.5 c 128,-1,41
 360 310 360 310 395.5 254.5 c 128,-1,42
 431 199 431 199 489.5 164.5 c 128,-1,43
 548 130 548 130 635 130 c 0,0,1
EndSplineSet
Substitution2: "'smcp' Lowercase to Small Capitals lookup 0 subtable" C.smcp
EndChar

StartChar: d
Encoding: 100 100 74
Width: 1229
GlyphClass: 2
Flags: W
LayerCount: 2
Fore
SplineSet
139 550 m 2,0,1
 139 671 139 671 169.5 772.5 c 128,-1,2
 200 874 200 874 256.5 947 c 128,-1,3
 313 1020 313 1020 393 1061 c 128,-1,4
 473 1102 473 1102 572 1102 c 0,5,6
 669 1102 669 1102 741.5 1069.5 c 128,-1,7
 814 1037 814 1037 867 975 c 1,8,-1
 867 1536 l 1,9,-1
 1052 1536 l 1,10,-1
 1052 0 l 1,11,-1
 882 0 l 1,12,-1
 874 114 l 1,13,14
 820 48 820 48 745 14 c 128,-1,15
 670 -20 670 -20 570 -20 c 0,16,17
 472 -20 472 -20 392.5 22 c 128,-1,18
 313 64 313 64 257 138 c 128,-1,19
 201 212 201 212 170 312.5 c 128,-1,20
 139 413 139 413 139 529 c 2,21,-1
 139 550 l 2,0,1
324 529 m 2,22,23
 324 450 324 450 341 379 c 128,-1,24
 358 308 358 308 393.5 254 c 128,-1,25
 429 200 429 200 484 168.5 c 128,-1,26
 539 137 539 137 616 137 c 0,27,28
 663 137 663 137 701 148 c 128,-1,29
 739 159 739 159 770 179.5 c 128,-1,30
 801 200 801 200 825 228.5 c 128,-1,31
 849 257 849 257 867 292 c 1,32,-1
 867 794 l 1,33,34
 831 860 831 860 770 902.5 c 128,-1,35
 709 945 709 945 618 945 c 0,36,37
 540 945 540 945 484.5 913 c 128,-1,38
 429 881 429 881 393.5 826.5 c 128,-1,39
 358 772 358 772 341 700.5 c 128,-1,40
 324 629 324 629 324 550 c 2,41,-1
 324 529 l 2,22,23
EndSplineSet
Substitution2: "'smcp' Lowercase to Small Capitals lookup 0 subtable" D.smcp
EndChar

StartChar: e
Encoding: 101 101 75
Width: 1229
GlyphClass: 2
Flags: W
LayerCount: 2
Fore
SplineSet
652 -20 m 0,0,1
 538 -20 538 -20 442.5 19 c 128,-1,2
 347 58 347 58 279 128 c 128,-1,3
 211 198 211 198 173 294 c 128,-1,4
 135 390 135 390 135 503 c 2,5,-1
 135 545 l 2,6,7
 135 676 135 676 177 779.5 c 128,-1,8
 219 883 219 883 288.5 954.5 c 128,-1,9
 358 1026 358 1026 446.5 1064 c 128,-1,10
 535 1102 535 1102 628 1102 c 0,11,12
 745 1102 745 1102 832.5 1061.5 c 128,-1,13
 920 1021 920 1021 978 949.5 c 128,-1,14
 1036 878 1036 878 1064.5 781 c 128,-1,15
 1093 684 1093 684 1093 571 c 2,16,-1
 1093 488 l 1,17,-1
 320 488 l 1,18,19
 323 414 323 414 348.5 349 c 128,-1,20
 374 284 374 284 418.5 235.5 c 128,-1,21
 463 187 463 187 525 159 c 128,-1,22
 587 131 587 131 662 131 c 0,23,24
 761 131 761 131 838 171 c 128,-1,25
 915 211 915 211 966 277 c 1,26,-1
 1079 189 l 1,27,28
 1052 148 1052 148 1011.5 110.5 c 128,-1,29
 971 73 971 73 918 44 c 128,-1,30
 865 15 865 15 798 -2.5 c 128,-1,31
 731 -20 731 -20 652 -20 c 0,0,1
628 950 m 0,32,33
 572 950 572 950 522 929.5 c 128,-1,34
 472 909 472 909 432 869.5 c 128,-1,35
 392 830 392 830 364.5 772.5 c 128,-1,36
 337 715 337 715 326 640 c 1,37,-1
 908 640 l 1,38,-1
 908 654 l 2,39,40
 905 708 905 708 887.5 761 c 128,-1,41
 870 814 870 814 836 856 c 128,-1,42
 802 898 802 898 750.5 924 c 128,-1,43
 699 950 699 950 628 950 c 0,32,33
EndSplineSet
Substitution2: "'smcp' Lowercase to Small Capitals lookup 0 subtable" E.smcp
EndChar

StartChar: f
Encoding: 102 102 76
Width: 1230
GlyphClass: 2
Flags: W
LayerCount: 2
Fore
SplineSet
450 0 m 1,0,-1
 450 939 l 1,1,-1
 152 939 l 1,2,-1
 152 1082 l 1,3,-1
 450 1082 l 1,4,-1
 450 1158 l 2,5,6
 450 1262 450 1262 480.5 1340.5 c 128,-1,7
 511 1419 511 1419 566.5 1472 c 128,-1,8
 622 1525 622 1525 700 1552 c 128,-1,9
 778 1579 778 1579 874 1579 c 0,10,11
 940 1579 940 1579 1002.5 1568 c 128,-1,12
 1065 1557 1065 1557 1131 1540 c 1,13,-1
 1109 1387 l 1,14,15
 1068 1401 1068 1401 1013.5 1411.5 c 128,-1,16
 959 1422 959 1422 897 1422 c 0,17,18
 767 1421 767 1421 701.5 1356 c 128,-1,19
 636 1291 636 1291 636 1158 c 2,20,-1
 636 1082 l 1,21,-1
 1053 1082 l 1,22,-1
 1053 939 l 1,23,-1
 636 939 l 1,24,-1
 636 0 l 1,25,-1
 450 0 l 1,0,-1
EndSplineSet
Substitution2: "'smcp' Lowercase to Small Capitals lookup 0 subtable" F.smcp
EndChar

StartChar: g
Encoding: 103 103 77
Width: 1229
GlyphClass: 2
Flags: W
LayerCount: 2
Fore
SplineSet
140 550 m 2,0,1
 140 671 140 671 169.5 772.5 c 128,-1,2
 199 874 199 874 255 947 c 128,-1,3
 311 1020 311 1020 391 1061 c 128,-1,4
 471 1102 471 1102 572 1102 c 0,5,6
 672 1102 672 1102 747.5 1066.5 c 128,-1,7
 823 1031 823 1031 876 964 c 1,8,-1
 885 1082 l 1,9,-1
 1053 1082 l 1,10,-1
 1053 23 l 2,11,12
 1053 -84 1053 -84 1019.5 -167 c 128,-1,13
 986 -250 986 -250 925.5 -308 c 128,-1,14
 865 -366 865 -366 781 -396 c 128,-1,15
 697 -426 697 -426 595 -426 c 0,16,17
 553 -426 553 -426 499 -416.5 c 128,-1,18
 445 -407 445 -407 389.5 -385.5 c 128,-1,19
 334 -364 334 -364 282.5 -328 c 128,-1,20
 231 -292 231 -292 194 -239 c 1,21,-1
 290 -128 l 1,22,23
 324 -169 324 -169 360 -197.5 c 128,-1,24
 396 -226 396 -226 433 -243 c 128,-1,25
 470 -260 470 -260 507 -267.5 c 128,-1,26
 544 -275 544 -275 581 -275 c 0,27,28
 647 -275 647 -275 700 -256 c 128,-1,29
 753 -237 753 -237 790.5 -200.5 c 128,-1,30
 828 -164 828 -164 848 -110 c 128,-1,31
 868 -56 868 -56 868 14 c 2,32,-1
 868 107 l 1,33,34
 814 45 814 45 740.5 12.5 c 128,-1,35
 667 -20 667 -20 570 -20 c 0,36,37
 471 -20 471 -20 391 22 c 128,-1,38
 311 64 311 64 255.5 138 c 128,-1,39
 200 212 200 212 170 312.5 c 128,-1,40
 140 413 140 413 140 529 c 2,41,-1
 140 550 l 2,0,1
325 529 m 2,42,43
 325 450 325 450 341.5 379 c 128,-1,44
 358 308 358 308 393.5 254 c 128,-1,45
 429 200 429 200 484 168.5 c 128,-1,46
 539 137 539 137 616 137 c 0,47,48
 664 137 664 137 702.5 148.5 c 128,-1,49
 741 160 741 160 771.5 181 c 128,-1,50
 802 202 802 202 826 231 c 128,-1,51
 850 260 850 260 868 295 c 1,52,-1
 868 791 l 1,53,54
 850 825 850 825 826 853 c 128,-1,55
 802 881 802 881 771 901.5 c 128,-1,56
 740 922 740 922 702 933.5 c 128,-1,57
 664 945 664 945 618 945 c 0,58,59
 540 945 540 945 484.5 913 c 128,-1,60
 429 881 429 881 393.5 826.5 c 128,-1,61
 358 772 358 772 341.5 700.5 c 128,-1,62
 325 629 325 629 325 550 c 2,63,-1
 325 529 l 2,42,43
EndSplineSet
Substitution2: "'smcp' Lowercase to Small Capitals lookup 0 subtable" G.smcp
EndChar

StartChar: h
Encoding: 104 104 78
Width: 1229
GlyphClass: 2
Flags: W
LayerCount: 2
Fore
SplineSet
359 921 m 1,0,1
 417 1006 417 1006 502 1053.5 c 128,-1,2
 587 1101 587 1101 693 1102 c 0,3,4
 778 1102 778 1102 847.5 1077.5 c 128,-1,5
 917 1053 917 1053 966 1001 c 128,-1,6
 1015 949 1015 949 1041.5 869.5 c 128,-1,7
 1068 790 1068 790 1068 681 c 2,8,-1
 1068 0 l 1,9,-1
 883 0 l 1,10,-1
 883 683 l 2,11,12
 883 816 883 816 819.5 881 c 128,-1,13
 756 946 756 946 638 945 c 0,14,15
 549 945 549 945 476.5 901.5 c 128,-1,16
 404 858 404 858 359 786 c 1,17,-1
 359 0 l 1,18,-1
 174 0 l 1,19,-1
 174 1536 l 1,20,-1
 359 1536 l 1,21,-1
 359 921 l 1,0,1
EndSplineSet
Substitution2: "'smcp' Lowercase to Small Capitals lookup 0 subtable" H.smcp
EndChar

StartChar: i
Encoding: 105 105 79
Width: 1229
GlyphClass: 2
Flags: W
LayerCount: 2
Fore
SplineSet
203 1082 m 1,0,-1
 756 1082 l 1,1,-1
 756 160 l 1,2,-1
 1109 160 l 1,3,-1
 1109 0 l 1,4,-1
 203 0 l 1,5,-1
 203 160 l 1,6,-1
 571 160 l 1,7,-1
 571 921 l 1,8,-1
 203 921 l 1,9,-1
 203 1082 l 1,0,-1
547 1366 m 0,10,11
 547 1412 547 1412 574.5 1443.5 c 128,-1,12
 602 1475 602 1475 658 1475 c 0,13,14
 713 1475 713 1475 741 1443.5 c 128,-1,15
 769 1412 769 1412 769 1366 c 0,16,17
 769 1321 769 1321 741 1291 c 128,-1,18
 713 1261 713 1261 658 1261 c 0,19,20
 602 1261 602 1261 574.5 1291 c 128,-1,21
 547 1321 547 1321 547 1366 c 0,10,11
EndSplineSet
Substitution2: "'smcp' Lowercase to Small Capitals lookup 0 subtable" I.smcp
EndChar

StartChar: j
Encoding: 106 106 80
Width: 1229
GlyphClass: 2
Flags: W
LayerCount: 2
Fore
SplineSet
299 1082 m 1,0,-1
 845 1082 l 1,1,-1
 845 -7 l 2,2,3
 845 -111 845 -111 816.5 -191 c 128,-1,4
 788 -271 788 -271 733.5 -325.5 c 128,-1,5
 679 -380 679 -380 600.5 -408.5 c 128,-1,6
 522 -437 522 -437 422 -437 c 0,7,8
 365 -437 365 -437 315.5 -433.5 c 128,-1,9
 266 -430 266 -430 211 -420 c 1,10,-1
 224 -268 l 1,11,12
 241 -271 241 -271 267 -273.5 c 128,-1,13
 293 -276 293 -276 319.5 -277.5 c 128,-1,14
 346 -279 346 -279 370.5 -279.5 c 128,-1,15
 395 -280 395 -280 409 -280 c 0,16,17
 461 -280 461 -280 507 -266.5 c 128,-1,18
 553 -253 553 -253 587 -221 c 128,-1,19
 621 -189 621 -189 640.5 -136.5 c 128,-1,20
 660 -84 660 -84 660 -7 c 2,21,-1
 660 921 l 1,22,-1
 299 921 l 1,23,-1
 299 1082 l 1,0,-1
634 1367 m 256,24,25
 634 1412 634 1412 661 1443.5 c 128,-1,26
 688 1475 688 1475 744 1475 c 256,27,28
 800 1475 800 1475 828 1443.5 c 128,-1,29
 856 1412 856 1412 856 1367 c 256,30,31
 856 1322 856 1322 828 1291.5 c 128,-1,32
 800 1261 800 1261 744 1261 c 256,33,34
 688 1261 688 1261 661 1291.5 c 128,-1,35
 634 1322 634 1322 634 1367 c 256,24,25
EndSplineSet
Substitution2: "'smcp' Lowercase to Small Capitals lookup 0 subtable" J.smcp
EndChar

StartChar: k
Encoding: 107 107 81
Width: 1229
GlyphClass: 2
Flags: W
LayerCount: 2
Fore
SplineSet
498 505 m 1,0,-1
 362 374 l 1,1,-1
 362 0 l 1,2,-1
 176 0 l 1,3,-1
 176 1536 l 1,4,-1
 362 1536 l 1,5,-1
 362 596 l 1,6,-1
 483 726 l 1,7,-1
 838 1082 l 1,8,-1
 1063 1082 l 1,9,-1
 625 631 l 1,10,-1
 1130 0 l 1,11,-1
 895 0 l 1,12,-1
 498 505 l 1,0,-1
EndSplineSet
Substitution2: "'smcp' Lowercase to Small Capitals lookup 0 subtable" K.smcp
EndChar

StartChar: l
Encoding: 108 108 82
Width: 1229
GlyphClass: 2
Flags: W
LayerCount: 2
Fore
SplineSet
203 1536 m 1,0,-1
 756 1536 l 1,1,-1
 756 160 l 1,2,-1
 1109 160 l 1,3,-1
 1109 0 l 1,4,-1
 203 0 l 1,5,-1
 203 160 l 1,6,-1
 571 160 l 1,7,-1
 571 1375 l 1,8,-1
 203 1375 l 1,9,-1
 203 1536 l 1,0,-1
EndSplineSet
Substitution2: "'smcp' Lowercase to Small Capitals lookup 0 subtable" L.smcp
EndChar

StartChar: m
Encoding: 109 109 83
Width: 1229
GlyphClass: 2
Flags: W
LayerCount: 2
Fore
SplineSet
259 1082 m 1,0,-1
 264 980 l 1,1,2
 297 1037 297 1037 350.5 1069 c 128,-1,3
 404 1101 404 1101 480 1102 c 0,4,5
 629 1102 629 1102 679 986 c 1,6,7
 711 1038 711 1038 763.5 1069.5 c 128,-1,8
 816 1101 816 1101 891 1102 c 0,9,10
 1010 1102 1010 1102 1074 1029 c 128,-1,11
 1138 956 1138 956 1138 808 c 2,12,-1
 1138 0 l 1,13,-1
 962 0 l 1,14,-1
 962 810 l 2,15,16
 962 946 962 946 837 945 c 0,17,18
 804 945 804 945 780 936 c 128,-1,19
 756 927 756 927 740 911.5 c 128,-1,20
 724 896 724 896 715 875.5 c 128,-1,21
 706 855 706 855 703 833 c 2,22,-1
 703 0 l 1,23,-1
 527 0 l 1,24,-1
 527 811 l 2,25,26
 527 876 527 876 498 911 c 128,-1,27
 469 946 469 946 406 945 c 0,28,29
 348 945 348 945 316 922 c 128,-1,30
 284 899 284 899 269 861 c 1,31,-1
 269 0 l 1,32,-1
 93 0 l 1,33,-1
 93 1082 l 1,34,-1
 259 1082 l 1,0,-1
EndSplineSet
Substitution2: "'smcp' Lowercase to Small Capitals lookup 0 subtable" M.smcp
EndChar

StartChar: n
Encoding: 110 110 84
Width: 1229
GlyphClass: 2
Flags: W
LayerCount: 2
Fore
SplineSet
340 1082 m 1,0,-1
 353 922 l 1,1,2
 412 1006 412 1006 498 1053.5 c 128,-1,3
 584 1101 584 1101 690 1102 c 0,4,5
 775 1102 775 1102 844.5 1078 c 128,-1,6
 914 1054 914 1054 963 1003 c 128,-1,7
 1012 952 1012 952 1038.5 873.5 c 128,-1,8
 1065 795 1065 795 1065 687 c 2,9,-1
 1065 0 l 1,10,-1
 880 0 l 1,11,-1
 880 683 l 2,12,13
 880 755 880 755 864 805 c 128,-1,14
 848 855 848 855 816.5 886 c 128,-1,15
 785 917 785 917 739.5 931 c 128,-1,16
 694 945 694 945 635 945 c 0,17,18
 542 945 542 945 471.5 898.5 c 128,-1,19
 401 852 401 852 359 776 c 1,20,-1
 359 0 l 1,21,-1
 174 0 l 1,22,-1
 174 1082 l 1,23,-1
 340 1082 l 1,0,-1
EndSplineSet
Substitution2: "'smcp' Lowercase to Small Capitals lookup 0 subtable" N.smcp
EndChar

StartChar: o
Encoding: 111 111 85
Width: 1229
GlyphClass: 2
Flags: W
LayerCount: 2
Fore
SplineSet
122 551 m 2,0,1
 122 668 122 668 156 768.5 c 128,-1,2
 190 869 190 869 253.5 943 c 128,-1,3
 317 1017 317 1017 408 1059.5 c 128,-1,4
 499 1102 499 1102 613 1102 c 0,5,6
 728 1102 728 1102 819.5 1059.5 c 128,-1,7
 911 1017 911 1017 974.5 943 c 128,-1,8
 1038 869 1038 869 1072 768.5 c 128,-1,9
 1106 668 1106 668 1106 551 c 2,10,-1
 1106 529 l 2,11,12
 1106 412 1106 412 1072 312 c 128,-1,13
 1038 212 1038 212 974.5 138 c 128,-1,14
 911 64 911 64 820 22 c 128,-1,15
 729 -20 729 -20 615 -20 c 0,16,17
 500 -20 500 -20 408.5 22 c 128,-1,18
 317 64 317 64 253.5 138 c 128,-1,19
 190 212 190 212 156 312 c 128,-1,20
 122 412 122 412 122 529 c 2,21,-1
 122 551 l 2,0,1
307 529 m 2,22,23
 307 449 307 449 326 376.5 c 128,-1,24
 345 304 345 304 383.5 249 c 128,-1,25
 422 194 422 194 480 162 c 128,-1,26
 538 130 538 130 615 130 c 0,27,28
 691 130 691 130 748.5 162 c 128,-1,29
 806 194 806 194 844.5 249 c 128,-1,30
 883 304 883 304 902 376.5 c 128,-1,31
 921 449 921 449 921 529 c 2,32,-1
 921 551 l 2,33,34
 921 630 921 630 901.5 702.5 c 128,-1,35
 882 775 882 775 843.5 830 c 128,-1,36
 805 885 805 885 747.5 917.5 c 128,-1,37
 690 950 690 950 613 950 c 256,38,39
 536 950 536 950 479 917.5 c 128,-1,40
 422 885 422 885 383.5 830 c 128,-1,41
 345 775 345 775 326 702.5 c 128,-1,42
 307 630 307 630 307 551 c 2,43,-1
 307 529 l 2,22,23
EndSplineSet
Substitution2: "'smcp' Lowercase to Small Capitals lookup 0 subtable" O.smcp
EndChar

StartChar: p
Encoding: 112 112 86
Width: 1229
GlyphClass: 2
Flags: W
LayerCount: 2
Fore
SplineSet
1087 529 m 2,0,1
 1087 413 1087 413 1059 312.5 c 128,-1,2
 1031 212 1031 212 977 138 c 128,-1,3
 923 64 923 64 843.5 22 c 128,-1,4
 764 -20 764 -20 662 -20 c 0,5,6
 563 -20 563 -20 487.5 12 c 128,-1,7
 412 44 412 44 358 104 c 1,8,-1
 358 -416 l 1,9,-1
 173 -416 l 1,10,-1
 173 1082 l 1,11,-1
 342 1082 l 1,12,-1
 351 964 l 1,13,14
 405 1031 405 1031 481.5 1066.5 c 128,-1,15
 558 1102 558 1102 659 1102 c 0,16,17
 763 1102 763 1102 843 1061 c 128,-1,18
 923 1020 923 1020 977 947 c 128,-1,19
 1031 874 1031 874 1059 772.5 c 128,-1,20
 1087 671 1087 671 1087 550 c 2,21,-1
 1087 529 l 2,0,1
902 550 m 2,22,23
 902 629 902 629 884.5 700.5 c 128,-1,24
 867 772 867 772 830.5 826.5 c 128,-1,25
 794 881 794 881 738 913 c 128,-1,26
 682 945 682 945 604 945 c 0,27,28
 515 945 515 945 454.5 903.5 c 128,-1,29
 394 862 394 862 358 797 c 1,30,-1
 358 276 l 1,31,32
 394 212 394 212 454 171.5 c 128,-1,33
 514 131 514 131 606 131 c 0,34,35
 683 131 683 131 739 163.5 c 128,-1,36
 795 196 795 196 831 251 c 128,-1,37
 867 306 867 306 884.5 378 c 128,-1,38
 902 450 902 450 902 529 c 2,39,-1
 902 550 l 2,22,23
EndSplineSet
Substitution2: "'smcp' Lowercase to Small Capitals lookup 0 subtable" P.smcp
EndChar

StartChar: q
Encoding: 113 113 87
Width: 1229
GlyphClass: 2
Flags: W
LayerCount: 2
Fore
SplineSet
140 550 m 2,0,1
 140 671 140 671 169 772.5 c 128,-1,2
 198 874 198 874 254 947 c 128,-1,3
 310 1020 310 1020 391.5 1061 c 128,-1,4
 473 1102 473 1102 577 1102 c 0,5,6
 673 1102 673 1102 746.5 1069.5 c 128,-1,7
 820 1037 820 1037 874 975 c 1,8,-1
 882 1082 l 1,9,-1
 1052 1082 l 1,10,-1
 1052 -416 l 1,11,-1
 867 -416 l 1,12,-1
 867 98 l 1,13,14
 813 41 813 41 741 10.5 c 128,-1,15
 669 -20 669 -20 575 -20 c 0,16,17
 472 -20 472 -20 391.5 22 c 128,-1,18
 311 64 311 64 255 138 c 128,-1,19
 199 212 199 212 169.5 312.5 c 128,-1,20
 140 413 140 413 140 529 c 2,21,-1
 140 550 l 2,0,1
325 529 m 2,22,23
 325 450 325 450 342.5 378 c 128,-1,24
 360 306 360 306 396 251 c 128,-1,25
 432 196 432 196 487.5 163.5 c 128,-1,26
 543 131 543 131 620 131 c 0,27,28
 709 131 709 131 769 171 c 128,-1,29
 829 211 829 211 867 275 c 1,30,-1
 867 809 l 1,31,32
 848 840 848 840 823.5 865.5 c 128,-1,33
 799 891 799 891 768.5 910 c 128,-1,34
 738 929 738 929 701.5 939.5 c 128,-1,35
 665 950 665 950 622 950 c 0,36,37
 545 950 545 950 489 917 c 128,-1,38
 433 884 433 884 396.5 828.5 c 128,-1,39
 360 773 360 773 342.5 701 c 128,-1,40
 325 629 325 629 325 550 c 2,41,-1
 325 529 l 2,22,23
EndSplineSet
Substitution2: "'smcp' Lowercase to Small Capitals lookup 0 subtable" Q.smcp
EndChar

StartChar: r
Encoding: 114 114 88
Width: 1229
GlyphClass: 2
Flags: W
LayerCount: 2
Fore
SplineSet
883 1102 m 0,0,1
 909 1102 909 1102 937 1100.5 c 128,-1,2
 965 1099 965 1099 990.5 1095.5 c 128,-1,3
 1016 1092 1016 1092 1037.5 1087 c 128,-1,4
 1059 1082 1059 1082 1073 1076 c 1,5,-1
 1048 895 l 1,6,7
 994 907 994 907 945.5 912.5 c 128,-1,8
 897 918 897 918 844 918 c 0,9,10
 714 918 714 918 633.5 859 c 128,-1,11
 553 800 553 800 515 694 c 1,12,-1
 515 0 l 1,13,-1
 329 0 l 1,14,-1
 329 1082 l 1,15,-1
 505 1082 l 1,16,-1
 514 910 l 1,17,18
 580 999 580 999 672.5 1050.5 c 128,-1,19
 765 1102 765 1102 883 1102 c 0,0,1
EndSplineSet
Substitution2: "'smcp' Lowercase to Small Capitals lookup 0 subtable" R.smcp
EndChar

StartChar: s
Encoding: 115 115 89
Width: 1229
GlyphClass: 2
Flags: W
LayerCount: 2
Fore
SplineSet
893 287 m 0,0,1
 893 320 893 320 880 346.5 c 128,-1,2
 867 373 867 373 836 395 c 128,-1,3
 805 417 805 417 754 435.5 c 128,-1,4
 703 454 703 454 627 469 c 0,5,6
 534 488 534 488 457.5 515 c 128,-1,7
 381 542 381 542 326.5 579.5 c 128,-1,8
 272 617 272 617 242 667.5 c 128,-1,9
 212 718 212 718 212 785 c 0,10,11
 212 851 212 851 243 908.5 c 128,-1,12
 274 966 274 966 330 1009 c 128,-1,13
 386 1052 386 1052 463.5 1077 c 128,-1,14
 541 1102 541 1102 634 1102 c 0,15,16
 734 1102 734 1102 814 1076 c 128,-1,17
 894 1050 894 1050 950 1004 c 128,-1,18
 1006 958 1006 958 1036.5 896.5 c 128,-1,19
 1067 835 1067 835 1067 764 c 1,20,-1
 882 764 l 1,21,22
 882 799 882 799 864 832.5 c 128,-1,23
 846 866 846 866 814 892 c 128,-1,24
 782 918 782 918 736.5 934 c 128,-1,25
 691 950 691 950 634 950 c 0,26,27
 575 950 575 950 530.5 937 c 128,-1,28
 486 924 486 924 456.5 902 c 128,-1,29
 427 880 427 880 412 851 c 128,-1,30
 397 822 397 822 397 791 c 0,31,32
 397 759 397 759 409 734 c 128,-1,33
 421 709 421 709 450.5 689 c 128,-1,34
 480 669 480 669 529.5 653 c 128,-1,35
 579 637 579 637 655 622 c 0,36,37
 755 601 755 601 834 573.5 c 128,-1,38
 913 546 913 546 967 507.5 c 128,-1,39
 1021 469 1021 469 1049.5 418 c 128,-1,40
 1078 367 1078 367 1078 300 c 0,41,42
 1078 228 1078 228 1045.5 169 c 128,-1,43
 1013 110 1013 110 955 68 c 128,-1,44
 897 26 897 26 816 3 c 128,-1,45
 735 -20 735 -20 639 -20 c 0,46,47
 529 -20 529 -20 443 9.5 c 128,-1,48
 357 39 357 39 297.5 87.5 c 128,-1,49
 238 136 238 136 206.5 200 c 128,-1,50
 175 264 175 264 175 333 c 1,51,-1
 360 333 l 1,52,53
 364 276 364 276 390.5 237 c 128,-1,54
 417 198 417 198 456.5 174 c 128,-1,55
 496 150 496 150 544 140 c 128,-1,56
 592 130 592 130 639 130 c 0,57,58
 756 130 756 130 824 173 c 128,-1,59
 892 216 892 216 893 287 c 0,0,1
EndSplineSet
Substitution2: "'smcp' Lowercase to Small Capitals lookup 0 subtable" S.smcp
EndChar

StartChar: t
Encoding: 116 116 90
Width: 1229
GlyphClass: 2
Flags: W
LayerCount: 2
Fore
SplineSet
612 1344 m 1,0,-1
 612 1082 l 1,1,-1
 1024 1082 l 1,2,-1
 1024 939 l 1,3,-1
 612 939 l 1,4,-1
 612 351 l 2,5,6
 612 288 612 288 628 247 c 128,-1,7
 644 206 644 206 672 181.5 c 128,-1,8
 700 157 700 157 736.5 147 c 128,-1,9
 773 137 773 137 814 137 c 0,10,11
 844 137 844 137 876 140.5 c 128,-1,12
 908 144 908 144 938.5 149 c 128,-1,13
 969 154 969 154 995.5 159.5 c 128,-1,14
 1022 165 1022 165 1039 169 c 1,15,-1
 1065 38 l 1,16,17
 1042 24 1042 24 1009 13.5 c 128,-1,18
 976 3 976 3 937 -4.5 c 128,-1,19
 898 -12 898 -12 854.5 -16 c 128,-1,20
 811 -20 811 -20 768 -20 c 0,21,22
 696 -20 696 -20 633.5 0.5 c 128,-1,23
 571 21 571 21 525 65.5 c 128,-1,24
 479 110 479 110 452.5 180.5 c 128,-1,25
 426 251 426 251 426 351 c 2,26,-1
 426 939 l 1,27,-1
 142 939 l 1,28,-1
 142 1082 l 1,29,-1
 426 1082 l 1,30,-1
 426 1344 l 1,31,-1
 612 1344 l 1,0,-1
EndSplineSet
Substitution2: "'smcp' Lowercase to Small Capitals lookup 0 subtable" T.smcp
EndChar

StartChar: u
Encoding: 117 117 91
Width: 1229
GlyphClass: 2
Flags: W
LayerCount: 2
Fore
SplineSet
876 149 m 1,0,1
 822 69 822 69 741 24.5 c 128,-1,2
 660 -20 660 -20 554 -20 c 0,3,4
 469 -20 469 -20 400 6.5 c 128,-1,5
 331 33 331 33 282 89 c 128,-1,6
 233 145 233 145 206.5 231.5 c 128,-1,7
 180 318 180 318 180 439 c 2,8,-1
 180 1082 l 1,9,-1
 365 1082 l 1,10,-1
 365 437 l 2,11,12
 365 349 365 349 379 291 c 128,-1,13
 393 233 393 233 421 198.5 c 128,-1,14
 449 164 449 164 489.5 150 c 128,-1,15
 530 136 530 136 583 136 c 0,16,17
 696 136 696 136 765.5 182 c 128,-1,18
 835 228 835 228 869 306 c 1,19,-1
 869 1082 l 1,20,-1
 1055 1082 l 1,21,-1
 1055 0 l 1,22,-1
 887 0 l 1,23,-1
 876 149 l 1,0,1
EndSplineSet
Substitution2: "'smcp' Lowercase to Small Capitals lookup 0 subtable" U.smcp
EndChar

StartChar: v
Encoding: 118 118 92
Width: 1229
GlyphClass: 2
Flags: W
LayerCount: 2
Fore
SplineSet
598 266 m 1,0,-1
 615 199 l 1,1,-1
 633 266 l 1,2,-1
 936 1082 l 1,3,-1
 1125 1082 l 1,4,-1
 684 0 l 1,5,-1
 543 0 l 1,6,-1
 98 1082 l 1,7,-1
 288 1082 l 1,8,-1
 598 266 l 1,0,-1
EndSplineSet
Substitution2: "'smcp' Lowercase to Small Capitals lookup 0 subtable" V.smcp
EndChar

StartChar: w
Encoding: 119 119 93
Width: 1229
GlyphClass: 2
Flags: W
LayerCount: 2
Fore
SplineSet
338 392 m 1,0,-1
 360 237 l 1,1,-1
 387 392 l 1,2,-1
 560 1082 l 1,3,-1
 679 1082 l 1,4,-1
 851 392 l 1,5,-1
 880 222 l 1,6,-1
 907 392 l 1,7,-1
 1027 1082 l 1,8,-1
 1191 1082 l 1,9,-1
 961 0 l 1,10,-1
 815 0 l 1,11,-1
 646 663 l 1,12,-1
 618 831 l 1,13,-1
 591 663 l 1,14,-1
 424 0 l 1,15,-1
 278 0 l 1,16,-1
 48 1082 l 1,17,-1
 212 1082 l 1,18,-1
 338 392 l 1,0,-1
EndSplineSet
Substitution2: "'smcp' Lowercase to Small Capitals lookup 0 subtable" W.smcp
EndChar

StartChar: x
Encoding: 120 120 94
Width: 1229
GlyphClass: 2
Flags: W
LayerCount: 2
Fore
SplineSet
621 681 m 1,0,-1
 910 1082 l 1,1,-1
 1127 1082 l 1,2,-1
 724 547 l 1,3,-1
 1138 0 l 1,4,-1
 924 0 l 1,5,-1
 625 412 l 1,6,-1
 326 0 l 1,7,-1
 110 0 l 1,8,-1
 524 547 l 1,9,-1
 121 1082 l 1,10,-1
 335 1082 l 1,11,-1
 621 681 l 1,0,-1
EndSplineSet
Substitution2: "'smcp' Lowercase to Small Capitals lookup 0 subtable" X.smcp
EndChar

StartChar: y
Encoding: 121 121 95
Width: 1229
GlyphClass: 2
Flags: W
LayerCount: 2
Fore
SplineSet
572 384 m 1,0,-1
 620 253 l 1,1,-1
 950 1082 l 1,2,-1
 1157 1082 l 1,3,-1
 608 -167 l 2,4,5
 589 -209 589 -209 559.5 -256 c 128,-1,6
 530 -303 530 -303 488 -343 c 128,-1,7
 446 -383 446 -383 390 -410 c 128,-1,8
 334 -437 334 -437 261 -437 c 0,9,10
 248 -437 248 -437 232 -435.5 c 128,-1,11
 216 -434 216 -434 200 -431.5 c 128,-1,12
 184 -429 184 -429 170 -426 c 128,-1,13
 156 -423 156 -423 147 -421 c 1,14,-1
 177 -270 l 1,15,16
 184 -270 184 -270 196 -271 c 128,-1,17
 208 -272 208 -272 221 -273 c 128,-1,18
 234 -274 234 -274 246 -274.5 c 128,-1,19
 258 -275 258 -275 265 -275 c 0,20,21
 303 -275 303 -275 334.5 -254 c 128,-1,22
 366 -233 366 -233 390.5 -204 c 128,-1,23
 415 -175 415 -175 432.5 -144 c 128,-1,24
 450 -113 450 -113 460 -93 c 2,25,-1
 534 51 l 1,26,-1
 68 1082 l 1,27,-1
 275 1082 l 1,28,-1
 572 384 l 1,0,-1
EndSplineSet
Substitution2: "'smcp' Lowercase to Small Capitals lookup 0 subtable" Y.smcp
EndChar

StartChar: z
Encoding: 122 122 96
Width: 1229
GlyphClass: 2
Flags: W
LayerCount: 2
Fore
SplineSet
396 151 m 1,0,-1
 1085 151 l 1,1,-1
 1085 0 l 1,2,-1
 160 0 l 1,3,-1
 160 136 l 1,4,-1
 806 929 l 1,5,-1
 169 929 l 1,6,-1
 169 1082 l 1,7,-1
 1049 1082 l 1,8,-1
 1049 951 l 1,9,-1
 396 151 l 1,0,-1
EndSplineSet
Substitution2: "'smcp' Lowercase to Small Capitals lookup 0 subtable" Z.smcp
EndChar

StartChar: braceleft
Encoding: 123 123 97
Width: 1229
GlyphClass: 2
Flags: W
LayerCount: 2
Fore
SplineSet
978 -366 m 1,0,1
 913 -364 913 -364 860 -344 c 128,-1,2
 807 -324 807 -324 765 -290 c 128,-1,3
 723 -256 723 -256 692.5 -211 c 128,-1,4
 662 -166 662 -166 641.5 -114.5 c 128,-1,5
 621 -63 621 -63 611 -8.5 c 128,-1,6
 601 46 601 46 601 99 c 2,7,-1
 601 268 l 2,8,9
 601 412 601 412 532.5 477 c 128,-1,10
 464 542 464 542 323 543 c 1,11,-1
 323 688 l 1,12,13
 464 688 464 688 532.5 752.5 c 128,-1,14
 601 817 601 817 601 962 c 2,15,-1
 601 1132 l 2,16,17
 601 1185 601 1185 610 1239.5 c 128,-1,18
 619 1294 619 1294 638 1345.5 c 128,-1,19
 657 1397 657 1397 686.5 1442 c 128,-1,20
 716 1487 716 1487 758 1521 c 128,-1,21
 800 1555 800 1555 854.5 1575 c 128,-1,22
 909 1595 909 1595 978 1597 c 1,23,-1
 999 1482 l 1,24,25
 927 1480 927 1480 884.5 1448 c 128,-1,26
 842 1416 842 1416 820.5 1366.5 c 128,-1,27
 799 1317 799 1317 793 1255 c 128,-1,28
 787 1193 787 1193 787 1132 c 2,29,-1
 787 962 l 2,30,31
 786 842 786 842 731 751.5 c 128,-1,32
 676 661 676 661 560 614 c 1,33,34
 676 568 676 568 731 477.5 c 128,-1,35
 786 387 786 387 787 268 c 2,36,-1
 787 99 l 2,37,38
 787 37 787 37 797 -24.5 c 128,-1,39
 807 -86 807 -86 831.5 -135.5 c 128,-1,40
 856 -185 856 -185 896.5 -217 c 128,-1,41
 937 -249 937 -249 999 -251 c 1,42,-1
 978 -366 l 1,0,1
EndSplineSet
EndChar

StartChar: bar
Encoding: 124 124 98
Width: 1229
GlyphClass: 2
Flags: W
LayerCount: 2
Fore
SplineSet
689 -398 m 1,0,-1
 540 -398 l 1,1,-1
 540 1456 l 1,2,-1
 689 1456 l 1,3,-1
 689 -398 l 1,0,-1
EndSplineSet
EndChar

StartChar: braceright
Encoding: 125 125 99
Width: 1229
GlyphClass: 2
Flags: W
LayerCount: 2
Fore
SplineSet
323 -251 m 1,0,1
 384 -249 384 -249 425 -217 c 128,-1,2
 466 -185 466 -185 490.5 -135.5 c 128,-1,3
 515 -86 515 -86 525.5 -24.5 c 128,-1,4
 536 37 536 37 536 99 c 2,5,-1
 536 268 l 2,6,7
 536 387 536 387 591 477.5 c 128,-1,8
 646 568 646 568 762 614 c 1,9,10
 646 661 646 661 591 751.5 c 128,-1,11
 536 842 536 842 536 962 c 2,12,-1
 536 1132 l 2,13,14
 536 1193 536 1193 529.5 1255 c 128,-1,15
 523 1317 523 1317 501.5 1366.5 c 128,-1,16
 480 1416 480 1416 438 1448 c 128,-1,17
 396 1480 396 1480 324 1482 c 1,18,-1
 344 1597 l 1,19,20
 413 1595 413 1595 467.5 1575 c 128,-1,21
 522 1555 522 1555 564 1521 c 128,-1,22
 606 1487 606 1487 635.5 1442 c 128,-1,23
 665 1397 665 1397 684 1345.5 c 128,-1,24
 703 1294 703 1294 712 1239.5 c 128,-1,25
 721 1185 721 1185 721 1132 c 2,26,-1
 721 962 l 2,27,28
 721 817 721 817 790 752.5 c 128,-1,29
 859 688 859 688 999 688 c 1,30,-1
 999 543 l 1,31,32
 859 542 859 542 790 477 c 128,-1,33
 721 412 721 412 721 268 c 2,34,-1
 721 99 l 2,35,36
 721 19 721 19 699 -62.5 c 128,-1,37
 677 -144 677 -144 630.5 -211 c 128,-1,38
 584 -278 584 -278 513 -321 c 128,-1,39
 442 -364 442 -364 344 -366 c 1,40,-1
 323 -251 l 1,0,1
EndSplineSet
EndChar

StartChar: asciitilde
Encoding: 126 126 100
Width: 1229
GlyphClass: 2
Flags: W
LayerCount: 2
Fore
SplineSet
1180 740 m 1,0,1
 1180 674 1180 674 1158 613 c 128,-1,2
 1136 552 1136 552 1096 505 c 128,-1,3
 1056 458 1056 458 1001 430 c 128,-1,4
 946 402 946 402 879 402 c 0,5,6
 832 402 832 402 791.5 411 c 128,-1,7
 751 420 751 420 712.5 438 c 128,-1,8
 674 456 674 456 636.5 482 c 128,-1,9
 599 508 599 508 559 542 c 0,10,11
 504 587 504 587 454 613.5 c 128,-1,12
 404 640 404 640 348 639 c 0,13,14
 313 639 313 639 282.5 624.5 c 128,-1,15
 252 610 252 610 230 585.5 c 128,-1,16
 208 561 208 561 195 527.5 c 128,-1,17
 182 494 182 494 182 456 c 1,18,-1
 48 473 l 1,19,20
 48 539 48 539 70 599 c 128,-1,21
 92 659 92 659 131.5 704 c 128,-1,22
 171 749 171 749 226 775.5 c 128,-1,23
 281 802 281 802 348 802 c 0,24,25
 394 802 394 802 435.5 792.5 c 128,-1,26
 477 783 477 783 516 765 c 128,-1,27
 555 747 555 747 592.5 721 c 128,-1,28
 630 695 630 695 669 663 c 0,29,30
 726 615 726 615 774.5 589.5 c 128,-1,31
 823 564 823 564 879 565 c 0,32,33
 914 565 914 565 944.5 581 c 128,-1,34
 975 597 975 597 997.5 623.5 c 128,-1,35
 1020 650 1020 650 1033 685 c 128,-1,36
 1046 720 1046 720 1046 758 c 1,37,-1
 1180 740 l 1,0,1
EndSplineSet
EndChar

StartChar: exclamdown
Encoding: 161 161 102
Width: 1229
GlyphClass: 2
Flags: W
LayerCount: 2
Fore
SplineSet
522 611 m 1,0,-1
 707 611 l 1,1,-1
 707 -372 l 1,2,-1
 522 -372 l 1,3,-1
 522 611 l 1,0,-1
728 990 m 0,4,5
 728 944 728 944 698.5 912.5 c 128,-1,6
 669 881 669 881 613 881 c 0,7,8
 556 881 556 881 527 912.5 c 128,-1,9
 498 944 498 944 498 990 c 0,10,11
 498 1038 498 1038 527 1070.5 c 128,-1,12
 556 1103 556 1103 613 1103 c 0,13,14
 669 1103 669 1103 698.5 1070.5 c 128,-1,15
 728 1038 728 1038 728 990 c 0,4,5
EndSplineSet
EndChar

StartChar: cent
Encoding: 162 162 103
Width: 1229
GlyphClass: 2
Flags: W
LayerCount: 2
Fore
SplineSet
639 130 m 0,0,1
 689 130 689 130 736.5 146 c 128,-1,2
 784 162 784 162 821 190.5 c 128,-1,3
 858 219 858 219 880.5 257.5 c 128,-1,4
 903 296 903 296 904 341 c 1,5,-1
 1079 341 l 1,6,7
 1078 277 1078 277 1049 218.5 c 128,-1,8
 1020 160 1020 160 971 112.5 c 128,-1,9
 922 65 922 65 856.5 32 c 128,-1,10
 791 -1 791 -1 718 -13 c 1,11,-1
 718 -245 l 1,12,-1
 533 -245 l 1,13,-1
 533 -10 l 1,14,15
 437 8 437 8 364.5 57.5 c 128,-1,16
 292 107 292 107 244 178 c 128,-1,17
 196 249 196 249 171.5 337 c 128,-1,18
 147 425 147 425 147 520 c 2,19,-1
 147 562 l 2,20,21
 147 657 147 657 171.5 744.5 c 128,-1,22
 196 832 196 832 244 903.5 c 128,-1,23
 292 975 292 975 364.5 1024.5 c 128,-1,24
 437 1074 437 1074 533 1092 c 1,25,-1
 533 1318 l 1,26,-1
 718 1318 l 1,27,-1
 718 1096 l 1,28,29
 798 1084 798 1084 864 1049.5 c 128,-1,30
 930 1015 930 1015 978 964 c 128,-1,31
 1026 913 1026 913 1052.5 848 c 128,-1,32
 1079 783 1079 783 1079 710 c 1,33,-1
 904 710 l 1,34,35
 903 759 903 759 882.5 802.5 c 128,-1,36
 862 846 862 846 827 879 c 128,-1,37
 792 912 792 912 743.5 931 c 128,-1,38
 695 950 695 950 639 950 c 0,39,40
 553 950 553 950 494.5 915.5 c 128,-1,41
 436 881 436 881 400 825.5 c 128,-1,42
 364 770 364 770 348.5 701 c 128,-1,43
 333 632 333 632 333 562 c 2,44,-1
 333 520 l 2,45,46
 333 449 333 449 348.5 379.5 c 128,-1,47
 364 310 364 310 399.5 254.5 c 128,-1,48
 435 199 435 199 493.5 164.5 c 128,-1,49
 552 130 552 130 639 130 c 0,0,1
EndSplineSet
EndChar

StartChar: sterling
Encoding: 163 163 104
Width: 1229
GlyphClass: 2
Flags: W
LayerCount: 2
Fore
SplineSet
463 626 m 1,0,-1
 471 400 l 2,1,2
 471 331 471 331 456.5 265 c 128,-1,3
 442 199 442 199 410 151 c 1,4,-1
 1148 151 l 1,5,-1
 1147 0 l 1,6,-1
 117 0 l 1,7,-1
 117 151 l 1,8,-1
 192 151 l 1,9,10
 219 158 219 158 237.5 186 c 128,-1,11
 256 214 256 214 267 250.5 c 128,-1,12
 278 287 278 287 282 327.5 c 128,-1,13
 286 368 286 368 286 400 c 2,14,-1
 278 626 l 1,15,-1
 113 626 l 1,16,-1
 113 778 l 1,17,-1
 273 778 l 1,18,-1
 264 1039 l 2,19,20
 264 1141 264 1141 297.5 1222 c 128,-1,21
 331 1303 331 1303 390 1359.5 c 128,-1,22
 449 1416 449 1416 531 1446 c 128,-1,23
 613 1476 613 1476 709 1476 c 256,24,25
 805 1476 805 1476 881 1448 c 128,-1,26
 957 1420 957 1420 1009.5 1369 c 128,-1,27
 1062 1318 1062 1318 1090 1247 c 128,-1,28
 1118 1176 1118 1176 1118 1089 c 1,29,-1
 932 1089 l 1,30,31
 932 1152 932 1152 912.5 1196.5 c 128,-1,32
 893 1241 893 1241 859.5 1269.5 c 128,-1,33
 826 1298 826 1298 782.5 1311.5 c 128,-1,34
 739 1325 739 1325 691 1325 c 0,35,36
 640 1325 640 1325 595.5 1305.5 c 128,-1,37
 551 1286 551 1286 519 1249.5 c 128,-1,38
 487 1213 487 1213 468.5 1159.5 c 128,-1,39
 450 1106 450 1106 450 1039 c 2,40,-1
 458 778 l 1,41,-1
 778 778 l 1,42,-1
 778 626 l 1,43,-1
 463 626 l 1,0,-1
EndSplineSet
EndChar

StartChar: currency
Encoding: 164 164 105
Width: 1229
GlyphClass: 2
Flags: W
LayerCount: 2
Fore
SplineSet
931 84 m 1,0,1
 869 34 869 34 794 7 c 128,-1,2
 719 -20 719 -20 634 -20 c 256,3,4
 549 -20 549 -20 474.5 7 c 128,-1,5
 400 34 400 34 338 82 c 1,6,-1
 234 -26 l 1,7,-1
 103 109 l 1,8,-1
 215 224 l 1,9,10
 177 287 177 287 157 360.5 c 128,-1,11
 137 434 137 434 137 515 c 0,12,13
 137 601 137 601 159 678 c 128,-1,14
 181 755 181 755 223 820 c 1,15,-1
 103 944 l 1,16,-1
 234 1079 l 1,17,-1
 351 957 l 1,18,19
 411 1001 411 1001 482.5 1025 c 128,-1,20
 554 1049 554 1049 634 1049 c 256,21,22
 714 1049 714 1049 786 1024.5 c 128,-1,23
 858 1000 858 1000 918 955 c 1,24,-1
 1038 1080 l 1,25,-1
 1170 944 l 1,26,-1
 1046 816 l 1,27,28
 1086 752 1086 752 1108 676 c 128,-1,29
 1130 600 1130 600 1130 515 c 0,30,31
 1130 435 1130 435 1110 362.5 c 128,-1,32
 1090 290 1090 290 1054 228 c 1,33,-1
 1170 109 l 1,34,-1
 1038 -27 l 1,35,-1
 931 84 l 1,0,1
309 515 m 256,36,37
 309 441 309 441 334 375 c 128,-1,38
 359 309 359 309 402.5 259.5 c 128,-1,39
 446 210 446 210 505.5 180.5 c 128,-1,40
 565 151 565 151 634 151 c 256,41,42
 703 151 703 151 762 180.5 c 128,-1,43
 821 210 821 210 864.5 259.5 c 128,-1,44
 908 309 908 309 932.5 375 c 128,-1,45
 957 441 957 441 957 515 c 256,46,47
 957 589 957 589 932.5 655 c 128,-1,48
 908 721 908 721 864.5 770.5 c 128,-1,49
 821 820 821 820 762 849 c 128,-1,50
 703 878 703 878 634 878 c 256,51,52
 565 878 565 878 505.5 849 c 128,-1,53
 446 820 446 820 402.5 770.5 c 128,-1,54
 359 721 359 721 334 655 c 128,-1,55
 309 589 309 589 309 515 c 256,36,37
EndSplineSet
EndChar

StartChar: yen
Encoding: 165 165 106
Width: 1229
GlyphClass: 2
Flags: W
LayerCount: 2
Fore
SplineSet
614 779 m 1,0,-1
 983 1456 l 1,1,-1
 1195 1456 l 1,2,-1
 774 736 l 1,3,-1
 1092 736 l 1,4,-1
 1092 615 l 1,5,-1
 704 615 l 1,6,-1
 703 613 l 1,7,-1
 703 446 l 1,8,-1
 1092 446 l 1,9,-1
 1092 326 l 1,10,-1
 703 326 l 1,11,-1
 703 0 l 1,12,-1
 518 0 l 1,13,-1
 518 326 l 1,14,-1
 138 326 l 1,15,-1
 138 446 l 1,16,-1
 518 446 l 1,17,-1
 518 615 l 1,18,-1
 138 615 l 1,19,-1
 138 736 l 1,20,-1
 454 736 l 1,21,-1
 33 1456 l 1,22,-1
 245 1456 l 1,23,-1
 614 779 l 1,0,-1
EndSplineSet
EndChar

StartChar: brokenbar
Encoding: 166 166 107
Width: 1229
GlyphClass: 2
Flags: W
LayerCount: 2
Fore
SplineSet
511 -270 m 1,0,-1
 511 521 l 1,1,-1
 696 521 l 1,2,-1
 696 -270 l 1,3,-1
 511 -270 l 1,0,-1
696 698 m 1,4,-1
 511 698 l 1,5,-1
 511 1456 l 1,6,-1
 696 1456 l 1,7,-1
 696 698 l 1,4,-1
EndSplineSet
EndChar

StartChar: section
Encoding: 167 167 108
Width: 1229
GlyphClass: 2
Flags: W
LayerCount: 2
Fore
SplineSet
1140 431 m 0,0,1
 1140 334 1140 334 1091 265 c 128,-1,2
 1042 196 1042 196 954 156 c 1,3,4
 1023 108 1023 108 1059.5 40 c 128,-1,5
 1096 -28 1096 -28 1096 -128 c 0,6,7
 1096 -216 1096 -216 1060.5 -284 c 128,-1,8
 1025 -352 1025 -352 960.5 -399 c 128,-1,9
 896 -446 896 -446 806.5 -470.5 c 128,-1,10
 717 -495 717 -495 608 -495 c 0,11,12
 510 -495 510 -495 416.5 -472.5 c 128,-1,13
 323 -450 323 -450 250 -399.5 c 128,-1,14
 177 -349 177 -349 132 -266.5 c 128,-1,15
 87 -184 87 -184 87 -64 c 1,16,-1
 272 -62 l 1,17,18
 272 -140 272 -140 302 -193.5 c 128,-1,19
 332 -247 332 -247 380 -280.5 c 128,-1,20
 428 -314 428 -314 488 -328.5 c 128,-1,21
 548 -343 548 -343 608 -343 c 0,22,23
 678 -343 678 -343 734 -327 c 128,-1,24
 790 -311 790 -311 829.5 -283 c 128,-1,25
 869 -255 869 -255 890 -216 c 128,-1,26
 911 -177 911 -177 911 -130 c 0,27,28
 911 -82 911 -82 892 -47 c 128,-1,29
 873 -12 873 -12 831 16.5 c 128,-1,30
 789 45 789 45 722.5 71 c 128,-1,31
 656 97 656 97 560 126 c 0,32,33
 454 155 454 155 367.5 189.5 c 128,-1,34
 281 224 281 224 220 273 c 128,-1,35
 159 322 159 322 126 389 c 128,-1,36
 93 456 93 456 93 551 c 0,37,38
 93 645 93 645 141 714.5 c 128,-1,39
 189 784 189 784 275 825 c 1,40,41
 209 874 209 874 173.5 942 c 128,-1,42
 138 1010 138 1010 138 1110 c 0,43,44
 138 1194 138 1194 173.5 1261.5 c 128,-1,45
 209 1329 209 1329 273 1377 c 128,-1,46
 337 1425 337 1425 427 1450.5 c 128,-1,47
 517 1476 517 1476 626 1476 c 0,48,49
 740 1476 740 1476 831 1447.5 c 128,-1,50
 922 1419 922 1419 985.5 1364.5 c 128,-1,51
 1049 1310 1049 1310 1083.5 1229.5 c 128,-1,52
 1118 1149 1118 1149 1118 1045 c 1,53,-1
 933 1045 l 1,54,55
 933 1103 933 1103 912.5 1154.5 c 128,-1,56
 892 1206 892 1206 853 1243.5 c 128,-1,57
 814 1281 814 1281 756.5 1303 c 128,-1,58
 699 1325 699 1325 626 1325 c 0,59,60
 551 1325 551 1325 494.5 1308.5 c 128,-1,61
 438 1292 438 1292 399.5 1263.5 c 128,-1,62
 361 1235 361 1235 342 1196 c 128,-1,63
 323 1157 323 1157 323 1112 c 0,64,65
 323 1060 323 1060 340 1024 c 128,-1,66
 357 988 357 988 397.5 959.5 c 128,-1,67
 438 931 438 931 505 906.5 c 128,-1,68
 572 882 572 882 672 854 c 0,69,70
 780 824 780 824 866.5 789 c 128,-1,71
 953 754 953 754 1014 706 c 128,-1,72
 1075 658 1075 658 1107.5 591.5 c 128,-1,73
 1140 525 1140 525 1140 431 c 0,0,1
598 691 m 0,74,75
 553 703 553 703 512.5 715.5 c 128,-1,76
 472 728 472 728 435 742 c 1,77,78
 357 724 357 724 317.5 674 c 128,-1,79
 278 624 278 624 278 553 c 0,80,81
 278 500 278 500 296 463 c 128,-1,82
 314 426 314 426 355 396.5 c 128,-1,83
 396 367 396 367 464 342 c 128,-1,84
 532 317 532 317 632 289 c 0,85,86
 676 276 676 276 716 264 c 128,-1,87
 756 252 756 252 793 238 c 1,88,89
 869 258 869 258 912 307.5 c 128,-1,90
 955 357 955 357 956 428 c 0,91,92
 956 476 956 476 936 512.5 c 128,-1,93
 916 549 916 549 873 579 c 128,-1,94
 830 609 830 609 762 635.5 c 128,-1,95
 694 662 694 662 598 691 c 0,74,75
EndSplineSet
EndChar

StartChar: dieresis
Encoding: 168 168 109
Width: 1229
GlyphClass: 2
Flags: W
LayerCount: 2
Fore
SplineSet
287 1371 m 256,0,1
 287 1416 287 1416 314.5 1446.5 c 128,-1,2
 342 1477 342 1477 396 1477 c 256,3,4
 450 1477 450 1477 478 1446.5 c 128,-1,5
 506 1416 506 1416 506 1371 c 256,6,7
 506 1326 506 1326 478 1296 c 128,-1,8
 450 1266 450 1266 396 1266 c 256,9,10
 342 1266 342 1266 314.5 1296 c 128,-1,11
 287 1326 287 1326 287 1371 c 256,0,1
717 1369 m 0,12,13
 717 1414 717 1414 744.5 1445 c 128,-1,14
 772 1476 772 1476 826 1476 c 256,15,16
 880 1476 880 1476 908 1445 c 128,-1,17
 936 1414 936 1414 936 1369 c 0,18,19
 936 1325 936 1325 908 1294.5 c 128,-1,20
 880 1264 880 1264 826 1264 c 256,21,22
 772 1264 772 1264 744.5 1294.5 c 128,-1,23
 717 1325 717 1325 717 1369 c 0,12,13
EndSplineSet
EndChar

StartChar: copyright
Encoding: 169 169 110
Width: 1229
GlyphClass: 2
Flags: W
LayerCount: 2
Fore
SplineSet
862 443 m 1,0,1
 862 327 862 327 796.5 267.5 c 128,-1,2
 731 208 731 208 613 208 c 0,3,4
 551 208 551 208 503 230 c 128,-1,5
 455 252 455 252 422 290.5 c 128,-1,6
 389 329 389 329 371 382 c 128,-1,7
 353 435 353 435 353 498 c 2,8,-1
 353 585 l 2,9,10
 353 647 353 647 371 700.5 c 128,-1,11
 389 754 389 754 422 793 c 128,-1,12
 455 832 455 832 503 854 c 128,-1,13
 551 876 551 876 613 876 c 0,14,15
 731 876 731 876 797 816 c 128,-1,16
 863 756 863 756 863 641 c 1,17,-1
 753 641 l 1,18,19
 752 712 752 712 718.5 745 c 128,-1,20
 685 778 685 778 613 778 c 0,21,22
 575 778 575 778 546.5 763 c 128,-1,23
 518 748 518 748 499 722.5 c 128,-1,24
 480 697 480 697 471 661.5 c 128,-1,25
 462 626 462 626 462 586 c 2,26,-1
 462 498 l 2,27,28
 462 457 462 457 471 422 c 128,-1,29
 480 387 480 387 499 361 c 128,-1,30
 518 335 518 335 546.5 320 c 128,-1,31
 575 305 575 305 613 305 c 0,32,33
 685 305 685 305 718 338 c 128,-1,34
 751 371 751 371 752 443 c 1,35,-1
 862 443 l 1,0,1
177 542 m 0,36,37
 177 444 177 444 211 357.5 c 128,-1,38
 245 271 245 271 305 206.5 c 128,-1,39
 365 142 365 142 446.5 105 c 128,-1,40
 528 68 528 68 623 68 c 0,41,42
 717 68 717 68 798.5 105.5 c 128,-1,43
 880 143 880 143 940 207.5 c 128,-1,44
 1000 272 1000 272 1034 358 c 128,-1,45
 1068 444 1068 444 1068 542 c 0,46,47
 1068 639 1068 639 1034 724.5 c 128,-1,48
 1000 810 1000 810 940 874 c 128,-1,49
 880 938 880 938 798.5 974.5 c 128,-1,50
 717 1011 717 1011 623 1011 c 0,51,52
 528 1011 528 1011 446.5 974.5 c 128,-1,53
 365 938 365 938 305 874 c 128,-1,54
 245 810 245 810 211 724.5 c 128,-1,55
 177 639 177 639 177 542 c 0,36,37
90 542 m 0,56,57
 90 620 90 620 108.5 691.5 c 128,-1,58
 127 763 127 763 161 825.5 c 128,-1,59
 195 888 195 888 243.5 939 c 128,-1,60
 292 990 292 990 351 1026 c 128,-1,61
 410 1062 410 1062 479 1082 c 128,-1,62
 548 1102 548 1102 623 1102 c 0,63,64
 736 1102 736 1102 833 1058 c 128,-1,65
 930 1014 930 1014 1001.5 938.5 c 128,-1,66
 1073 863 1073 863 1114 761 c 128,-1,67
 1155 659 1155 659 1155 542 c 256,68,69
 1155 425 1155 425 1114 322.5 c 128,-1,70
 1073 220 1073 220 1001.5 143.5 c 128,-1,71
 930 67 930 67 833 23 c 128,-1,72
 736 -21 736 -21 623 -21 c 256,73,74
 510 -21 510 -21 412.5 23 c 128,-1,75
 315 67 315 67 243.5 143.5 c 128,-1,76
 172 220 172 220 131 322.5 c 128,-1,77
 90 425 90 425 90 542 c 0,56,57
EndSplineSet
EndChar

StartChar: ordfeminine
Encoding: 170 170 111
Width: 1229
GlyphClass: 2
Flags: W
LayerCount: 2
Fore
SplineSet
780 705 m 1,0,1
 765 749 765 749 759 802 c 1,2,3
 729 759 729 759 673 725.5 c 128,-1,4
 617 692 617 692 533 691 c 0,5,6
 415 691 415 691 349.5 752 c 128,-1,7
 284 813 284 813 284 918 c 0,8,9
 284 1030 284 1030 370.5 1089.5 c 128,-1,10
 457 1149 457 1149 615 1149 c 2,11,-1
 756 1149 l 1,12,-1
 756 1201 l 2,13,14
 755 1266 755 1266 724 1301 c 128,-1,15
 693 1336 693 1336 630 1336 c 0,16,17
 563 1336 563 1336 522.5 1309.5 c 128,-1,18
 482 1283 482 1283 481 1231 c 1,19,-1
 320 1243 l 1,20,21
 321 1294 321 1294 343.5 1337 c 128,-1,22
 366 1380 366 1380 406.5 1411 c 128,-1,23
 447 1442 447 1442 504 1459 c 128,-1,24
 561 1476 561 1476 630 1476 c 0,25,26
 695 1476 695 1476 748.5 1458.5 c 128,-1,27
 802 1441 802 1441 839.5 1406.5 c 128,-1,28
 877 1372 877 1372 898 1320 c 128,-1,29
 919 1268 919 1268 919 1200 c 2,30,-1
 919 886 l 2,31,32
 919 838 919 838 925 794 c 128,-1,33
 931 750 931 750 945 705 c 1,34,-1
 780 705 l 1,0,1
572 828 m 0,35,36
 599 828 599 828 628.5 836.5 c 128,-1,37
 658 845 658 845 683.5 859.5 c 128,-1,38
 709 874 709 874 728.5 892 c 128,-1,39
 748 910 748 910 756 928 c 1,40,-1
 756 1037 l 1,41,-1
 616 1037 l 2,42,43
 537 1037 537 1037 491.5 1004 c 128,-1,44
 446 971 446 971 446 922 c 0,45,46
 446 877 446 877 478 852.5 c 128,-1,47
 510 828 510 828 572 828 c 0,35,36
EndSplineSet
EndChar

StartChar: logicalnot
Encoding: 172 172 113
Width: 1229
GlyphClass: 2
Flags: W
LayerCount: 2
Fore
SplineSet
1019 375 m 1,0,-1
 834 375 l 1,1,-1
 834 639 l 1,2,-1
 189 639 l 1,3,-1
 189 800 l 1,4,-1
 1019 800 l 1,5,-1
 1019 375 l 1,0,-1
EndSplineSet
EndChar

StartChar: registered
Encoding: 174 174 115
Width: 1229
GlyphClass: 2
Flags: W
LayerCount: 2
Fore
SplineSet
87 540 m 256,0,1
 87 657 87 657 128 759.5 c 128,-1,2
 169 862 169 862 240.5 938 c 128,-1,3
 312 1014 312 1014 409.5 1057.5 c 128,-1,4
 507 1101 507 1101 620 1101 c 256,5,6
 733 1101 733 1101 830 1057.5 c 128,-1,7
 927 1014 927 1014 998.5 938 c 128,-1,8
 1070 862 1070 862 1111 759.5 c 128,-1,9
 1152 657 1152 657 1152 540 c 256,10,11
 1152 423 1152 423 1111 320.5 c 128,-1,12
 1070 218 1070 218 998.5 142.5 c 128,-1,13
 927 67 927 67 830 23 c 128,-1,14
 733 -21 733 -21 620 -21 c 256,15,16
 507 -21 507 -21 409.5 23 c 128,-1,17
 312 67 312 67 240.5 142.5 c 128,-1,18
 169 218 169 218 128 320.5 c 128,-1,19
 87 423 87 423 87 540 c 256,0,1
174 540 m 256,20,21
 174 442 174 442 208 356.5 c 128,-1,22
 242 271 242 271 302 207 c 128,-1,23
 362 143 362 143 443.5 106 c 128,-1,24
 525 69 525 69 620 69 c 0,25,26
 714 69 714 69 795.5 106 c 128,-1,27
 877 143 877 143 937 207 c 128,-1,28
 997 271 997 271 1031 356.5 c 128,-1,29
 1065 442 1065 442 1065 540 c 256,30,31
 1065 638 1065 638 1031 724 c 128,-1,32
 997 810 997 810 937 873.5 c 128,-1,33
 877 937 877 937 795.5 973.5 c 128,-1,34
 714 1010 714 1010 620 1010 c 0,35,36
 525 1010 525 1010 443.5 973.5 c 128,-1,37
 362 937 362 937 302 873.5 c 128,-1,38
 242 810 242 810 208 724 c 128,-1,39
 174 638 174 638 174 540 c 256,20,21
508 485 m 1,40,-1
 508 232 l 1,41,-1
 401 232 l 1,42,-1
 401 867 l 1,43,-1
 612 867 l 2,44,45
 667 867 667 867 711 855 c 128,-1,46
 755 843 755 843 786.5 819 c 128,-1,47
 818 795 818 795 835 759 c 128,-1,48
 852 723 852 723 852 675 c 0,49,50
 852 619 852 619 817 580 c 128,-1,51
 782 541 782 541 716 519 c 1,52,-1
 863 232 l 1,53,-1
 753 232 l 1,54,-1
 633 485 l 1,55,-1
 508 485 l 1,40,-1
508 582 m 1,56,-1
 627 582 l 2,57,58
 675 583 675 583 710 606 c 128,-1,59
 745 629 745 629 745 671 c 0,60,61
 745 726 745 726 715 748 c 128,-1,62
 685 770 685 770 612 770 c 2,63,-1
 508 770 l 1,64,-1
 508 582 l 1,56,-1
EndSplineSet
EndChar

StartChar: macron
Encoding: 175 175 116
AltUni2: 0002c9.ffffffff.0 0002c9.ffffffff.0
Width: 1229
GlyphClass: 2
Flags: W
LayerCount: 2
Fore
SplineSet
971 1313 m 1,0,-1
 257 1313 l 1,1,-1
 257 1456 l 1,2,-1
 971 1456 l 1,3,-1
 971 1313 l 1,0,-1
EndSplineSet
EndChar

StartChar: degree
Encoding: 176 176 117
Width: 1229
GlyphClass: 2
Flags: W
LayerCount: 2
Fore
SplineSet
361 1216 m 0,0,1
 361 1269 361 1269 381.5 1316.5 c 128,-1,2
 402 1364 402 1364 436.5 1399.5 c 128,-1,3
 471 1435 471 1435 517.5 1455.5 c 128,-1,4
 564 1476 564 1476 616 1476 c 0,5,6
 667 1476 667 1476 712.5 1455.5 c 128,-1,7
 758 1435 758 1435 792 1399.5 c 128,-1,8
 826 1364 826 1364 846 1316.5 c 128,-1,9
 866 1269 866 1269 866 1216 c 256,10,11
 866 1163 866 1163 846 1116 c 128,-1,12
 826 1069 826 1069 792 1034.5 c 128,-1,13
 758 1000 758 1000 712.5 980 c 128,-1,14
 667 960 667 960 616 960 c 0,15,16
 564 960 564 960 517.5 980 c 128,-1,17
 471 1000 471 1000 436.5 1034.5 c 128,-1,18
 402 1069 402 1069 381.5 1115.5 c 128,-1,19
 361 1162 361 1162 361 1216 c 0,0,1
485 1216 m 0,20,21
 485 1189 485 1189 495.5 1165.5 c 128,-1,22
 506 1142 506 1142 523.5 1124.5 c 128,-1,23
 541 1107 541 1107 565 1097.5 c 128,-1,24
 589 1088 589 1088 616 1088 c 256,25,26
 643 1088 643 1088 666 1097.5 c 128,-1,27
 689 1107 689 1107 706.5 1124.5 c 128,-1,28
 724 1142 724 1142 733.5 1165.5 c 128,-1,29
 743 1189 743 1189 743 1216 c 0,30,31
 743 1244 743 1244 733.5 1268.5 c 128,-1,32
 724 1293 724 1293 706.5 1311 c 128,-1,33
 689 1329 689 1329 666 1339 c 128,-1,34
 643 1349 643 1349 616 1349 c 256,35,36
 589 1349 589 1349 565 1339 c 128,-1,37
 541 1329 541 1329 523.5 1311 c 128,-1,38
 506 1293 506 1293 495.5 1268.5 c 128,-1,39
 485 1244 485 1244 485 1216 c 0,20,21
EndSplineSet
EndChar

StartChar: plusminus
Encoding: 177 177 118
Width: 1229
GlyphClass: 2
Flags: W
LayerCount: 2
Fore
SplineSet
709 855 m 1,0,-1
 1072 855 l 1,1,-1
 1072 703 l 1,2,-1
 709 703 l 1,3,-1
 709 289 l 1,4,-1
 541 289 l 1,5,-1
 541 703 l 1,6,-1
 156 703 l 1,7,-1
 156 855 l 1,8,-1
 541 855 l 1,9,-1
 541 1267 l 1,10,-1
 709 1267 l 1,11,-1
 709 855 l 1,0,-1
1030 1 m 1,12,-1
 195 1 l 1,13,-1
 195 152 l 1,14,-1
 1030 152 l 1,15,-1
 1030 1 l 1,12,-1
EndSplineSet
EndChar

StartChar: twosuperior
Encoding: 178 178 119
Width: 1229
GlyphClass: 2
Flags: W
LayerCount: 2
Fore
SplineSet
934 667 m 1,0,-1
 335 667 l 1,1,-1
 335 775 l 1,2,-1
 623 1046 l 2,3,4
 688 1106 688 1106 716 1149.5 c 128,-1,5
 744 1193 744 1193 744 1228 c 0,6,7
 744 1277 744 1277 711 1307.5 c 128,-1,8
 678 1338 678 1338 620 1338 c 0,9,10
 546 1338 546 1338 510.5 1300.5 c 128,-1,11
 475 1263 475 1263 474 1205 c 1,12,-1
 316 1205 l 1,13,14
 316 1259 316 1259 337 1307 c 128,-1,15
 358 1355 358 1355 397 1390.5 c 128,-1,16
 436 1426 436 1426 491.5 1446.5 c 128,-1,17
 547 1467 547 1467 616 1467 c 0,18,19
 682 1467 682 1467 735 1450.5 c 128,-1,20
 788 1434 788 1434 825 1403 c 128,-1,21
 862 1372 862 1372 882 1328.5 c 128,-1,22
 902 1285 902 1285 902 1230 c 0,23,24
 902 1190 902 1190 888.5 1154.5 c 128,-1,25
 875 1119 875 1119 849.5 1084.5 c 128,-1,26
 824 1050 824 1050 788.5 1014.5 c 128,-1,27
 753 979 753 979 710 940 c 2,28,-1
 535 795 l 1,29,-1
 934 795 l 1,30,-1
 934 667 l 1,0,-1
EndSplineSet
EndChar

StartChar: threesuperior
Encoding: 179 179 120
Width: 1229
GlyphClass: 2
Flags: W
LayerCount: 2
Fore
SplineSet
526 1125 m 1,0,-1
 610 1125 l 2,1,2
 680 1125 680 1125 718 1154 c 128,-1,3
 756 1183 756 1183 756 1234 c 0,4,5
 756 1279 756 1279 723 1308 c 128,-1,6
 690 1337 690 1337 623 1337 c 0,7,8
 566 1337 566 1337 529 1313 c 128,-1,9
 492 1289 492 1289 491 1245 c 1,10,-1
 334 1245 l 1,11,12
 334 1296 334 1296 356.5 1337 c 128,-1,13
 379 1378 379 1378 417.5 1406.5 c 128,-1,14
 456 1435 456 1435 508 1450.5 c 128,-1,15
 560 1466 560 1466 620 1466 c 0,16,17
 684 1466 684 1466 738 1451.5 c 128,-1,18
 792 1437 792 1437 831 1408.5 c 128,-1,19
 870 1380 870 1380 891.5 1338 c 128,-1,20
 913 1296 913 1296 913 1241 c 0,21,22
 913 1185 913 1185 877.5 1140 c 128,-1,23
 842 1095 842 1095 777 1070 c 1,24,25
 927 1028 927 1028 927 886 c 0,26,27
 927 830 927 830 903.5 787 c 128,-1,28
 880 744 880 744 838.5 715 c 128,-1,29
 797 686 797 686 741 670.5 c 128,-1,30
 685 655 685 655 621 655 c 0,31,32
 564 655 564 655 510.5 668.5 c 128,-1,33
 457 682 457 682 415.5 710.5 c 128,-1,34
 374 739 374 739 348.5 783 c 128,-1,35
 323 827 323 827 323 888 c 1,36,-1
 481 888 l 1,37,38
 482 842 482 842 521.5 812.5 c 128,-1,39
 561 783 561 783 626 783 c 0,40,41
 694 783 694 783 732 813 c 128,-1,42
 770 843 770 843 769 894 c 0,43,44
 769 957 769 957 725.5 983 c 128,-1,45
 682 1009 682 1009 610 1009 c 2,46,-1
 526 1009 l 1,47,-1
 526 1125 l 1,0,-1
EndSplineSet
EndChar

StartChar: acute
Encoding: 180 180 121
Width: 1229
GlyphClass: 2
Flags: W
LayerCount: 2
Fore
SplineSet
594 1481 m 1,0,-1
 818 1481 l 1,1,-1
 550 1215 l 1,2,-1
 410 1215 l 1,3,-1
 594 1481 l 1,0,-1
EndSplineSet
EndChar

StartChar: mu
Encoding: 181 181 122
Width: 1229
GlyphClass: 2
Flags: W
LayerCount: 2
Fore
SplineSet
373 1082 m 1,0,-1
 373 460 l 2,1,2
 373 360 373 360 389 296 c 128,-1,3
 405 232 405 232 434.5 195 c 128,-1,4
 464 158 464 158 504.5 144 c 128,-1,5
 545 130 545 130 593 130 c 0,6,7
 700 130 700 130 762.5 171 c 128,-1,8
 825 212 825 212 854 283 c 1,9,-1
 854 1082 l 1,10,-1
 1040 1082 l 1,11,-1
 1040 0 l 1,12,-1
 873 0 l 1,13,-1
 864 116 l 1,14,15
 820 51 820 51 755.5 15.5 c 128,-1,16
 691 -20 691 -20 601 -20 c 0,17,18
 455 -20 455 -20 373 53 c 1,19,-1
 373 -416 l 1,20,-1
 188 -416 l 1,21,-1
 188 1082 l 1,22,-1
 373 1082 l 1,0,-1
EndSplineSet
EndChar

StartChar: paragraph
Encoding: 182 182 123
Width: 1229
GlyphClass: 2
Flags: W
LayerCount: 2
Fore
SplineSet
790 0 m 1,0,-1
 790 520 l 1,1,-1
 703 520 l 2,2,3
 585 520 585 520 493.5 555 c 128,-1,4
 402 590 402 590 339 652 c 128,-1,5
 276 714 276 714 243.5 800 c 128,-1,6
 211 886 211 886 211 988 c 0,7,8
 211 1089 211 1089 243.5 1174.5 c 128,-1,9
 276 1260 276 1260 339 1322.5 c 128,-1,10
 402 1385 402 1385 493.5 1420.5 c 128,-1,11
 585 1456 585 1456 703 1456 c 2,12,-1
 976 1456 l 1,13,-1
 976 0 l 1,14,-1
 790 0 l 1,0,-1
EndSplineSet
EndChar

StartChar: periodcentered
Encoding: 183 183 124
Width: 1229
GlyphClass: 2
Flags: W
LayerCount: 2
Fore
SplineSet
504 729 m 0,0,1
 504 777 504 777 533 809 c 128,-1,2
 562 841 562 841 619 841 c 0,3,4
 675 841 675 841 704.5 809 c 128,-1,5
 734 777 734 777 734 729 c 0,6,7
 734 682 734 682 704.5 650.5 c 128,-1,8
 675 619 675 619 619 619 c 0,9,10
 562 619 562 619 533 650.5 c 128,-1,11
 504 682 504 682 504 729 c 0,0,1
EndSplineSet
EndChar

StartChar: cedilla
Encoding: 184 184 125
Width: 1229
GlyphClass: 2
Flags: W
LayerCount: 2
Fore
SplineSet
630 0 m 1,0,-1
 618 -52 l 1,1,2
 647 -57 647 -57 674.5 -69 c 128,-1,3
 702 -81 702 -81 723.5 -101 c 128,-1,4
 745 -121 745 -121 758 -151.5 c 128,-1,5
 771 -182 771 -182 771 -225 c 0,6,7
 771 -322 771 -322 692 -378 c 128,-1,8
 613 -434 613 -434 468 -435 c 1,9,-1
 461 -328 l 1,10,11
 495 -328 495 -328 525 -322.5 c 128,-1,12
 555 -317 555 -317 577.5 -305 c 128,-1,13
 600 -293 600 -293 613.5 -274.5 c 128,-1,14
 627 -256 627 -256 627 -229 c 0,15,16
 627 -204 627 -204 617 -187 c 128,-1,17
 607 -170 607 -170 586.5 -159.5 c 128,-1,18
 566 -149 566 -149 536 -143 c 128,-1,19
 506 -137 506 -137 466 -134 c 1,20,-1
 497 0 l 1,21,-1
 630 0 l 1,0,-1
EndSplineSet
EndChar

StartChar: onesuperior
Encoding: 185 185 126
Width: 1229
GlyphClass: 2
Flags: W
LayerCount: 2
Fore
SplineSet
758 665 m 1,0,-1
 601 665 l 1,1,-1
 601 1266 l 1,2,-1
 386 1209 l 1,3,-1
 386 1337 l 1,4,-1
 740 1454 l 1,5,-1
 758 1454 l 1,6,-1
 758 665 l 1,0,-1
EndSplineSet
EndChar

StartChar: ordmasculine
Encoding: 186 186 127
Width: 1229
GlyphClass: 2
Flags: W
LayerCount: 2
Fore
SplineSet
272 1141 m 2,0,1
 272 1214 272 1214 296 1275.5 c 128,-1,2
 320 1337 320 1337 364.5 1381.5 c 128,-1,3
 409 1426 409 1426 472 1451 c 128,-1,4
 535 1476 535 1476 614 1476 c 256,5,6
 693 1476 693 1476 756.5 1451 c 128,-1,7
 820 1426 820 1426 864.5 1381.5 c 128,-1,8
 909 1337 909 1337 932.5 1275.5 c 128,-1,9
 956 1214 956 1214 956 1141 c 2,10,-1
 956 1024 l 2,11,12
 956 952 956 952 932.5 890.5 c 128,-1,13
 909 829 909 829 865 784.5 c 128,-1,14
 821 740 821 740 758 715 c 128,-1,15
 695 690 695 690 616 690 c 0,16,17
 536 690 536 690 472.5 715 c 128,-1,18
 409 740 409 740 364.5 784.5 c 128,-1,19
 320 829 320 829 296 890.5 c 128,-1,20
 272 952 272 952 272 1024 c 2,21,-1
 272 1141 l 2,0,1
435 1024 m 2,22,23
 435 982 435 982 446 946.5 c 128,-1,24
 457 911 457 911 479.5 885 c 128,-1,25
 502 859 502 859 536 844 c 128,-1,26
 570 829 570 829 616 829 c 0,27,28
 660 829 660 829 693.5 844 c 128,-1,29
 727 859 727 859 749 885 c 128,-1,30
 771 911 771 911 782.5 946.5 c 128,-1,31
 794 982 794 982 794 1024 c 2,32,-1
 794 1141 l 2,33,34
 794 1182 794 1182 782.5 1217.5 c 128,-1,35
 771 1253 771 1253 748.5 1279.5 c 128,-1,36
 726 1306 726 1306 692.5 1321 c 128,-1,37
 659 1336 659 1336 614 1336 c 256,38,39
 569 1336 569 1336 535.5 1321 c 128,-1,40
 502 1306 502 1306 479.5 1279.5 c 128,-1,41
 457 1253 457 1253 446 1217.5 c 128,-1,42
 435 1182 435 1182 435 1141 c 2,43,-1
 435 1024 l 2,22,23
EndSplineSet
EndChar

StartChar: questiondown
Encoding: 191 191 132
Width: 1229
GlyphClass: 2
Flags: W
LayerCount: 2
Fore
SplineSet
724 673 m 1,0,1
 723 602 723 602 718.5 556 c 128,-1,2
 714 510 714 510 699 474 c 128,-1,3
 684 438 684 438 654.5 404.5 c 128,-1,4
 625 371 625 371 576 326 c 1,5,6
 545 291 545 291 512 253.5 c 128,-1,7
 479 216 479 216 451.5 175 c 128,-1,8
 424 134 424 134 406.5 89 c 128,-1,9
 389 44 389 44 389 -7 c 0,10,11
 389 -116 389 -116 447 -173.5 c 128,-1,12
 505 -231 505 -231 614 -231 c 0,13,14
 657 -231 657 -231 697.5 -219.5 c 128,-1,15
 738 -208 738 -208 769.5 -183.5 c 128,-1,16
 801 -159 801 -159 820 -121.5 c 128,-1,17
 839 -84 839 -84 839 -32 c 1,18,-1
 1024 -32 l 1,19,20
 1023 -116 1023 -116 991.5 -183 c 128,-1,21
 960 -250 960 -250 905 -296.5 c 128,-1,22
 850 -343 850 -343 775.5 -367.5 c 128,-1,23
 701 -392 701 -392 614 -392 c 0,24,25
 517 -392 517 -392 440.5 -366.5 c 128,-1,26
 364 -341 364 -341 311.5 -292 c 128,-1,27
 259 -243 259 -243 231.5 -173 c 128,-1,28
 204 -103 204 -103 204 -13 c 0,29,30
 204 59 204 59 227.5 123 c 128,-1,31
 251 187 251 187 287.5 243.5 c 128,-1,32
 324 300 324 300 369.5 349.5 c 128,-1,33
 415 399 415 399 460 442 c 0,34,35
 489 471 489 471 505 496 c 128,-1,36
 521 521 521 521 528.5 547.5 c 128,-1,37
 536 574 536 574 537.5 604 c 128,-1,38
 539 634 539 634 539 673 c 1,39,-1
 724 673 l 1,0,1
509 988 m 0,40,41
 509 1036 509 1036 538 1068.5 c 128,-1,42
 567 1101 567 1101 624 1101 c 256,43,44
 681 1101 681 1101 710 1068.5 c 128,-1,45
 739 1036 739 1036 739 988 c 0,46,47
 739 942 739 942 710 910.5 c 128,-1,48
 681 879 681 879 624 879 c 256,49,50
 567 879 567 879 538 910.5 c 128,-1,51
 509 942 509 942 509 988 c 0,40,41
EndSplineSet
EndChar

StartChar: AE
Encoding: 198 198 139
Width: 1229
GlyphClass: 2
Flags: W
LayerCount: 2
Fore
SplineSet
1195 0 m 1,0,-1
 664 0 l 1,1,-1
 663 353 l 1,2,-1
 353 353 l 1,3,-1
 230 0 l 1,4,-1
 32 0 l 1,5,-1
 592 1456 l 1,6,-1
 1172 1456 l 1,7,-1
 1172 1304 l 1,8,-1
 835 1304 l 1,9,-1
 837 833 l 1,10,-1
 1139 833 l 1,11,-1
 1139 682 l 1,12,-1
 837 682 l 1,13,-1
 838 151 l 1,14,-1
 1195 151 l 1,15,-1
 1195 0 l 1,0,-1
414 527 m 1,16,-1
 663 527 l 1,17,-1
 661 1233 l 1,18,-1
 414 527 l 1,16,-1
EndSplineSet
EndChar

StartChar: Eth
Encoding: 208 208 149
Width: 1259
GlyphClass: 2
Flags: W
LayerCount: 2
Fore
SplineSet
185 0 m 1,0,-1
 185 666 l 1,1,-1
 -44 666 l 1,2,-1
 -44 817 l 1,3,-1
 185 817 l 1,4,-1
 185 1456 l 1,5,-1
 522 1456 l 2,6,7
 674 1454 674 1454 793.5 1404.5 c 128,-1,8
 913 1355 913 1355 995.5 1266.5 c 128,-1,9
 1078 1178 1078 1178 1121.5 1054.5 c 128,-1,10
 1165 931 1165 931 1166 781 c 2,11,-1
 1166 674 l 2,12,13
 1165 524 1165 524 1121.5 400.5 c 128,-1,14
 1078 277 1078 277 995.5 188.5 c 128,-1,15
 913 100 913 100 793.5 50.5 c 128,-1,16
 674 1 674 1 522 0 c 2,17,-1
 185 0 l 1,0,-1
593 666 m 1,18,-1
 373 666 l 1,19,-1
 373 151 l 1,20,-1
 522 151 l 2,21,22
 640 152 640 152 726 192.5 c 128,-1,23
 812 233 812 233 868.5 303 c 128,-1,24
 925 373 925 373 952.5 468 c 128,-1,25
 980 563 980 563 981 674 c 2,26,-1
 981 783 l 2,27,28
 980 894 980 894 952 988.5 c 128,-1,29
 924 1083 924 1083 868 1152.5 c 128,-1,30
 812 1222 812 1222 726 1262 c 128,-1,31
 640 1302 640 1302 522 1304 c 2,32,-1
 373 1304 l 1,33,-1
 373 817 l 1,34,-1
 593 817 l 1,35,-1
 593 666 l 1,18,-1
EndSplineSet
Substitution2: "'smcp' Lowercase to Small Capitals lookup 0 subtable" Eth.smcp
EndChar

StartChar: multiply
Encoding: 215 215 156
Width: 1229
GlyphClass: 2
Flags: W
LayerCount: 2
Fore
SplineSet
181 329 m 1,0,-1
 511 666 l 1,1,-1
 184 1000 l 1,2,-1
 303 1123 l 1,3,-1
 631 788 l 1,4,-1
 960 1123 l 1,5,-1
 1079 1000 l 1,6,-1
 751 666 l 1,7,-1
 1082 329 l 1,8,-1
 963 206 l 1,9,-1
 631 543 l 1,10,-1
 300 206 l 1,11,-1
 181 329 l 1,0,-1
EndSplineSet
EndChar

StartChar: Oslash
Encoding: 216 216 157
Width: 1229
GlyphClass: 2
Flags: W
LayerCount: 2
Fore
SplineSet
1113 644 m 2,0,1
 1112 566 1112 566 1099.5 486.5 c 128,-1,2
 1087 407 1087 407 1061 333 c 128,-1,3
 1035 259 1035 259 994.5 195 c 128,-1,4
 954 131 954 131 898 83 c 128,-1,5
 842 35 842 35 769.5 7.5 c 128,-1,6
 697 -20 697 -20 607 -20 c 0,7,8
 516 -20 516 -20 445 7.5 c 128,-1,9
 374 35 374 35 317 83 c 1,10,-1
 213 -93 l 1,11,-1
 71 -93 l 1,12,-1
 231 177 l 1,13,14
 197 226 197 226 172 282 c 128,-1,15
 147 338 147 338 130.5 398 c 128,-1,16
 114 458 114 458 106 520.5 c 128,-1,17
 98 583 98 583 98 644 c 2,18,-1
 98 810 l 2,19,20
 99 888 99 888 111.5 967.5 c 128,-1,21
 124 1047 124 1047 150.5 1121 c 128,-1,22
 177 1195 177 1195 217.5 1259.5 c 128,-1,23
 258 1324 258 1324 314 1372.5 c 128,-1,24
 370 1421 370 1421 442.5 1448.5 c 128,-1,25
 515 1476 515 1476 605 1476 c 0,26,27
 707 1476 707 1476 785.5 1441.5 c 128,-1,28
 864 1407 864 1407 923 1348 c 1,29,-1
 1022 1516 l 1,30,-1
 1164 1516 l 1,31,-1
 1003 1244 l 1,32,33
 1031 1197 1031 1197 1051.5 1144.5 c 128,-1,34
 1072 1092 1072 1092 1085.5 1036.5 c 128,-1,35
 1099 981 1099 981 1105.5 923.5 c 128,-1,36
 1112 866 1112 866 1113 810 c 2,37,-1
 1113 644 l 2,0,1
280 644 m 2,38,39
 281 575 281 575 292.5 497.5 c 128,-1,40
 304 420 304 420 333 350 c 1,41,-1
 831 1193 l 1,42,43
 794 1246 794 1246 738.5 1278.5 c 128,-1,44
 683 1311 683 1311 605 1311 c 0,45,46
 541 1311 541 1311 492 1288 c 128,-1,47
 443 1265 443 1265 407 1226.5 c 128,-1,48
 371 1188 371 1188 347 1137.5 c 128,-1,49
 323 1087 323 1087 308.5 1031.5 c 128,-1,50
 294 976 294 976 287.5 919.5 c 128,-1,51
 281 863 281 863 280 812 c 2,52,-1
 280 644 l 2,38,39
930 812 m 2,53,54
 929 870 929 870 921.5 934.5 c 128,-1,55
 914 999 914 999 895 1061 c 1,56,-1
 404 231 l 1,57,58
 441 190 441 190 491 166.5 c 128,-1,59
 541 143 541 143 607 143 c 0,60,61
 672 143 672 143 721.5 166 c 128,-1,62
 771 189 771 189 806.5 227.5 c 128,-1,63
 842 266 842 266 865.5 316.5 c 128,-1,64
 889 367 889 367 903.5 422.5 c 128,-1,65
 918 478 918 478 923.5 535 c 128,-1,66
 929 592 929 592 930 644 c 2,67,-1
 930 812 l 2,53,54
EndSplineSet
EndChar

StartChar: Thorn
Encoding: 222 222 163
Width: 1229
GlyphClass: 2
Flags: W
LayerCount: 2
Fore
SplineSet
353 1456 m 1,0,-1
 353 1163 l 1,1,-1
 630 1163 l 2,2,3
 747 1163 747 1163 837.5 1131.5 c 128,-1,4
 928 1100 928 1100 990.5 1043.5 c 128,-1,5
 1053 987 1053 987 1085.5 909 c 128,-1,6
 1118 831 1118 831 1118 738 c 256,7,8
 1118 645 1118 645 1085.5 567 c 128,-1,9
 1053 489 1053 489 990.5 432.5 c 128,-1,10
 928 376 928 376 837.5 344.5 c 128,-1,11
 747 313 747 313 630 313 c 2,12,-1
 353 313 l 1,13,-1
 353 0 l 1,14,-1
 168 0 l 1,15,-1
 168 1456 l 1,16,-1
 353 1456 l 1,0,-1
353 1011 m 1,17,-1
 353 465 l 1,18,-1
 630 465 l 2,19,20
 708 465 708 465 765 487.5 c 128,-1,21
 822 510 822 510 859.5 547.5 c 128,-1,22
 897 585 897 585 915 634 c 128,-1,23
 933 683 933 683 933 736 c 0,24,25
 933 790 933 790 915 839.5 c 128,-1,26
 897 889 897 889 860 927.5 c 128,-1,27
 823 966 823 966 765.5 988.5 c 128,-1,28
 708 1011 708 1011 630 1011 c 2,29,-1
 353 1011 l 1,17,-1
EndSplineSet
EndChar

StartChar: germandbls
Encoding: 223 223 164
Width: 1229
GlyphClass: 2
Flags: W
LayerCount: 2
Fore
SplineSet
353 0 m 1,0,-1
 169 0 l 1,1,-1
 169 1087 l 2,2,3
 169 1199 169 1199 198.5 1287 c 128,-1,4
 228 1375 228 1375 280.5 1435 c 128,-1,5
 333 1495 333 1495 405 1526.5 c 128,-1,6
 477 1558 477 1558 562 1558 c 0,7,8
 637 1558 637 1558 702 1537.5 c 128,-1,9
 767 1517 767 1517 816 1475 c 128,-1,10
 865 1433 865 1433 893 1369.5 c 128,-1,11
 921 1306 921 1306 921 1220 c 0,12,13
 921 1141 921 1141 901 1087.5 c 128,-1,14
 881 1034 881 1034 857 992 c 128,-1,15
 833 950 833 950 813.5 911.5 c 128,-1,16
 794 873 794 873 794 823 c 0,17,18
 794 777 794 777 816.5 740 c 128,-1,19
 839 703 839 703 873 668 c 128,-1,20
 907 633 907 633 947 598 c 128,-1,21
 987 563 987 563 1021 522 c 128,-1,22
 1055 481 1055 481 1077.5 431 c 128,-1,23
 1100 381 1100 381 1100 316 c 0,24,25
 1100 231 1100 231 1074.5 168 c 128,-1,26
 1049 105 1049 105 1003 63 c 128,-1,27
 957 21 957 21 893.5 0 c 128,-1,28
 830 -21 830 -21 754 -21 c 0,29,30
 713 -21 713 -21 669 -15.5 c 128,-1,31
 625 -10 625 -10 584.5 -0.5 c 128,-1,32
 544 9 544 9 510 22 c 128,-1,33
 476 35 476 35 456 51 c 1,34,-1
 498 206 l 1,35,36
 516 195 516 195 542.5 181.5 c 128,-1,37
 569 168 569 168 600.5 156.5 c 128,-1,38
 632 145 632 145 666.5 137.5 c 128,-1,39
 701 130 701 130 735 130 c 0,40,41
 782 130 782 130 816 143.5 c 128,-1,42
 850 157 850 157 872 181 c 128,-1,43
 894 205 894 205 904.5 237 c 128,-1,44
 915 269 915 269 915 307 c 0,45,46
 915 354 915 354 892.5 392.5 c 128,-1,47
 870 431 870 431 836 465.5 c 128,-1,48
 802 500 802 500 762 535.5 c 128,-1,49
 722 571 722 571 688 612.5 c 128,-1,50
 654 654 654 654 631 705.5 c 128,-1,51
 608 757 608 757 608 825 c 0,52,53
 608 864 608 864 618 897 c 128,-1,54
 628 930 628 930 643.5 959.5 c 128,-1,55
 659 989 659 989 677 1016.5 c 128,-1,56
 695 1044 695 1044 710.5 1073.5 c 128,-1,57
 726 1103 726 1103 736 1134.5 c 128,-1,58
 746 1166 746 1166 746 1204 c 0,59,60
 746 1254 746 1254 731 1291.5 c 128,-1,61
 716 1329 716 1329 691.5 1354.5 c 128,-1,62
 667 1380 667 1380 635.5 1393 c 128,-1,63
 604 1406 604 1406 572 1406 c 0,64,65
 473 1406 473 1406 413.5 1324 c 128,-1,66
 354 1242 354 1242 353 1087 c 2,67,-1
 353 0 l 1,0,-1
EndSplineSet
Substitution2: "'smcp' Lowercase to Small Capitals lookup 0 subtable" Germandbls.smcp
EndChar

StartChar: ae
Encoding: 230 230 171
Width: 1229
GlyphClass: 2
Flags: W
LayerCount: 2
Fore
SplineSet
896 -20 m 0,0,1
 793 -20 793 -20 719 17.5 c 128,-1,2
 645 55 645 55 599 126 c 1,3,4
 580 97 580 97 554.5 70.5 c 128,-1,5
 529 44 529 44 496 24 c 128,-1,6
 463 4 463 4 423 -8 c 128,-1,7
 383 -20 383 -20 335 -20 c 0,8,9
 264 -20 264 -20 210 2 c 128,-1,10
 156 24 156 24 119 63.5 c 128,-1,11
 82 103 82 103 62.5 159.5 c 128,-1,12
 43 216 43 216 43 285 c 0,13,14
 43 451 43 451 147 543 c 128,-1,15
 251 635 251 635 448 635 c 2,16,-1
 511 635 l 1,17,-1
 511 783 l 2,18,19
 511 859 511 859 480 904.5 c 128,-1,20
 449 950 449 950 381 950 c 0,21,22
 318 950 318 950 279 908.5 c 128,-1,23
 240 867 240 867 240 792 c 1,24,-1
 61 800 l 1,25,26
 61 869 61 869 83.5 924.5 c 128,-1,27
 106 980 106 980 147.5 1019.5 c 128,-1,28
 189 1059 189 1059 248 1080.5 c 128,-1,29
 307 1102 307 1102 379 1102 c 0,30,31
 462 1102 462 1102 524.5 1075 c 128,-1,32
 587 1048 587 1048 626 995 c 1,33,34
 669 1046 669 1046 728.5 1074 c 128,-1,35
 788 1102 788 1102 862 1102 c 0,36,37
 943 1102 943 1102 1004.5 1075.5 c 128,-1,38
 1066 1049 1066 1049 1108 1000.5 c 128,-1,39
 1150 952 1150 952 1171.5 883.5 c 128,-1,40
 1193 815 1193 815 1193 731 c 2,41,-1
 1193 497 l 1,42,-1
 688 497 l 1,43,-1
 688 411 l 2,44,45
 688 345 688 345 701.5 293 c 128,-1,46
 715 241 715 241 744.5 205 c 128,-1,47
 774 169 774 169 820 149.5 c 128,-1,48
 866 130 866 130 932 130 c 0,49,50
 970 130 970 130 999.5 137 c 128,-1,51
 1029 144 1029 144 1052.5 154.5 c 128,-1,52
 1076 165 1076 165 1095 177 c 128,-1,53
 1114 189 1114 189 1130 200 c 1,54,-1
 1176 64 l 1,55,56
 1163 54 1163 54 1140 39.5 c 128,-1,57
 1117 25 1117 25 1082.5 12 c 128,-1,58
 1048 -1 1048 -1 1001.5 -10.5 c 128,-1,59
 955 -20 955 -20 896 -20 c 0,0,1
862 950 m 0,60,61
 817 950 817 950 784.5 930.5 c 128,-1,62
 752 911 752 911 731 878 c 128,-1,63
 710 845 710 845 699.5 801 c 128,-1,64
 689 757 689 757 688 709 c 2,65,-1
 688 640 l 1,66,-1
 1017 640 l 1,67,-1
 1017 768 l 2,68,69
 1017 803 1017 803 1007 835.5 c 128,-1,70
 997 868 997 868 977 893.5 c 128,-1,71
 957 919 957 919 928 934.5 c 128,-1,72
 899 950 899 950 862 950 c 0,60,61
371 130 m 0,73,74
 408 130 408 130 446 151.5 c 128,-1,75
 484 173 484 173 512 202 c 1,76,-1
 511 495 l 1,77,-1
 450 495 l 2,78,79
 397 495 397 495 355 477.5 c 128,-1,80
 313 460 313 460 284 430.5 c 128,-1,81
 255 401 255 401 239.5 362.5 c 128,-1,82
 224 324 224 324 224 281 c 0,83,84
 224 250 224 250 233.5 222.5 c 128,-1,85
 243 195 243 195 261.5 174.5 c 128,-1,86
 280 154 280 154 307.5 142 c 128,-1,87
 335 130 335 130 371 130 c 0,73,74
EndSplineSet
EndChar

StartChar: eth
Encoding: 240 240 181
Width: 1229
GlyphClass: 2
Flags: W
LayerCount: 2
Fore
SplineSet
845 1286 m 1,0,1
 949 1168 949 1168 1007.5 1003.5 c 128,-1,2
 1066 839 1066 839 1066 633 c 2,3,-1
 1066 571 l 2,4,5
 1066 433 1066 433 1028.5 323.5 c 128,-1,6
 991 214 991 214 924 137.5 c 128,-1,7
 857 61 857 61 765.5 20.5 c 128,-1,8
 674 -20 674 -20 565 -20 c 0,9,10
 457 -20 457 -20 366.5 17.5 c 128,-1,11
 276 55 276 55 210.5 121 c 128,-1,12
 145 187 145 187 109 276 c 128,-1,13
 73 365 73 365 73 467 c 0,14,15
 73 582 73 582 109.5 676 c 128,-1,16
 146 770 146 770 211.5 837 c 128,-1,17
 277 904 277 904 366.5 940.5 c 128,-1,18
 456 977 456 977 561 977 c 0,19,20
 649 977 649 977 725.5 943 c 128,-1,21
 802 909 802 909 859 853 c 1,22,23
 836 963 836 963 791 1047 c 128,-1,24
 746 1131 746 1131 684 1194 c 1,25,-1
 418 1042 l 1,26,-1
 345 1141 l 1,27,-1
 584 1278 l 1,28,29
 543 1305 543 1305 499.5 1325.5 c 128,-1,30
 456 1346 456 1346 410 1362 c 1,31,-1
 467 1521 l 1,32,33
 547 1499 547 1499 618.5 1462.5 c 128,-1,34
 690 1426 690 1426 753 1375 c 1,35,-1
 983 1507 l 1,36,-1
 1056 1407 l 1,37,-1
 845 1286 l 1,0,1
881 635 m 2,38,39
 881 648 881 648 880.5 660 c 128,-1,40
 880 672 880 672 880 685 c 1,41,42
 863 712 863 712 834.5 737.5 c 128,-1,43
 806 763 806 763 766 782.5 c 128,-1,44
 726 802 726 802 674.5 813.5 c 128,-1,45
 623 825 623 825 561 825 c 0,46,47
 492 825 492 825 436 796.5 c 128,-1,48
 380 768 380 768 340.5 719 c 128,-1,49
 301 670 301 670 280 605 c 128,-1,50
 259 540 259 540 259 467 c 0,51,52
 259 405 259 405 280 344.5 c 128,-1,53
 301 284 301 284 340.5 236.5 c 128,-1,54
 380 189 380 189 437.5 159.5 c 128,-1,55
 495 130 495 130 569 130 c 0,56,57
 641 130 641 130 698.5 162 c 128,-1,58
 756 194 756 194 796.5 251.5 c 128,-1,59
 837 309 837 309 859 390.5 c 128,-1,60
 881 472 881 472 881 571 c 2,61,-1
 881 635 l 2,38,39
EndSplineSet
Substitution2: "'smcp' Lowercase to Small Capitals lookup 0 subtable" Eth.smcp
EndChar

StartChar: divide
Encoding: 247 247 188
Width: 1229
GlyphClass: 2
Flags: W
LayerCount: 2
Fore
SplineSet
1113 600 m 1,0,-1
 115 600 l 1,1,-1
 115 784 l 1,2,-1
 1113 784 l 1,3,-1
 1113 600 l 1,0,-1
507 1097 m 256,4,5
 507 1142 507 1142 534.5 1173 c 128,-1,6
 562 1204 562 1204 616 1204 c 256,7,8
 670 1204 670 1204 698 1173 c 128,-1,9
 726 1142 726 1142 726 1097 c 256,10,11
 726 1052 726 1052 698 1022 c 128,-1,12
 670 992 670 992 616 992 c 256,13,14
 562 992 562 992 534.5 1022 c 128,-1,15
 507 1052 507 1052 507 1097 c 256,4,5
505 282 m 0,16,17
 505 327 505 327 532.5 358 c 128,-1,18
 560 389 560 389 614 389 c 256,19,20
 668 389 668 389 696 358 c 128,-1,21
 724 327 724 327 724 282 c 0,22,23
 724 238 724 238 696 207.5 c 128,-1,24
 668 177 668 177 614 177 c 256,25,26
 560 177 560 177 532.5 207.5 c 128,-1,27
 505 238 505 238 505 282 c 0,16,17
EndSplineSet
EndChar

StartChar: oslash
Encoding: 248 248 189
Width: 1229
GlyphClass: 2
Flags: W
LayerCount: 2
Fore
SplineSet
122 551 m 2,0,1
 122 668 122 668 156 768.5 c 128,-1,2
 190 869 190 869 253.5 943 c 128,-1,3
 317 1017 317 1017 408 1059.5 c 128,-1,4
 499 1102 499 1102 613 1102 c 0,5,6
 670 1102 670 1102 720.5 1091.5 c 128,-1,7
 771 1081 771 1081 816 1061 c 1,8,-1
 889 1209 l 1,9,-1
 1012 1209 l 1,10,-1
 911 1004 l 1,11,12
 1005 929 1005 929 1055.5 812 c 128,-1,13
 1106 695 1106 695 1106 551 c 2,14,-1
 1106 529 l 2,15,16
 1106 412 1106 412 1072 312 c 128,-1,17
 1038 212 1038 212 974.5 138 c 128,-1,18
 911 64 911 64 820 22 c 128,-1,19
 729 -20 729 -20 615 -20 c 0,20,21
 561 -20 561 -20 513.5 -10.5 c 128,-1,22
 466 -1 466 -1 423 16 c 1,23,-1
 349 -135 l 1,24,-1
 226 -135 l 1,25,-1
 327 70 l 1,26,27
 228 143 228 143 175 262 c 128,-1,28
 122 381 122 381 122 529 c 2,29,-1
 122 551 l 2,0,1
307 529 m 2,30,31
 307 438 307 438 331 359.5 c 128,-1,32
 355 281 355 281 403 224 c 1,33,-1
 745 918 l 1,34,35
 716 933 716 933 683.5 941.5 c 128,-1,36
 651 950 651 950 613 950 c 0,37,38
 536 950 536 950 479 917.5 c 128,-1,39
 422 885 422 885 383.5 830 c 128,-1,40
 345 775 345 775 326 702.5 c 128,-1,41
 307 630 307 630 307 551 c 2,42,-1
 307 529 l 2,30,31
921 551 m 2,43,44
 921 636 921 636 899 712 c 128,-1,45
 877 788 877 788 832 845 c 1,46,-1
 492 156 l 1,47,48
 547 130 547 130 615 130 c 0,49,50
 691 130 691 130 748.5 162 c 128,-1,51
 806 194 806 194 844.5 249 c 128,-1,52
 883 304 883 304 902 376.5 c 128,-1,53
 921 449 921 449 921 529 c 2,54,-1
 921 551 l 2,43,44
EndSplineSet
EndChar

StartChar: thorn
Encoding: 254 254 195
Width: 1229
GlyphClass: 2
Flags: W
LayerCount: 2
Fore
SplineSet
1087 529 m 2,0,1
 1087 413 1087 413 1060 312.5 c 128,-1,2
 1033 212 1033 212 979.5 138 c 128,-1,3
 926 64 926 64 848 22 c 128,-1,4
 770 -20 770 -20 668 -20 c 0,5,6
 568 -20 568 -20 491 12.5 c 128,-1,7
 414 45 414 45 358 107 c 1,8,-1
 358 -416 l 1,9,-1
 173 -416 l 1,10,-1
 173 1558 l 1,11,-1
 358 1558 l 1,12,-1
 358 970 l 1,13,14
 413 1034 413 1034 489 1068 c 128,-1,15
 565 1102 565 1102 665 1102 c 0,16,17
 769 1102 769 1102 848 1061 c 128,-1,18
 927 1020 927 1020 980 947 c 128,-1,19
 1033 874 1033 874 1060 772.5 c 128,-1,20
 1087 671 1087 671 1087 550 c 2,21,-1
 1087 529 l 2,0,1
902 550 m 2,22,23
 902 629 902 629 885 700.5 c 128,-1,24
 868 772 868 772 832.5 826.5 c 128,-1,25
 797 881 797 881 742 913 c 128,-1,26
 687 945 687 945 610 945 c 0,27,28
 519 945 519 945 457 903.5 c 128,-1,29
 395 862 395 862 358 796 c 1,30,-1
 358 278 l 1,31,32
 396 213 396 213 457 172 c 128,-1,33
 518 131 518 131 612 131 c 0,34,35
 688 131 688 131 743 163.5 c 128,-1,36
 798 196 798 196 833 251 c 128,-1,37
 868 306 868 306 885 378 c 128,-1,38
 902 450 902 450 902 529 c 2,39,-1
 902 550 l 2,22,23
EndSplineSet
EndChar

StartChar: Aogonek
Encoding: 260 260 201
Width: 1229
GlyphClass: 2
Flags: W
LayerCount: 2
Fore
SplineSet
551 1456 m 1,0,-1
 706 1456 l 1,1,-1
 1168 0 l 1,2,-1
 1120 0 l 1,3,4
 1042 -42 1042 -42 995 -97.5 c 128,-1,5
 948 -153 948 -153 948 -219 c 0,6,7
 948 -253 948 -253 966 -273.5 c 128,-1,8
 984 -294 984 -294 1026 -294 c 0,9,10
 1058 -295 1058 -295 1084.5 -285.5 c 128,-1,11
 1111 -276 1111 -276 1127 -268 c 1,12,-1
 1158 -389 l 1,13,14
 1130 -405 1130 -405 1087.5 -419 c 128,-1,15
 1045 -433 1045 -433 980 -433 c 0,16,17
 939 -433 939 -433 904 -421 c 128,-1,18
 869 -409 869 -409 843 -385 c 128,-1,19
 817 -361 817 -361 802 -325.5 c 128,-1,20
 787 -290 787 -290 787 -243 c 0,21,22
 787 -207 787 -207 800 -171 c 128,-1,23
 813 -135 813 -135 837.5 -100.5 c 128,-1,24
 862 -66 862 -66 897 -34 c 128,-1,25
 932 -2 932 -2 976 25 c 1,26,-1
 869 377 l 1,27,-1
 383 377 l 1,28,-1
 266 0 l 1,29,-1
 81 0 l 1,30,-1
 551 1456 l 1,0,-1
433 538 m 1,31,-1
 820 538 l 1,32,-1
 628 1170 l 1,33,-1
 433 538 l 1,31,-1
EndSplineSet
Substitution2: "'smcp' Lowercase to Small Capitals lookup 0 subtable" Aogonek.smcp
EndChar

StartChar: aogonek
Encoding: 261 261 202
Width: 1229
GlyphClass: 2
Flags: W
LayerCount: 2
Fore
SplineSet
879 14 m 1,0,1
 871 35 871 35 866 62 c 128,-1,2
 861 89 861 89 858 118 c 1,3,4
 830 90 830 90 795.5 65 c 128,-1,5
 761 40 761 40 719.5 21 c 128,-1,6
 678 2 678 2 631 -9 c 128,-1,7
 584 -20 584 -20 531 -20 c 0,8,9
 445 -20 445 -20 375.5 5 c 128,-1,10
 306 30 306 30 257.5 72.5 c 128,-1,11
 209 115 209 115 182.5 173.5 c 128,-1,12
 156 232 156 232 156 300 c 0,13,14
 156 389 156 389 191.5 456 c 128,-1,15
 227 523 227 523 292 567.5 c 128,-1,16
 357 612 357 612 448.5 634 c 128,-1,17
 540 656 540 656 653 656 c 2,18,-1
 855 656 l 1,19,-1
 855 741 l 2,20,21
 855 790 855 790 837 829 c 128,-1,22
 819 868 819 868 786 895.5 c 128,-1,23
 753 923 753 923 705.5 938 c 128,-1,24
 658 953 658 953 599 953 c 0,25,26
 544 953 544 953 500.5 939 c 128,-1,27
 457 925 457 925 427 902 c 128,-1,28
 397 879 397 879 380.5 847.5 c 128,-1,29
 364 816 364 816 364 782 c 1,30,-1
 178 782 l 1,31,32
 179 841 179 841 208.5 898 c 128,-1,33
 238 955 238 955 293.5 1000.5 c 128,-1,34
 349 1046 349 1046 428.5 1074 c 128,-1,35
 508 1102 508 1102 609 1102 c 0,36,37
 701 1102 701 1102 780 1079.5 c 128,-1,38
 859 1057 859 1057 916.5 1011.5 c 128,-1,39
 974 966 974 966 1007 898 c 128,-1,40
 1040 830 1040 830 1040 739 c 2,41,-1
 1040 236 l 2,42,43
 1040 182 1040 182 1050 121.5 c 128,-1,44
 1060 61 1060 61 1078 16 c 1,45,-1
 1078 0 l 1,46,-1
 1040 0 l 1,47,48
 962 -42 962 -42 915 -97.5 c 128,-1,49
 868 -153 868 -153 868 -219 c 0,50,51
 868 -253 868 -253 886 -273.5 c 128,-1,52
 904 -294 904 -294 946 -294 c 0,53,54
 978 -295 978 -295 1004.5 -285.5 c 128,-1,55
 1031 -276 1031 -276 1047 -268 c 1,56,-1
 1078 -389 l 1,57,58
 1050 -405 1050 -405 1007.5 -419 c 128,-1,59
 965 -433 965 -433 900 -433 c 0,60,61
 859 -433 859 -433 824 -421 c 128,-1,62
 789 -409 789 -409 763 -385 c 128,-1,63
 737 -361 737 -361 722 -325.5 c 128,-1,64
 707 -290 707 -290 707 -243 c 0,65,66
 707 -175 707 -175 752.5 -107.5 c 128,-1,67
 798 -40 798 -40 879 14 c 1,0,1
558 141 m 256,68,69
 612 141 612 141 659 155 c 128,-1,70
 706 169 706 169 744.5 192 c 128,-1,71
 783 215 783 215 811 244.5 c 128,-1,72
 839 274 839 274 855 306 c 1,73,-1
 855 525 l 1,74,-1
 683 525 l 2,75,76
 521 525 521 525 431 477 c 128,-1,77
 341 429 341 429 341 326 c 0,78,79
 341 286 341 286 354.5 252 c 128,-1,80
 368 218 368 218 395 193.5 c 128,-1,81
 422 169 422 169 463 155 c 128,-1,82
 504 141 504 141 558 141 c 256,68,69
EndSplineSet
Substitution2: "'smcp' Lowercase to Small Capitals lookup 0 subtable" Aogonek.smcp
EndChar

StartChar: Dcroat
Encoding: 272 272 213
Width: 1259
GlyphClass: 2
Flags: W
LayerCount: 2
Fore
SplineSet
185 0 m 1,0,-1
 185 666 l 1,1,-1
 -44 666 l 1,2,-1
 -44 817 l 1,3,-1
 185 817 l 1,4,-1
 185 1456 l 1,5,-1
 522 1456 l 2,6,7
 674 1454 674 1454 793.5 1404.5 c 128,-1,8
 913 1355 913 1355 995.5 1266.5 c 128,-1,9
 1078 1178 1078 1178 1121.5 1054.5 c 128,-1,10
 1165 931 1165 931 1166 781 c 2,11,-1
 1166 674 l 2,12,13
 1165 524 1165 524 1121.5 400.5 c 128,-1,14
 1078 277 1078 277 995.5 188.5 c 128,-1,15
 913 100 913 100 793.5 50.5 c 128,-1,16
 674 1 674 1 522 0 c 2,17,-1
 185 0 l 1,0,-1
593 666 m 1,18,-1
 373 666 l 1,19,-1
 373 151 l 1,20,-1
 522 151 l 2,21,22
 640 152 640 152 726 192.5 c 128,-1,23
 812 233 812 233 868.5 303 c 128,-1,24
 925 373 925 373 952.5 468 c 128,-1,25
 980 563 980 563 981 674 c 2,26,-1
 981 783 l 2,27,28
 980 894 980 894 952 988.5 c 128,-1,29
 924 1083 924 1083 868 1152.5 c 128,-1,30
 812 1222 812 1222 726 1262 c 128,-1,31
 640 1302 640 1302 522 1304 c 2,32,-1
 373 1304 l 1,33,-1
 373 817 l 1,34,-1
 593 817 l 1,35,-1
 593 666 l 1,18,-1
EndSplineSet
Substitution2: "'smcp' Lowercase to Small Capitals lookup 0 subtable" Dcroat.smcp
EndChar

StartChar: dcroat
Encoding: 273 273 214
Width: 1259
GlyphClass: 2
Flags: W
LayerCount: 2
Fore
SplineSet
1249 1234 m 1,0,-1
 1052 1234 l 1,1,-1
 1052 0 l 1,2,-1
 882 0 l 1,3,-1
 874 114 l 1,4,5
 820 48 820 48 745 14 c 128,-1,6
 670 -20 670 -20 570 -20 c 0,7,8
 472 -20 472 -20 392.5 22 c 128,-1,9
 313 64 313 64 257 138 c 128,-1,10
 201 212 201 212 170 312.5 c 128,-1,11
 139 413 139 413 139 529 c 2,12,-1
 139 550 l 2,13,14
 139 671 139 671 169.5 772.5 c 128,-1,15
 200 874 200 874 256.5 947 c 128,-1,16
 313 1020 313 1020 393 1061 c 128,-1,17
 473 1102 473 1102 572 1102 c 0,18,19
 669 1102 669 1102 741.5 1069.5 c 128,-1,20
 814 1037 814 1037 867 975 c 1,21,-1
 867 1234 l 1,22,-1
 612 1234 l 1,23,-1
 612 1385 l 1,24,-1
 867 1385 l 1,25,-1
 867 1536 l 1,26,-1
 1052 1536 l 1,27,-1
 1052 1385 l 1,28,-1
 1249 1385 l 1,29,-1
 1249 1234 l 1,0,-1
324 529 m 2,30,31
 324 450 324 450 341 379 c 128,-1,32
 358 308 358 308 393.5 254 c 128,-1,33
 429 200 429 200 484 168.5 c 128,-1,34
 539 137 539 137 616 137 c 0,35,36
 663 137 663 137 701 148 c 128,-1,37
 739 159 739 159 770 179.5 c 128,-1,38
 801 200 801 200 825 228.5 c 128,-1,39
 849 257 849 257 867 292 c 1,40,-1
 867 794 l 1,41,42
 831 860 831 860 770 902.5 c 128,-1,43
 709 945 709 945 618 945 c 0,44,45
 540 945 540 945 484.5 913 c 128,-1,46
 429 881 429 881 393.5 826.5 c 128,-1,47
 358 772 358 772 341 700.5 c 128,-1,48
 324 629 324 629 324 550 c 2,49,-1
 324 529 l 2,30,31
EndSplineSet
Substitution2: "'smcp' Lowercase to Small Capitals lookup 0 subtable" Dcroat.smcp
EndChar

StartChar: Eogonek
Encoding: 280 280 221
Width: 1229
GlyphClass: 2
Flags: W
LayerCount: 2
Fore
SplineSet
975 673 m 1,0,-1
 367 673 l 1,1,-1
 367 157 l 1,2,-1
 1076 157 l 1,3,-1
 1076 0 l 1,4,-1
 992 0 l 1,5,6
 914 -42 914 -42 867 -97.5 c 128,-1,7
 820 -153 820 -153 820 -219 c 0,8,9
 820 -253 820 -253 838 -273.5 c 128,-1,10
 856 -294 856 -294 898 -294 c 0,11,12
 930 -295 930 -295 956.5 -285.5 c 128,-1,13
 983 -276 983 -276 999 -268 c 1,14,-1
 1030 -389 l 1,15,16
 1002 -405 1002 -405 959.5 -419 c 128,-1,17
 917 -433 917 -433 852 -433 c 0,18,19
 811 -433 811 -433 776 -421 c 128,-1,20
 741 -409 741 -409 715 -385 c 128,-1,21
 689 -361 689 -361 674 -325.5 c 128,-1,22
 659 -290 659 -290 659 -243 c 0,23,24
 659 -180 659 -180 699 -116.5 c 128,-1,25
 739 -53 739 -53 811 0 c 1,26,-1
 182 0 l 1,27,-1
 182 1456 l 1,28,-1
 1067 1456 l 1,29,-1
 1067 1298 l 1,30,-1
 367 1298 l 1,31,-1
 367 830 l 1,32,-1
 975 830 l 1,33,-1
 975 673 l 1,0,-1
EndSplineSet
Substitution2: "'smcp' Lowercase to Small Capitals lookup 0 subtable" Eogonek.smcp
EndChar

StartChar: eogonek
Encoding: 281 281 222
Width: 1229
GlyphClass: 2
Flags: W
LayerCount: 2
Fore
SplineSet
1079 189 m 1,0,1
 1045 138 1045 138 991.5 92.5 c 128,-1,2
 938 47 938 47 863 18 c 1,3,-1
 864 18 l 1,4,5
 786 -24 786 -24 739 -79.5 c 128,-1,6
 692 -135 692 -135 692 -201 c 0,7,8
 692 -235 692 -235 710 -255.5 c 128,-1,9
 728 -276 728 -276 770 -276 c 0,10,11
 802 -277 802 -277 828.5 -267.5 c 128,-1,12
 855 -258 855 -258 871 -250 c 1,13,-1
 902 -371 l 1,14,15
 874 -387 874 -387 831.5 -401 c 128,-1,16
 789 -415 789 -415 724 -415 c 0,17,18
 683 -415 683 -415 648 -403 c 128,-1,19
 613 -391 613 -391 587 -367 c 128,-1,20
 561 -343 561 -343 546 -307.5 c 128,-1,21
 531 -272 531 -272 531 -225 c 0,22,23
 531 -172 531 -172 558.5 -119.5 c 128,-1,24
 586 -67 586 -67 637 -19 c 1,25,26
 526 -16 526 -16 433.5 24 c 128,-1,27
 341 64 341 64 274.5 133.5 c 128,-1,28
 208 203 208 203 171.5 297.5 c 128,-1,29
 135 392 135 392 135 503 c 2,30,-1
 135 545 l 2,31,32
 135 676 135 676 177 779.5 c 128,-1,33
 219 883 219 883 288.5 954.5 c 128,-1,34
 358 1026 358 1026 446.5 1064 c 128,-1,35
 535 1102 535 1102 628 1102 c 0,36,37
 745 1102 745 1102 832.5 1061.5 c 128,-1,38
 920 1021 920 1021 978 949.5 c 128,-1,39
 1036 878 1036 878 1064.5 781 c 128,-1,40
 1093 684 1093 684 1093 571 c 2,41,-1
 1093 488 l 1,42,-1
 320 488 l 1,43,44
 323 414 323 414 348.5 349 c 128,-1,45
 374 284 374 284 418.5 235.5 c 128,-1,46
 463 187 463 187 525 159 c 128,-1,47
 587 131 587 131 662 131 c 0,48,49
 761 131 761 131 838 171 c 128,-1,50
 915 211 915 211 966 277 c 1,51,-1
 1079 189 l 1,0,1
628 950 m 0,52,53
 572 950 572 950 522 929.5 c 128,-1,54
 472 909 472 909 432 869.5 c 128,-1,55
 392 830 392 830 364.5 772.5 c 128,-1,56
 337 715 337 715 326 640 c 1,57,-1
 908 640 l 1,58,-1
 908 654 l 2,59,60
 905 708 905 708 887.5 761 c 128,-1,61
 870 814 870 814 836 856 c 128,-1,62
 802 898 802 898 750.5 924 c 128,-1,63
 699 950 699 950 628 950 c 0,52,53
EndSplineSet
Substitution2: "'smcp' Lowercase to Small Capitals lookup 0 subtable" Eogonek.smcp
EndChar

StartChar: Hbar
Encoding: 294 294 235
Width: 1229
GlyphClass: 2
Flags: W
LayerCount: 2
Fore
SplineSet
1084 1167 m 1,0,-1
 1212 1167 l 1,1,-1
 1212 1024 l 1,2,-1
 1084 1024 l 1,3,-1
 1084 0 l 1,4,-1
 909 0 l 1,5,-1
 909 673 l 1,6,-1
 312 673 l 1,7,-1
 312 0 l 1,8,-1
 138 0 l 1,9,-1
 138 1024 l 1,10,-1
 24 1024 l 1,11,-1
 24 1167 l 1,12,-1
 138 1167 l 1,13,-1
 138 1456 l 1,14,-1
 312 1456 l 1,15,-1
 312 1167 l 1,16,-1
 909 1167 l 1,17,-1
 909 1456 l 1,18,-1
 1084 1456 l 1,19,-1
 1084 1167 l 1,0,-1
312 830 m 1,20,-1
 909 830 l 1,21,-1
 909 1024 l 1,22,-1
 312 1024 l 1,23,-1
 312 830 l 1,20,-1
EndSplineSet
EndChar

StartChar: hbar
Encoding: 295 295 236
Width: 1259
GlyphClass: 2
Flags: W
LayerCount: 2
Fore
SplineSet
663 1234 m 1,0,-1
 389 1234 l 1,1,-1
 389 921 l 1,2,3
 447 1006 447 1006 532 1053.5 c 128,-1,4
 617 1101 617 1101 723 1102 c 0,5,6
 808 1102 808 1102 877.5 1077.5 c 128,-1,7
 947 1053 947 1053 996 1001 c 128,-1,8
 1045 949 1045 949 1071.5 869.5 c 128,-1,9
 1098 790 1098 790 1098 681 c 2,10,-1
 1098 0 l 1,11,-1
 913 0 l 1,12,-1
 913 683 l 2,13,14
 913 816 913 816 849.5 881 c 128,-1,15
 786 946 786 946 668 945 c 0,16,17
 579 945 579 945 506.5 901.5 c 128,-1,18
 434 858 434 858 389 786 c 1,19,-1
 389 0 l 1,20,-1
 204 0 l 1,21,-1
 204 1234 l 1,22,-1
 26 1234 l 1,23,-1
 26 1385 l 1,24,-1
 204 1385 l 1,25,-1
 204 1536 l 1,26,-1
 389 1536 l 1,27,-1
 389 1385 l 1,28,-1
 663 1385 l 1,29,-1
 663 1234 l 1,0,-1
EndSplineSet
EndChar

StartChar: Iogonek
Encoding: 302 302 243
Width: 1229
GlyphClass: 2
Flags: W
LayerCount: 2
Fore
SplineSet
174 1456 m 1,0,-1
 1054 1456 l 1,1,-1
 1054 1295 l 1,2,-1
 705 1295 l 1,3,-1
 705 160 l 1,4,-1
 1054 160 l 1,5,-1
 1054 0 l 1,6,-1
 762 0 l 1,7,8
 684 -42 684 -42 637 -97.5 c 128,-1,9
 590 -153 590 -153 590 -219 c 0,10,11
 590 -253 590 -253 608 -273.5 c 128,-1,12
 626 -294 626 -294 668 -294 c 0,13,14
 700 -295 700 -295 726.5 -285.5 c 128,-1,15
 753 -276 753 -276 769 -268 c 1,16,-1
 800 -389 l 1,17,18
 772 -405 772 -405 729.5 -419 c 128,-1,19
 687 -433 687 -433 622 -433 c 0,20,21
 581 -433 581 -433 546 -421 c 128,-1,22
 511 -409 511 -409 485 -385 c 128,-1,23
 459 -361 459 -361 444 -325.5 c 128,-1,24
 429 -290 429 -290 429 -243 c 0,25,26
 429 -180 429 -180 469 -116.5 c 128,-1,27
 509 -53 509 -53 581 0 c 1,28,-1
 174 0 l 1,29,-1
 174 160 l 1,30,-1
 515 160 l 1,31,-1
 515 1295 l 1,32,-1
 174 1295 l 1,33,-1
 174 1456 l 1,0,-1
EndSplineSet
Substitution2: "'smcp' Lowercase to Small Capitals lookup 0 subtable" Iogonek.smcp
EndChar

StartChar: iogonek
Encoding: 303 303 244
Width: 1229
GlyphClass: 2
Flags: W
LayerCount: 2
Fore
SplineSet
203 1082 m 1,0,-1
 756 1082 l 1,1,-1
 756 160 l 1,2,-1
 1109 160 l 1,3,-1
 1109 0 l 1,4,-1
 756 0 l 1,5,6
 678 -42 678 -42 631 -97.5 c 128,-1,7
 584 -153 584 -153 584 -219 c 0,8,9
 584 -253 584 -253 602 -273.5 c 128,-1,10
 620 -294 620 -294 662 -294 c 0,11,12
 694 -295 694 -295 720.5 -285.5 c 128,-1,13
 747 -276 747 -276 763 -268 c 1,14,-1
 794 -389 l 1,15,16
 766 -405 766 -405 723.5 -419 c 128,-1,17
 681 -433 681 -433 616 -433 c 0,18,19
 575 -433 575 -433 540 -421 c 128,-1,20
 505 -409 505 -409 479 -385 c 128,-1,21
 453 -361 453 -361 438 -325.5 c 128,-1,22
 423 -290 423 -290 423 -243 c 0,23,24
 423 -180 423 -180 463 -116.5 c 128,-1,25
 503 -53 503 -53 575 0 c 1,26,-1
 203 0 l 1,27,-1
 203 160 l 1,28,-1
 571 160 l 1,29,-1
 571 921 l 1,30,-1
 203 921 l 1,31,-1
 203 1082 l 1,0,-1
547 1366 m 0,32,33
 547 1412 547 1412 574.5 1443.5 c 128,-1,34
 602 1475 602 1475 658 1475 c 0,35,36
 713 1475 713 1475 741 1443.5 c 128,-1,37
 769 1412 769 1412 769 1366 c 0,38,39
 769 1321 769 1321 741 1291 c 128,-1,40
 713 1261 713 1261 658 1261 c 0,41,42
 602 1261 602 1261 574.5 1291 c 128,-1,43
 547 1321 547 1321 547 1366 c 0,32,33
EndSplineSet
Substitution2: "'smcp' Lowercase to Small Capitals lookup 0 subtable" Iogonek.smcp
EndChar

StartChar: dotlessi
Encoding: 305 305 246
Width: 1229
GlyphClass: 2
Flags: W
LayerCount: 2
Fore
SplineSet
203 1082 m 1,0,-1
 756 1082 l 1,1,-1
 756 160 l 1,2,-1
 1109 160 l 1,3,-1
 1109 0 l 1,4,-1
 203 0 l 1,5,-1
 203 160 l 1,6,-1
 571 160 l 1,7,-1
 571 921 l 1,8,-1
 203 921 l 1,9,-1
 203 1082 l 1,0,-1
EndSplineSet
EndChar

StartChar: IJ
Encoding: 306 306 247
Width: 1229
GlyphClass: 2
Flags: W
LayerCount: 2
Fore
SplineSet
313 0 m 1,0,-1
 128 0 l 1,1,-1
 128 1456 l 1,2,-1
 313 1456 l 1,3,-1
 313 0 l 1,0,-1
915 1456 m 1,4,-1
 1100 1456 l 1,5,-1
 1100 323 l 2,6,7
 1100 242 1100 242 1079.5 178.5 c 128,-1,8
 1059 115 1059 115 1016.5 71 c 128,-1,9
 974 27 974 27 909.5 4 c 128,-1,10
 845 -19 845 -19 758 -19 c 0,11,12
 685 -19 685 -19 623.5 1.5 c 128,-1,13
 562 22 562 22 518 64 c 128,-1,14
 474 106 474 106 449 170 c 128,-1,15
 424 234 424 234 424 321 c 1,16,-1
 610 321 l 1,17,18
 610 222 610 222 650 177 c 128,-1,19
 690 132 690 132 758 132 c 0,20,21
 804 132 804 132 834 145.5 c 128,-1,22
 864 159 864 159 882 183.5 c 128,-1,23
 900 208 900 208 907.5 243.5 c 128,-1,24
 915 279 915 279 915 323 c 2,25,-1
 915 1456 l 1,4,-1
EndSplineSet
EndChar

StartChar: ij
Encoding: 307 307 248
Width: 1229
GlyphClass: 2
Flags: W
LayerCount: 2
Fore
SplineSet
686 1082 m 1,0,-1
 1093 1082 l 1,1,-1
 1093 -5 l 2,2,3
 1093 -109 1093 -109 1064.5 -188.5 c 128,-1,4
 1036 -268 1036 -268 981.5 -323 c 128,-1,5
 927 -378 927 -378 848.5 -406 c 128,-1,6
 770 -434 770 -434 670 -434 c 0,7,8
 613 -434 613 -434 563.5 -430.5 c 128,-1,9
 514 -427 514 -427 459 -417 c 1,10,-1
 472 -259 l 1,11,12
 489 -262 489 -262 515 -264.5 c 128,-1,13
 541 -267 541 -267 568 -268.5 c 128,-1,14
 595 -270 595 -270 619 -270.5 c 128,-1,15
 643 -271 643 -271 657 -271 c 0,16,17
 709 -271 709 -271 755 -258.5 c 128,-1,18
 801 -246 801 -246 835 -215.5 c 128,-1,19
 869 -185 869 -185 888.5 -133.5 c 128,-1,20
 908 -82 908 -82 908 -5 c 2,21,-1
 908 921 l 1,22,-1
 686 921 l 1,23,-1
 686 1082 l 1,0,-1
85 1082 m 1,24,-1
 505 1082 l 1,25,-1
 505 160 l 1,26,-1
 728 160 l 1,27,-1
 728 0 l 1,28,-1
 80 0 l 1,29,-1
 80 160 l 1,30,-1
 319 160 l 1,31,-1
 319 921 l 1,32,-1
 85 921 l 1,33,-1
 85 1082 l 1,24,-1
881 1363 m 256,34,35
 881 1408 881 1408 908 1439.5 c 128,-1,36
 935 1471 935 1471 991 1471 c 256,37,38
 1047 1471 1047 1471 1075 1439.5 c 128,-1,39
 1103 1408 1103 1408 1103 1363 c 256,40,41
 1103 1318 1103 1318 1075 1287.5 c 128,-1,42
 1047 1257 1047 1257 991 1257 c 256,43,44
 935 1257 935 1257 908 1287.5 c 128,-1,45
 881 1318 881 1318 881 1363 c 256,34,35
303 1362 m 256,46,47
 303 1407 303 1407 330.5 1438.5 c 128,-1,48
 358 1470 358 1470 414 1470 c 0,49,50
 469 1470 469 1470 497 1438.5 c 128,-1,51
 525 1407 525 1407 525 1362 c 256,52,53
 525 1317 525 1317 497 1286.5 c 128,-1,54
 469 1256 469 1256 414 1256 c 0,55,56
 358 1256 358 1256 330.5 1286.5 c 128,-1,57
 303 1317 303 1317 303 1362 c 256,46,47
EndSplineSet
EndChar

StartChar: kgreenlandic
Encoding: 312 312 253
Width: 1229
GlyphClass: 2
Flags: W
LayerCount: 2
Fore
SplineSet
521 477 m 1,0,-1
 371 344 l 1,1,-1
 371 0 l 1,2,-1
 186 0 l 1,3,-1
 186 1082 l 1,4,-1
 371 1082 l 1,5,-1
 371 551 l 1,6,-1
 481 671 l 1,7,-1
 879 1082 l 1,8,-1
 1102 1082 l 1,9,-1
 646 603 l 1,10,-1
 1138 0 l 1,11,-1
 904 0 l 1,12,-1
 521 477 l 1,0,-1
EndSplineSet
EndChar

StartChar: Lslash
Encoding: 321 321 262
Width: 1229
GlyphClass: 2
Flags: W
LayerCount: 2
Fore
SplineSet
387 845 m 1,0,-1
 649 928 l 1,1,-1
 649 766 l 1,2,-1
 387 683 l 1,3,-1
 387 157 l 1,4,-1
 1099 157 l 1,5,-1
 1099 0 l 1,6,-1
 202 0 l 1,7,-1
 202 624 l 1,8,-1
 58 579 l 1,9,-1
 58 741 l 1,10,-1
 202 786 l 1,11,-1
 202 1456 l 1,12,-1
 387 1456 l 1,13,-1
 387 845 l 1,0,-1
EndSplineSet
EndChar

StartChar: lslash
Encoding: 322 322 263
Width: 1229
GlyphClass: 2
Flags: W
LayerCount: 2
Fore
SplineSet
756 973 m 1,0,-1
 1046 1105 l 1,1,-1
 1045 943 l 1,2,-1
 756 811 l 1,3,-1
 756 160 l 1,4,-1
 1109 160 l 1,5,-1
 1109 0 l 1,6,-1
 203 0 l 1,7,-1
 203 160 l 1,8,-1
 571 160 l 1,9,-1
 571 726 l 1,10,-1
 232 572 l 1,11,-1
 232 734 l 1,12,-1
 571 888 l 1,13,-1
 571 1375 l 1,14,-1
 203 1375 l 1,15,-1
 203 1536 l 1,16,-1
 756 1536 l 1,17,-1
 756 973 l 1,0,-1
EndSplineSet
EndChar

StartChar: Eng
Encoding: 330 330 271
Width: 1229
GlyphClass: 2
Flags: W
LayerCount: 2
Fore
SplineSet
1052 1456 m 1,0,-1
 1053 -89 l 2,1,2
 1053 -171 1053 -171 1031.5 -235.5 c 128,-1,3
 1010 -300 1010 -300 969.5 -345 c 128,-1,4
 929 -390 929 -390 870 -413.5 c 128,-1,5
 811 -437 811 -437 735 -437 c 0,6,7
 705 -437 705 -437 679.5 -433 c 128,-1,8
 654 -429 654 -429 625 -419 c 1,9,-1
 639 -272 l 1,10,11
 647 -275 647 -275 660.5 -277.5 c 128,-1,12
 674 -280 674 -280 688.5 -281.5 c 128,-1,13
 703 -283 703 -283 716 -284 c 128,-1,14
 729 -285 729 -285 735 -285 c 0,15,16
 800 -285 800 -285 833.5 -230.5 c 128,-1,17
 867 -176 867 -176 867 -89 c 2,18,-1
 867 2 l 1,19,-1
 360 1069 l 1,20,-1
 360 0 l 1,21,-1
 175 0 l 1,22,-1
 175 1456 l 1,23,-1
 360 1456 l 1,24,-1
 867 389 l 1,25,-1
 867 1456 l 1,26,-1
 1052 1456 l 1,0,-1
EndSplineSet
EndChar

StartChar: eng
Encoding: 331 331 272
Width: 1229
GlyphClass: 2
Flags: W
LayerCount: 2
Fore
SplineSet
350 1082 m 1,0,-1
 362 928 l 1,1,2
 416 1009 416 1009 495.5 1055.5 c 128,-1,3
 575 1102 575 1102 681 1102 c 0,4,5
 767 1102 767 1102 835 1077 c 128,-1,6
 903 1052 903 1052 950 1000.5 c 128,-1,7
 997 949 997 949 1022 869.5 c 128,-1,8
 1047 790 1047 790 1047 682 c 2,9,-1
 1047 -89 l 2,10,11
 1047 -256 1047 -256 962.5 -346 c 128,-1,12
 878 -436 878 -436 724 -437 c 0,13,14
 694 -437 694 -437 667 -433 c 128,-1,15
 640 -429 640 -429 610 -419 c 1,16,-1
 624 -262 l 1,17,18
 633 -265 633 -265 647 -267.5 c 128,-1,19
 661 -270 661 -270 676 -271.5 c 128,-1,20
 691 -273 691 -273 704 -274 c 128,-1,21
 717 -275 717 -275 724 -275 c 0,22,23
 791 -275 791 -275 826.5 -227 c 128,-1,24
 862 -179 862 -179 862 -89 c 2,25,-1
 862 678 l 2,26,27
 862 821 862 821 803 883 c 128,-1,28
 744 945 744 945 626 945 c 0,29,30
 532 945 532 945 469 908.5 c 128,-1,31
 406 872 406 872 369 810 c 1,32,-1
 369 0 l 1,33,-1
 184 0 l 1,34,-1
 184 1082 l 1,35,-1
 350 1082 l 1,0,-1
EndSplineSet
EndChar

StartChar: OE
Encoding: 338 338 279
Width: 1229
GlyphClass: 2
Flags: W
LayerCount: 2
Fore
SplineSet
1190 0 m 1,0,-1
 762 0 l 1,1,2
 700 -7 700 -7 634 -13.5 c 128,-1,3
 568 -20 568 -20 499 -20 c 0,4,5
 402 -20 402 -20 324.5 13.5 c 128,-1,6
 247 47 247 47 192.5 113 c 128,-1,7
 138 179 138 179 108.5 276.5 c 128,-1,8
 79 374 79 374 79 502 c 2,9,-1
 79 953 l 2,10,11
 79 1081 79 1081 108 1178.5 c 128,-1,12
 137 1276 137 1276 191 1342 c 128,-1,13
 245 1408 245 1408 322.5 1442 c 128,-1,14
 400 1476 400 1476 497 1476 c 0,15,16
 566 1476 566 1476 633 1470 c 128,-1,17
 700 1464 700 1464 762 1456 c 1,18,-1
 1180 1456 l 1,19,-1
 1180 1304 l 1,20,-1
 783 1304 l 1,21,-1
 783 828 l 1,22,-1
 1127 828 l 1,23,-1
 1127 676 l 1,24,-1
 783 676 l 1,25,-1
 783 151 l 1,26,-1
 1190 151 l 1,27,-1
 1190 0 l 1,0,-1
499 131 m 0,28,29
 548 131 548 131 598 134 c 1,30,-1
 598 1320 l 1,31,32
 573 1322 573 1322 548 1323 c 128,-1,33
 523 1324 523 1324 497 1324 c 0,34,35
 440 1324 440 1324 396 1305.5 c 128,-1,36
 352 1287 352 1287 323 1244 c 128,-1,37
 294 1201 294 1201 279 1130.5 c 128,-1,38
 264 1060 264 1060 264 955 c 2,39,-1
 264 502 l 2,40,41
 264 397 264 397 279 325.5 c 128,-1,42
 294 254 294 254 324 211 c 128,-1,43
 354 168 354 168 398 149.5 c 128,-1,44
 442 131 442 131 499 131 c 0,28,29
EndSplineSet
EndChar

StartChar: oe
Encoding: 339 339 280
Width: 1229
GlyphClass: 2
Flags: W
LayerCount: 2
Fore
SplineSet
46 639 m 2,0,1
 46 744 46 744 68.5 829 c 128,-1,2
 91 914 91 914 134.5 975 c 128,-1,3
 178 1036 178 1036 242 1069 c 128,-1,4
 306 1102 306 1102 388 1102 c 0,5,6
 472 1102 472 1102 536 1068.5 c 128,-1,7
 600 1035 600 1035 644 973 c 1,8,9
 689 1036 689 1036 749 1069 c 128,-1,10
 809 1102 809 1102 879 1102 c 0,11,12
 962 1102 962 1102 1022.5 1070 c 128,-1,13
 1083 1038 1083 1038 1122.5 981 c 128,-1,14
 1162 924 1162 924 1181 846 c 128,-1,15
 1200 768 1200 768 1200 677 c 2,16,-1
 1200 496 l 1,17,-1
 742 496 l 1,18,-1
 742 432 l 2,19,20
 742 364 742 364 752 308.5 c 128,-1,21
 762 253 762 253 782 213 c 128,-1,22
 802 173 802 173 833 151.5 c 128,-1,23
 864 130 864 130 907 130 c 0,24,25
 975 130 975 130 1020.5 151 c 128,-1,26
 1066 172 1066 172 1098 200 c 1,27,-1
 1153 74 l 1,28,29
 1136 56 1136 56 1113.5 39 c 128,-1,30
 1091 22 1091 22 1061 9 c 128,-1,31
 1031 -4 1031 -4 993 -12 c 128,-1,32
 955 -20 955 -20 907 -20 c 0,33,34
 820 -20 820 -20 754.5 12.5 c 128,-1,35
 689 45 689 45 644 107 c 1,36,37
 600 46 600 46 536.5 13 c 128,-1,38
 473 -20 473 -20 390 -20 c 256,39,40
 307 -20 307 -20 243 13 c 128,-1,41
 179 46 179 46 135 106 c 128,-1,42
 91 166 91 166 68.5 251 c 128,-1,43
 46 336 46 336 46 441 c 2,44,-1
 46 639 l 2,0,1
232 441 m 2,45,46
 232 373 232 373 240.5 315.5 c 128,-1,47
 249 258 249 258 268 217 c 128,-1,48
 287 176 287 176 317 153 c 128,-1,49
 347 130 347 130 390 130 c 0,50,51
 432 130 432 130 461.5 153 c 128,-1,52
 491 176 491 176 510 217 c 128,-1,53
 529 258 529 258 538 315.5 c 128,-1,54
 547 373 547 373 547 441 c 2,55,-1
 547 639 l 2,56,57
 547 707 547 707 538 764 c 128,-1,58
 529 821 529 821 510 862.5 c 128,-1,59
 491 904 491 904 460.5 927 c 128,-1,60
 430 950 430 950 388 950 c 256,61,62
 346 950 346 950 316.5 926.5 c 128,-1,63
 287 903 287 903 268.5 862 c 128,-1,64
 250 821 250 821 241 763.5 c 128,-1,65
 232 706 232 706 232 639 c 2,66,-1
 232 441 l 2,45,46
742 647 m 1,67,-1
 1015 647 l 1,68,-1
 1015 732 l 2,69,70
 1015 774 1015 774 1007.5 813 c 128,-1,71
 1000 852 1000 852 983.5 882.5 c 128,-1,72
 967 913 967 913 941.5 931.5 c 128,-1,73
 916 950 916 950 879 950 c 0,74,75
 847 950 847 950 821.5 928.5 c 128,-1,76
 796 907 796 907 778.5 868 c 128,-1,77
 761 829 761 829 751.5 773.5 c 128,-1,78
 742 718 742 718 742 651 c 2,79,-1
 742 647 l 1,67,-1
EndSplineSet
EndChar

StartChar: Tbar
Encoding: 358 358 299
Width: 1229
GlyphClass: 2
Flags: W
LayerCount: 2
Fore
SplineSet
941 823 m 1,0,-1
 706 823 l 1,1,-1
 706 0 l 1,2,-1
 526 0 l 1,3,-1
 526 823 l 1,4,-1
 304 823 l 1,5,-1
 304 974 l 1,6,-1
 526 974 l 1,7,-1
 526 1298 l 1,8,-1
 76 1298 l 1,9,-1
 76 1456 l 1,10,-1
 1156 1456 l 1,11,-1
 1156 1298 l 1,12,-1
 706 1298 l 1,13,-1
 706 974 l 1,14,-1
 941 974 l 1,15,-1
 941 823 l 1,0,-1
EndSplineSet
Substitution2: "'smcp' Lowercase to Small Capitals lookup 0 subtable" Tbar.smcp
EndChar

StartChar: tbar
Encoding: 359 359 300
Width: 1229
GlyphClass: 2
Flags: W
LayerCount: 2
Fore
SplineSet
612 1344 m 1,0,-1
 612 1082 l 1,1,-1
 1024 1082 l 1,2,-1
 1024 939 l 1,3,-1
 612 939 l 1,4,-1
 612 753 l 1,5,-1
 846 753 l 1,6,-1
 846 602 l 1,7,-1
 612 602 l 1,8,-1
 612 351 l 2,9,10
 612 288 612 288 628 247 c 128,-1,11
 644 206 644 206 672 181.5 c 128,-1,12
 700 157 700 157 736.5 147 c 128,-1,13
 773 137 773 137 814 137 c 0,14,15
 844 137 844 137 876 140.5 c 128,-1,16
 908 144 908 144 938.5 149 c 128,-1,17
 969 154 969 154 995.5 159.5 c 128,-1,18
 1022 165 1022 165 1039 169 c 1,19,-1
 1065 38 l 1,20,21
 1042 24 1042 24 1009 13.5 c 128,-1,22
 976 3 976 3 937 -4.5 c 128,-1,23
 898 -12 898 -12 854.5 -16 c 128,-1,24
 811 -20 811 -20 768 -20 c 0,25,26
 696 -20 696 -20 633.5 0.5 c 128,-1,27
 571 21 571 21 525 65.5 c 128,-1,28
 479 110 479 110 452.5 180.5 c 128,-1,29
 426 251 426 251 426 351 c 2,30,-1
 426 602 l 1,31,-1
 209 602 l 1,32,-1
 209 753 l 1,33,-1
 426 753 l 1,34,-1
 426 939 l 1,35,-1
 142 939 l 1,36,-1
 142 1082 l 1,37,-1
 426 1082 l 1,38,-1
 426 1344 l 1,39,-1
 612 1344 l 1,0,-1
EndSplineSet
Substitution2: "'smcp' Lowercase to Small Capitals lookup 0 subtable" Tbar.smcp
EndChar

StartChar: Uogonek
Encoding: 370 370 311
Width: 1229
GlyphClass: 2
Flags: W
LayerCount: 2
Fore
SplineSet
1088 1456 m 1,0,-1
 1090 470 l 2,1,2
 1089 396 1089 396 1069.5 328 c 128,-1,3
 1050 260 1050 260 1015 202 c 128,-1,4
 980 144 980 144 930 99 c 128,-1,5
 880 54 880 54 819 25 c 1,6,7
 757 -15 757 -15 721 -64.5 c 128,-1,8
 685 -114 685 -114 685 -172 c 0,9,10
 685 -206 685 -206 703 -226.5 c 128,-1,11
 721 -247 721 -247 763 -247 c 0,12,13
 795 -248 795 -248 821.5 -238.5 c 128,-1,14
 848 -229 848 -229 864 -221 c 1,15,-1
 895 -342 l 1,16,17
 867 -358 867 -358 824.5 -372 c 128,-1,18
 782 -386 782 -386 717 -386 c 0,19,20
 676 -386 676 -386 641 -374 c 128,-1,21
 606 -362 606 -362 580 -338 c 128,-1,22
 554 -314 554 -314 539 -278.5 c 128,-1,23
 524 -243 524 -243 524 -196 c 0,24,25
 524 -151 524 -151 544 -106 c 128,-1,26
 564 -61 564 -61 602 -19 c 1,27,28
 498 -17 498 -17 413.5 22 c 128,-1,29
 329 61 329 61 268.5 127 c 128,-1,30
 208 193 208 193 174 281 c 128,-1,31
 140 369 140 369 139 470 c 2,32,-1
 141 1456 l 1,33,-1
 317 1456 l 1,34,-1
 321 470 l 2,35,36
 322 405 322 405 341.5 345 c 128,-1,37
 361 285 361 285 397.5 239 c 128,-1,38
 434 193 434 193 488.5 165 c 128,-1,39
 543 137 543 137 614 137 c 256,40,41
 685 137 685 137 739 164.5 c 128,-1,42
 793 192 793 192 829.5 238.5 c 128,-1,43
 866 285 866 285 885 345 c 128,-1,44
 904 405 904 405 906 470 c 2,45,-1
 909 1456 l 1,46,-1
 1088 1456 l 1,0,-1
EndSplineSet
Substitution2: "'smcp' Lowercase to Small Capitals lookup 0 subtable" Uogonek.smcp
EndChar

StartChar: uogonek
Encoding: 371 371 312
Width: 1229
GlyphClass: 2
Flags: W
LayerCount: 2
Fore
SplineSet
1054 0 m 1,0,1
 976 -42 976 -42 929 -97.5 c 128,-1,2
 882 -153 882 -153 882 -219 c 0,3,4
 882 -253 882 -253 900 -273.5 c 128,-1,5
 918 -294 918 -294 960 -294 c 0,6,7
 992 -295 992 -295 1018.5 -285.5 c 128,-1,8
 1045 -276 1045 -276 1061 -268 c 1,9,-1
 1092 -389 l 1,10,11
 1064 -405 1064 -405 1021.5 -419 c 128,-1,12
 979 -433 979 -433 914 -433 c 0,13,14
 873 -433 873 -433 838 -421 c 128,-1,15
 803 -409 803 -409 777 -385 c 128,-1,16
 751 -361 751 -361 736 -325.5 c 128,-1,17
 721 -290 721 -290 721 -243 c 0,18,19
 721 -177 721 -177 764.5 -111 c 128,-1,20
 808 -45 808 -45 886 9 c 1,21,-1
 876 149 l 1,22,23
 822 69 822 69 741 24.5 c 128,-1,24
 660 -20 660 -20 554 -20 c 0,25,26
 469 -20 469 -20 400 6.5 c 128,-1,27
 331 33 331 33 282 89 c 128,-1,28
 233 145 233 145 206.5 231.5 c 128,-1,29
 180 318 180 318 180 439 c 2,30,-1
 180 1082 l 1,31,-1
 365 1082 l 1,32,-1
 365 437 l 2,33,34
 365 349 365 349 379 291 c 128,-1,35
 393 233 393 233 421 198.5 c 128,-1,36
 449 164 449 164 489.5 150 c 128,-1,37
 530 136 530 136 583 136 c 0,38,39
 696 136 696 136 765.5 182 c 128,-1,40
 835 228 835 228 869 306 c 1,41,-1
 869 1082 l 1,42,-1
 1055 1082 l 1,43,-1
 1055 0 l 1,44,-1
 1054 0 l 1,0,1
EndSplineSet
Substitution2: "'smcp' Lowercase to Small Capitals lookup 0 subtable" Uogonek.smcp
EndChar

StartChar: longs
Encoding: 383 383 324
Width: 1229
GlyphClass: 2
Flags: W
LayerCount: 2
Fore
SplineSet
456 0 m 1,0,-1
 456 1126 l 2,1,2
 456 1235 456 1235 486.5 1319.5 c 128,-1,3
 517 1404 517 1404 573.5 1461.5 c 128,-1,4
 630 1519 630 1519 710 1549 c 128,-1,5
 790 1579 790 1579 890 1579 c 0,6,7
 927 1579 927 1579 962.5 1573 c 128,-1,8
 998 1567 998 1567 1035 1558 c 1,9,-1
 1012 1416 l 1,10,11
 994 1421 994 1421 971 1424 c 128,-1,12
 948 1427 948 1427 919 1427 c 0,13,14
 851 1427 851 1427 799.5 1406 c 128,-1,15
 748 1385 748 1385 713 1346 c 128,-1,16
 678 1307 678 1307 660 1251 c 128,-1,17
 642 1195 642 1195 642 1126 c 2,18,-1
 642 0 l 1,19,-1
 456 0 l 1,0,-1
EndSplineSet
EndChar

StartChar: florin
Encoding: 402 402 325
Width: 1229
GlyphClass: 2
Flags: W
LayerCount: 2
Fore
SplineSet
895 939 m 1,0,-1
 683 939 l 1,1,-1
 683 -52 l 2,2,3
 683 -145 683 -145 658 -217 c 128,-1,4
 633 -289 633 -289 586.5 -337.5 c 128,-1,5
 540 -386 540 -386 472.5 -411.5 c 128,-1,6
 405 -437 405 -437 320 -437 c 0,7,8
 279 -437 279 -437 239 -429 c 128,-1,9
 199 -421 199 -421 160 -401 c 1,10,-1
 174 -253 l 1,11,12
 185 -261 185 -261 205.5 -266.5 c 128,-1,13
 226 -272 226 -272 248 -276.5 c 128,-1,14
 270 -281 270 -281 289.5 -283 c 128,-1,15
 309 -285 309 -285 320 -285 c 0,16,17
 405 -285 405 -285 451 -223 c 128,-1,18
 497 -161 497 -161 498 -52 c 2,19,-1
 498 939 l 1,20,-1
 321 939 l 1,21,-1
 321 1082 l 1,22,-1
 498 1082 l 1,23,-1
 498 1181 l 2,24,25
 498 1277 498 1277 527 1351.5 c 128,-1,26
 556 1426 556 1426 610.5 1476.5 c 128,-1,27
 665 1527 665 1527 742 1553 c 128,-1,28
 819 1579 819 1579 915 1579 c 0,29,30
 962 1579 962 1579 1006.5 1568 c 128,-1,31
 1051 1557 1051 1557 1098 1540 c 1,32,-1
 1075 1393 l 1,33,34
 1049 1406 1049 1406 1013.5 1414 c 128,-1,35
 978 1422 978 1422 938 1422 c 0,36,37
 808 1421 808 1421 746 1359.5 c 128,-1,38
 684 1298 684 1298 683 1181 c 2,39,-1
 683 1082 l 1,40,-1
 895 1082 l 1,41,-1
 895 939 l 1,0,-1
EndSplineSet
EndChar

StartChar: Ohorn
Encoding: 416 416 326
Width: 1229
GlyphClass: 2
Flags: W
LayerCount: 2
Fore
SplineSet
1114 644 m 2,0,1
 1113 566 1113 566 1100.5 486.5 c 128,-1,2
 1088 407 1088 407 1062 333 c 128,-1,3
 1036 259 1036 259 995.5 195 c 128,-1,4
 955 131 955 131 899 83 c 128,-1,5
 843 35 843 35 770.5 7.5 c 128,-1,6
 698 -20 698 -20 608 -20 c 256,7,8
 518 -20 518 -20 445.5 7.5 c 128,-1,9
 373 35 373 35 317 83 c 128,-1,10
 261 131 261 131 220 195.5 c 128,-1,11
 179 260 179 260 152.5 334 c 128,-1,12
 126 408 126 408 113 487 c 128,-1,13
 100 566 100 566 99 644 c 2,14,-1
 99 810 l 2,15,16
 100 888 100 888 112.5 967.5 c 128,-1,17
 125 1047 125 1047 151.5 1121 c 128,-1,18
 178 1195 178 1195 218.5 1259.5 c 128,-1,19
 259 1324 259 1324 315 1372.5 c 128,-1,20
 371 1421 371 1421 443.5 1448.5 c 128,-1,21
 516 1476 516 1476 606 1476 c 0,22,23
 719 1476 719 1476 803.5 1434 c 128,-1,24
 888 1392 888 1392 949 1321 c 1,25,26
 1003 1339 1003 1339 1028 1393 c 128,-1,27
 1053 1447 1053 1447 1054 1530 c 1,28,-1
 1221 1530 l 1,29,30
 1222 1403 1222 1403 1172 1319 c 128,-1,31
 1122 1235 1122 1235 1028 1200 c 1,32,33
 1072 1112 1072 1112 1092 1011 c 128,-1,34
 1112 910 1112 910 1114 810 c 2,35,-1
 1114 644 l 2,0,1
931 812 m 2,36,37
 930 864 930 864 924 920.5 c 128,-1,38
 918 977 918 977 903.5 1032.5 c 128,-1,39
 889 1088 889 1088 865 1138.5 c 128,-1,40
 841 1189 841 1189 805 1227.5 c 128,-1,41
 769 1266 769 1266 720 1288.5 c 128,-1,42
 671 1311 671 1311 606 1311 c 0,43,44
 542 1311 542 1311 493 1288 c 128,-1,45
 444 1265 444 1265 408 1226.5 c 128,-1,46
 372 1188 372 1188 348 1137.5 c 128,-1,47
 324 1087 324 1087 309.5 1031.5 c 128,-1,48
 295 976 295 976 288.5 919.5 c 128,-1,49
 282 863 282 863 281 812 c 2,50,-1
 281 644 l 2,51,52
 282 593 282 593 288.5 536 c 128,-1,53
 295 479 295 479 310 423.5 c 128,-1,54
 325 368 325 368 349 317 c 128,-1,55
 373 266 373 266 409 227.5 c 128,-1,56
 445 189 445 189 494 166 c 128,-1,57
 543 143 543 143 608 143 c 256,58,59
 673 143 673 143 722.5 166 c 128,-1,60
 772 189 772 189 807.5 227.5 c 128,-1,61
 843 266 843 266 866.5 316.5 c 128,-1,62
 890 367 890 367 904.5 422.5 c 128,-1,63
 919 478 919 478 924.5 535 c 128,-1,64
 930 592 930 592 931 644 c 2,65,-1
 931 812 l 2,36,37
EndSplineSet
EndChar

StartChar: ohorn
Encoding: 417 417 327
Width: 1229
GlyphClass: 2
Flags: W
LayerCount: 2
Fore
SplineSet
119 551 m 2,0,1
 119 668 119 668 153 768.5 c 128,-1,2
 187 869 187 869 250.5 943 c 128,-1,3
 314 1017 314 1017 405 1059.5 c 128,-1,4
 496 1102 496 1102 610 1102 c 0,5,6
 706 1102 706 1102 785 1072.5 c 128,-1,7
 864 1043 864 1043 925 990 c 1,8,9
 979 1007 979 1007 1004.5 1059 c 128,-1,10
 1030 1111 1030 1111 1030 1194 c 1,11,-1
 1198 1194 l 1,12,13
 1197 1073 1197 1073 1151.5 992 c 128,-1,14
 1106 911 1106 911 1020 875 c 1,15,16
 1061 807 1061 807 1082 725 c 128,-1,17
 1103 643 1103 643 1103 551 c 2,18,-1
 1103 529 l 2,19,20
 1103 412 1103 412 1069 312 c 128,-1,21
 1035 212 1035 212 971.5 138 c 128,-1,22
 908 64 908 64 817 22 c 128,-1,23
 726 -20 726 -20 612 -20 c 0,24,25
 497 -20 497 -20 405.5 22 c 128,-1,26
 314 64 314 64 250.5 138 c 128,-1,27
 187 212 187 212 153 312 c 128,-1,28
 119 412 119 412 119 529 c 2,29,-1
 119 551 l 2,0,1
304 529 m 2,30,31
 304 449 304 449 323 376.5 c 128,-1,32
 342 304 342 304 380.5 249 c 128,-1,33
 419 194 419 194 477 162 c 128,-1,34
 535 130 535 130 612 130 c 0,35,36
 688 130 688 130 745.5 162 c 128,-1,37
 803 194 803 194 841.5 249 c 128,-1,38
 880 304 880 304 899 376.5 c 128,-1,39
 918 449 918 449 918 529 c 2,40,-1
 918 551 l 2,41,42
 918 630 918 630 898.5 702.5 c 128,-1,43
 879 775 879 775 840.5 830 c 128,-1,44
 802 885 802 885 744.5 917.5 c 128,-1,45
 687 950 687 950 610 950 c 256,46,47
 533 950 533 950 476 917.5 c 128,-1,48
 419 885 419 885 380.5 830 c 128,-1,49
 342 775 342 775 323 702.5 c 128,-1,50
 304 630 304 630 304 551 c 2,51,-1
 304 529 l 2,30,31
EndSplineSet
EndChar

StartChar: Uhorn
Encoding: 431 431 328
Width: 1229
GlyphClass: 2
Flags: W
LayerCount: 2
Fore
SplineSet
1088 1456 m 1,0,-1
 1088 1272 l 1,1,2
 1133 1278 1133 1278 1163 1295 c 128,-1,3
 1193 1312 1193 1312 1211 1341.5 c 128,-1,4
 1229 1371 1229 1371 1236.5 1413.5 c 128,-1,5
 1244 1456 1244 1456 1244 1512 c 1,6,-1
 1411 1512 l 1,7,8
 1411 1332 1411 1332 1333 1239.5 c 128,-1,9
 1255 1147 1255 1147 1089 1136 c 1,10,-1
 1090 470 l 2,11,12
 1088 368 1088 368 1053 279 c 128,-1,13
 1018 190 1018 190 955 123.5 c 128,-1,14
 892 57 892 57 805 18.5 c 128,-1,15
 718 -20 718 -20 614 -20 c 0,16,17
 508 -20 508 -20 421 18 c 128,-1,18
 334 56 334 56 272 122.5 c 128,-1,19
 210 189 210 189 175 278.5 c 128,-1,20
 140 368 140 368 139 470 c 2,21,-1
 141 1456 l 1,22,-1
 317 1456 l 1,23,-1
 321 470 l 2,24,25
 322 405 322 405 341.5 345 c 128,-1,26
 361 285 361 285 397.5 239 c 128,-1,27
 434 193 434 193 488.5 165 c 128,-1,28
 543 137 543 137 614 137 c 256,29,30
 685 137 685 137 739 164.5 c 128,-1,31
 793 192 793 192 829.5 238.5 c 128,-1,32
 866 285 866 285 885 345 c 128,-1,33
 904 405 904 405 906 470 c 2,34,-1
 909 1456 l 1,35,-1
 1088 1456 l 1,0,-1
EndSplineSet
EndChar

StartChar: uhorn
Encoding: 432 432 329
Width: 1229
GlyphClass: 2
Flags: W
LayerCount: 2
Fore
SplineSet
1343 1171 m 1,0,1
 1342 1001 1342 1001 1272 911 c 128,-1,2
 1202 821 1202 821 1055 802 c 1,3,-1
 1055 0 l 1,4,-1
 887 0 l 1,5,-1
 876 149 l 1,6,7
 822 69 822 69 741 24.5 c 128,-1,8
 660 -20 660 -20 554 -20 c 0,9,10
 469 -20 469 -20 400 6.5 c 128,-1,11
 331 33 331 33 282 89 c 128,-1,12
 233 145 233 145 206.5 231.5 c 128,-1,13
 180 318 180 318 180 439 c 2,14,-1
 180 1082 l 1,15,-1
 365 1082 l 1,16,-1
 365 437 l 2,17,18
 365 349 365 349 379 291 c 128,-1,19
 393 233 393 233 421 198.5 c 128,-1,20
 449 164 449 164 489.5 150 c 128,-1,21
 530 136 530 136 583 136 c 0,22,23
 696 136 696 136 765.5 182 c 128,-1,24
 835 228 835 228 869 306 c 1,25,-1
 869 1082 l 1,26,-1
 1055 1082 l 1,27,-1
 1055 941 l 1,28,29
 1123 959 1123 959 1149 1014.5 c 128,-1,30
 1175 1070 1175 1070 1175 1171 c 1,31,-1
 1343 1171 l 1,0,1
EndSplineSet
EndChar

StartChar: uni0237
Encoding: 567 567 341
Width: 1229
GlyphClass: 2
Flags: W
LayerCount: 2
Fore
SplineSet
260 1082 m 1,0,-1
 810 1082 l 1,1,-1
 810 -7 l 2,2,3
 810 -111 810 -111 781.5 -191 c 128,-1,4
 753 -271 753 -271 698.5 -325.5 c 128,-1,5
 644 -380 644 -380 565.5 -408.5 c 128,-1,6
 487 -437 487 -437 387 -437 c 0,7,8
 330 -437 330 -437 280.5 -433.5 c 128,-1,9
 231 -430 231 -430 176 -420 c 1,10,-1
 189 -268 l 1,11,12
 206 -271 206 -271 231.5 -273.5 c 128,-1,13
 257 -276 257 -276 284 -277.5 c 128,-1,14
 311 -279 311 -279 335.5 -279.5 c 128,-1,15
 360 -280 360 -280 374 -280 c 0,16,17
 426 -280 426 -280 471.5 -266.5 c 128,-1,18
 517 -253 517 -253 551 -221 c 128,-1,19
 585 -189 585 -189 604.5 -136.5 c 128,-1,20
 624 -84 624 -84 624 -7 c 2,21,-1
 624 921 l 1,22,-1
 260 921 l 1,23,-1
 260 1082 l 1,0,-1
EndSplineSet
EndChar

StartChar: schwa
Encoding: 601 601 342
Width: 1229
GlyphClass: 2
Flags: W
LayerCount: 2
Fore
SplineSet
609 1103 m 0,0,1
 727 1103 727 1103 821.5 1062.5 c 128,-1,2
 916 1022 916 1022 982 949.5 c 128,-1,3
 1048 877 1048 877 1083.5 778 c 128,-1,4
 1119 679 1119 679 1119 562 c 2,5,-1
 1119 518 l 2,6,7
 1119 401 1119 401 1080 302 c 128,-1,8
 1041 203 1041 203 974.5 131.5 c 128,-1,9
 908 60 908 60 820.5 20 c 128,-1,10
 733 -20 733 -20 637 -19 c 0,11,12
 520 -19 520 -19 433.5 17 c 128,-1,13
 347 53 347 53 290 117 c 128,-1,14
 233 181 233 181 205 269.5 c 128,-1,15
 177 358 177 358 177 463 c 2,16,-1
 177 584 l 1,17,-1
 933 584 l 1,18,19
 930 660 930 660 908 727 c 128,-1,20
 886 794 886 794 845.5 844 c 128,-1,21
 805 894 805 894 746 923 c 128,-1,22
 687 952 687 952 609 952 c 0,23,24
 496 952 496 952 415.5 921 c 128,-1,25
 335 890 335 890 281 844 c 1,26,-1
 208 969 l 1,27,28
 235 994 235 994 272.5 1018 c 128,-1,29
 310 1042 310 1042 359.5 1061 c 128,-1,30
 409 1080 409 1080 471.5 1091.5 c 128,-1,31
 534 1103 534 1103 609 1103 c 0,0,1
637 132 m 0,32,33
 694 132 694 132 742.5 155 c 128,-1,34
 791 178 791 178 828.5 218.5 c 128,-1,35
 866 259 866 259 891 314 c 128,-1,36
 916 369 916 369 927 433 c 1,37,-1
 362 433 l 1,38,-1
 362 407 l 2,39,40
 362 353 362 353 378.5 303 c 128,-1,41
 395 253 395 253 428.5 215 c 128,-1,42
 462 177 462 177 514 154.5 c 128,-1,43
 566 132 566 132 637 132 c 0,32,33
EndSplineSet
EndChar

StartChar: circumflex
Encoding: 710 710 344
Width: 1229
GlyphClass: 2
Flags: W
LayerCount: 2
Fore
SplineSet
798 1277 m 1,0,-1
 798 1252 l 1,1,-1
 644 1252 l 1,2,-1
 494 1403 l 1,3,-1
 345 1252 l 1,4,-1
 193 1252 l 1,5,-1
 193 1278 l 1,6,-1
 438 1517 l 1,7,-1
 550 1517 l 1,8,-1
 798 1277 l 1,0,-1
EndSplineSet
EndChar

StartChar: caron
Encoding: 711 711 345
Width: 1229
GlyphClass: 2
Flags: W
LayerCount: 2
Fore
SplineSet
612 1365 m 1,0,-1
 763 1517 l 1,1,-1
 923 1517 l 1,2,-1
 923 1499 l 1,3,-1
 669 1251 l 1,4,-1
 555 1251 l 1,5,-1
 304 1496 l 1,6,-1
 304 1517 l 1,7,-1
 461 1517 l 1,8,-1
 612 1365 l 1,0,-1
EndSplineSet
EndChar

StartChar: breve
Encoding: 728 728 346
Width: 1229
GlyphClass: 2
Flags: W
LayerCount: 2
Fore
SplineSet
913 1458 m 1,0,1
 913 1399 913 1399 892 1349.5 c 128,-1,2
 871 1300 871 1300 832 1265 c 128,-1,3
 793 1230 793 1230 738 1210.5 c 128,-1,4
 683 1191 683 1191 615 1191 c 0,5,6
 546 1191 546 1191 491 1210.5 c 128,-1,7
 436 1230 436 1230 397 1265 c 128,-1,8
 358 1300 358 1300 336.5 1349.5 c 128,-1,9
 315 1399 315 1399 315 1458 c 1,10,-1
 465 1458 l 1,11,12
 465 1428 465 1428 474 1400.5 c 128,-1,13
 483 1373 483 1373 501 1353 c 128,-1,14
 519 1333 519 1333 547 1321 c 128,-1,15
 575 1309 575 1309 615 1309 c 0,16,17
 654 1309 654 1309 681.5 1321 c 128,-1,18
 709 1333 709 1333 727 1353 c 128,-1,19
 745 1373 745 1373 754 1400.5 c 128,-1,20
 763 1428 763 1428 763 1458 c 1,21,-1
 913 1458 l 1,0,1
EndSplineSet
EndChar

StartChar: dotaccent
Encoding: 729 729 347
Width: 1229
GlyphClass: 2
Flags: W
LayerCount: 2
Fore
SplineSet
498 1358 m 0,0,1
 498 1406 498 1406 527 1438 c 128,-1,2
 556 1470 556 1470 613 1470 c 256,3,4
 670 1470 670 1470 699 1438 c 128,-1,5
 728 1406 728 1406 728 1358 c 0,6,7
 728 1312 728 1312 699 1280.5 c 128,-1,8
 670 1249 670 1249 613 1249 c 256,9,10
 556 1249 556 1249 527 1280.5 c 128,-1,11
 498 1312 498 1312 498 1358 c 0,0,1
EndSplineSet
EndChar

StartChar: ring
Encoding: 730 730 348
Width: 1229
GlyphClass: 2
Flags: W
LayerCount: 2
Fore
SplineSet
410 1312 m 256,0,1
 410 1355 410 1355 426.5 1391.5 c 128,-1,2
 443 1428 443 1428 470.5 1454.5 c 128,-1,3
 498 1481 498 1481 535.5 1496 c 128,-1,4
 573 1511 573 1511 615 1511 c 256,5,6
 657 1511 657 1511 693.5 1496 c 128,-1,7
 730 1481 730 1481 757.5 1454.5 c 128,-1,8
 785 1428 785 1428 801 1391.5 c 128,-1,9
 817 1355 817 1355 817 1312 c 256,10,11
 817 1269 817 1269 801 1233 c 128,-1,12
 785 1197 785 1197 757.5 1171.5 c 128,-1,13
 730 1146 730 1146 693.5 1132 c 128,-1,14
 657 1118 657 1118 615 1118 c 256,15,16
 573 1118 573 1118 535.5 1132 c 128,-1,17
 498 1146 498 1146 470.5 1171.5 c 128,-1,18
 443 1197 443 1197 426.5 1233 c 128,-1,19
 410 1269 410 1269 410 1312 c 256,0,1
509 1312 m 0,20,21
 509 1290 509 1290 517.5 1271 c 128,-1,22
 526 1252 526 1252 540.5 1237.5 c 128,-1,23
 555 1223 555 1223 574 1215 c 128,-1,24
 593 1207 593 1207 615 1207 c 256,25,26
 637 1207 637 1207 655.5 1215 c 128,-1,27
 674 1223 674 1223 688 1237 c 128,-1,28
 702 1251 702 1251 710 1270 c 128,-1,29
 718 1289 718 1289 718 1312 c 0,30,31
 718 1360 718 1360 688.5 1390.5 c 128,-1,32
 659 1421 659 1421 615 1421 c 256,33,34
 571 1421 571 1421 540 1390.5 c 128,-1,35
 509 1360 509 1360 509 1312 c 0,20,21
EndSplineSet
EndChar

StartChar: ogonek
Encoding: 731 731 349
Width: 1229
GlyphClass: 2
Flags: W
LayerCount: 2
Fore
SplineSet
731 0 m 1,0,1
 653 -42 653 -42 606 -97.5 c 128,-1,2
 559 -153 559 -153 559 -219 c 0,3,4
 559 -253 559 -253 577 -273.5 c 128,-1,5
 595 -294 595 -294 637 -294 c 0,6,7
 669 -295 669 -295 695.5 -285.5 c 128,-1,8
 722 -276 722 -276 738 -268 c 1,9,-1
 769 -389 l 1,10,11
 741 -405 741 -405 698.5 -419 c 128,-1,12
 656 -433 656 -433 591 -433 c 0,13,14
 550 -433 550 -433 515 -421 c 128,-1,15
 480 -409 480 -409 454 -385 c 128,-1,16
 428 -361 428 -361 413 -325.5 c 128,-1,17
 398 -290 398 -290 398 -243 c 0,18,19
 398 -202 398 -202 415.5 -160.5 c 128,-1,20
 433 -119 433 -119 465 -80 c 128,-1,21
 497 -41 497 -41 542.5 -6 c 128,-1,22
 588 29 588 29 644 56 c 1,23,-1
 731 0 l 1,0,1
EndSplineSet
EndChar

StartChar: tilde
Encoding: 732 732 350
Width: 1229
GlyphClass: 2
Flags: W
LayerCount: 2
Fore
SplineSet
826 1491 m 1,0,1
 826 1446 826 1446 810.5 1405 c 128,-1,2
 795 1364 795 1364 768 1333.5 c 128,-1,3
 741 1303 741 1303 703 1285 c 128,-1,4
 665 1267 665 1267 620 1267 c 0,5,6
 587 1267 587 1267 561 1274 c 128,-1,7
 535 1281 535 1281 513.5 1291.5 c 128,-1,8
 492 1302 492 1302 473 1314.5 c 128,-1,9
 454 1327 454 1327 434.5 1337.5 c 128,-1,10
 415 1348 415 1348 393 1355 c 128,-1,11
 371 1362 371 1362 344 1362 c 0,12,13
 300 1362 300 1362 271.5 1329.5 c 128,-1,14
 243 1297 243 1297 242 1251 c 1,15,-1
 138 1275 l 1,16,17
 138 1320 138 1320 153.5 1361.5 c 128,-1,18
 169 1403 169 1403 196 1434.5 c 128,-1,19
 223 1466 223 1466 260.5 1485 c 128,-1,20
 298 1504 298 1504 344 1504 c 0,21,22
 386 1504 386 1504 419.5 1489 c 128,-1,23
 453 1474 453 1474 484.5 1456.5 c 128,-1,24
 516 1439 516 1439 548.5 1424 c 128,-1,25
 581 1409 581 1409 620 1409 c 0,26,27
 641 1409 641 1409 660 1418 c 128,-1,28
 679 1427 679 1427 692.5 1442 c 128,-1,29
 706 1457 706 1457 714.5 1477.5 c 128,-1,30
 723 1498 723 1498 723 1521 c 1,31,-1
 826 1491 l 1,0,1
EndSplineSet
EndChar

StartChar: hungarumlaut
Encoding: 733 733 351
Width: 1229
GlyphClass: 2
Flags: W
LayerCount: 2
Fore
SplineSet
757 1519 m 1,0,-1
 982 1519 l 1,1,-1
 677 1250 l 1,2,-1
 508 1250 l 1,3,-1
 757 1519 l 1,0,-1
434 1519 m 1,4,-1
 641 1519 l 1,5,-1
 396 1250 l 1,6,-1
 246 1250 l 1,7,-1
 434 1519 l 1,4,-1
EndSplineSet
EndChar

StartChar: uni02F3
Encoding: 755 755 352
Width: 1229
GlyphClass: 2
Flags: W
LayerCount: 2
Fore
SplineSet
429 -233 m 256,0,1
 429 -201 429 -201 441 -173.5 c 128,-1,2
 453 -146 453 -146 474 -126.5 c 128,-1,3
 495 -107 495 -107 523 -96 c 128,-1,4
 551 -85 551 -85 583 -85 c 0,5,6
 614 -85 614 -85 641 -96 c 128,-1,7
 668 -107 668 -107 688.5 -126.5 c 128,-1,8
 709 -146 709 -146 721 -173.5 c 128,-1,9
 733 -201 733 -201 733 -233 c 256,10,11
 733 -265 733 -265 721 -292 c 128,-1,12
 709 -319 709 -319 688.5 -338 c 128,-1,13
 668 -357 668 -357 641 -367.5 c 128,-1,14
 614 -378 614 -378 583 -378 c 0,15,16
 551 -378 551 -378 523 -367.5 c 128,-1,17
 495 -357 495 -357 474 -338 c 128,-1,18
 453 -319 453 -319 441 -292 c 128,-1,19
 429 -265 429 -265 429 -233 c 256,0,1
515 -233 m 0,20,21
 516 -260 516 -260 535.5 -279 c 128,-1,22
 555 -298 555 -298 583 -298 c 0,23,24
 609 -298 609 -298 628 -279.5 c 128,-1,25
 647 -261 647 -261 647 -233 c 0,26,27
 647 -204 647 -204 628 -184.5 c 128,-1,28
 609 -165 609 -165 583 -165 c 0,29,30
 555 -165 555 -165 535.5 -184.5 c 128,-1,31
 516 -204 516 -204 515 -233 c 0,20,21
EndSplineSet
EndChar

StartChar: gravecomb
Encoding: 768 768 353
Width: 1106
GlyphClass: 2
Flags: W
LayerCount: 2
Fore
SplineSet
-517 1212 m 1,0,-1
 -643 1212 l 1,1,-1
 -822 1558 l 1,2,-1
 -644 1558 l 1,3,-1
 -517 1212 l 1,0,-1
EndSplineSet
EndChar

StartChar: acutecomb
Encoding: 769 769 354
Width: 1106
GlyphClass: 2
Flags: W
LayerCount: 2
Fore
SplineSet
-534 1559 m 1,0,-1
 -362 1559 l 1,1,-1
 -548 1212 l 1,2,-1
 -664 1212 l 1,3,-1
 -534 1559 l 1,0,-1
EndSplineSet
EndChar

StartChar: hook
Encoding: 777 777 356
Width: 1106
GlyphClass: 2
Flags: W
LayerCount: 2
Fore
SplineSet
-657 1241 m 1,0,-1
 -658 1394 l 1,1,2
 -587 1399 -587 1399 -550 1413 c 128,-1,3
 -513 1427 -513 1427 -513 1468 c 0,4,5
 -513 1490 -513 1490 -526.5 1505 c 128,-1,6
 -540 1520 -540 1520 -563 1529 c 128,-1,7
 -586 1538 -586 1538 -616 1542 c 128,-1,8
 -646 1546 -646 1546 -679 1546 c 1,9,-1
 -672 1652 l 1,10,11
 -528 1652 -528 1652 -448.5 1602 c 128,-1,12
 -369 1552 -369 1552 -369 1464 c 0,13,14
 -369 1426 -369 1426 -382.5 1399 c 128,-1,15
 -396 1372 -396 1372 -418 1354 c 128,-1,16
 -440 1336 -440 1336 -468 1326 c 128,-1,17
 -496 1316 -496 1316 -524 1312 c 1,18,-1
 -525 1241 l 1,19,-1
 -657 1241 l 1,0,-1
EndSplineSet
EndChar

StartChar: uni030F
Encoding: 783 783 357
Width: 1106
GlyphClass: 2
Flags: W
LayerCount: 2
Fore
SplineSet
-544 1252 m 1,0,-1
 -713 1252 l 1,1,-1
 -1019 1518 l 1,2,-1
 -794 1518 l 1,3,-1
 -544 1252 l 1,0,-1
-283 1252 m 1,4,-1
 -433 1252 l 1,5,-1
 -679 1518 l 1,6,-1
 -472 1518 l 1,7,-1
 -283 1252 l 1,4,-1
EndSplineSet
EndChar

StartChar: dotbelow
Encoding: 803 803 358
Width: 1106
GlyphClass: 2
Flags: W
LayerCount: 2
Fore
SplineSet
-729 -235 m 0,0,1
 -729 -187 -729 -187 -700 -155 c 128,-1,2
 -671 -123 -671 -123 -614 -123 c 256,3,4
 -557 -123 -557 -123 -528 -155 c 128,-1,5
 -499 -187 -499 -187 -499 -235 c 0,6,7
 -499 -281 -499 -281 -528 -312.5 c 128,-1,8
 -557 -344 -557 -344 -614 -344 c 256,9,10
 -671 -344 -671 -344 -700 -312.5 c 128,-1,11
 -729 -281 -729 -281 -729 -235 c 0,0,1
EndSplineSet
EndChar

StartChar: tonos
Encoding: 900 900 359
Width: 1229
GlyphClass: 2
Flags: W
LayerCount: 2
Fore
SplineSet
618 1658 m 1,0,-1
 813 1658 l 1,1,-1
 643 1271 l 1,2,-1
 553 1271 l 1,3,-1
 618 1658 l 1,0,-1
EndSplineSet
EndChar

StartChar: dieresistonos
Encoding: 901 901 360
Width: 1229
GlyphClass: 2
Flags: W
LayerCount: 2
Fore
SplineSet
628 1727 m 1,0,-1
 833 1727 l 1,1,-1
 715 1463 l 1,2,-1
 580 1463 l 1,3,-1
 628 1727 l 1,0,-1
275 1360 m 0,4,5
 275 1408 275 1408 303.5 1440 c 128,-1,6
 332 1472 332 1472 389 1472 c 256,7,8
 446 1472 446 1472 475 1440 c 128,-1,9
 504 1408 504 1408 504 1360 c 0,10,11
 504 1314 504 1314 475 1282 c 128,-1,12
 446 1250 446 1250 389 1250 c 256,13,14
 332 1250 332 1250 303.5 1282 c 128,-1,15
 275 1314 275 1314 275 1360 c 0,4,5
782 1360 m 0,16,17
 782 1408 782 1408 810.5 1440 c 128,-1,18
 839 1472 839 1472 896 1472 c 256,19,20
 953 1472 953 1472 982 1440 c 128,-1,21
 1011 1408 1011 1408 1011 1360 c 0,22,23
 1011 1314 1011 1314 982 1282 c 128,-1,24
 953 1250 953 1250 896 1250 c 256,25,26
 839 1250 839 1250 810.5 1282 c 128,-1,27
 782 1314 782 1314 782 1360 c 0,16,17
EndSplineSet
EndChar

StartChar: Gamma
Encoding: 915 915 372
Width: 1229
GlyphClass: 2
Flags: W
LayerCount: 2
Fore
SplineSet
1072 1304 m 1,0,-1
 367 1304 l 1,1,-1
 367 0 l 1,2,-1
 181 0 l 1,3,-1
 181 1456 l 1,4,-1
 1072 1456 l 1,5,-1
 1072 1304 l 1,0,-1
EndSplineSet
EndChar

StartChar: Delta
Encoding: 916 916 373
AltUni2: 002206.ffffffff.0 002206.ffffffff.0
Width: 1229
GlyphClass: 2
Flags: W
LayerCount: 2
Fore
SplineSet
564 1456 m 1,0,-1
 724 1456 l 1,1,-1
 1204 0 l 1,2,-1
 46 0 l 1,3,-1
 564 1456 l 1,0,-1
286 151 m 1,4,-1
 967 151 l 1,5,-1
 641 1203 l 1,6,-1
 286 151 l 1,4,-1
EndSplineSet
EndChar

StartChar: Theta
Encoding: 920 920 377
Width: 1229
GlyphClass: 2
Flags: W
LayerCount: 2
Fore
SplineSet
845 660 m 1,0,-1
 381 660 l 1,1,-1
 381 811 l 1,2,-1
 845 811 l 1,3,-1
 845 660 l 1,0,-1
1121 644 m 2,4,5
 1120 566 1120 566 1107.5 486.5 c 128,-1,6
 1095 407 1095 407 1069 333 c 128,-1,7
 1043 259 1043 259 1002.5 195 c 128,-1,8
 962 131 962 131 906 83 c 128,-1,9
 850 35 850 35 777.5 7.5 c 128,-1,10
 705 -20 705 -20 615 -20 c 256,11,12
 525 -20 525 -20 452.5 7.5 c 128,-1,13
 380 35 380 35 324 83 c 128,-1,14
 268 131 268 131 227 195.5 c 128,-1,15
 186 260 186 260 159.5 334 c 128,-1,16
 133 408 133 408 120 487 c 128,-1,17
 107 566 107 566 106 644 c 2,18,-1
 106 810 l 2,19,20
 107 888 107 888 119.5 967.5 c 128,-1,21
 132 1047 132 1047 158.5 1121 c 128,-1,22
 185 1195 185 1195 225.5 1259.5 c 128,-1,23
 266 1324 266 1324 322 1372.5 c 128,-1,24
 378 1421 378 1421 450.5 1448.5 c 128,-1,25
 523 1476 523 1476 613 1476 c 256,26,27
 703 1476 703 1476 776 1448.5 c 128,-1,28
 849 1421 849 1421 905 1373 c 128,-1,29
 961 1325 961 1325 1001.5 1260.5 c 128,-1,30
 1042 1196 1042 1196 1068.5 1122 c 128,-1,31
 1095 1048 1095 1048 1107.5 968 c 128,-1,32
 1120 888 1120 888 1121 810 c 2,33,-1
 1121 644 l 2,4,5
938 812 m 2,34,35
 937 864 937 864 931 920.5 c 128,-1,36
 925 977 925 977 910.5 1032.5 c 128,-1,37
 896 1088 896 1088 872 1138.5 c 128,-1,38
 848 1189 848 1189 812 1227.5 c 128,-1,39
 776 1266 776 1266 727 1288.5 c 128,-1,40
 678 1311 678 1311 613 1311 c 0,41,42
 549 1311 549 1311 500 1288 c 128,-1,43
 451 1265 451 1265 415 1226.5 c 128,-1,44
 379 1188 379 1188 355 1137.5 c 128,-1,45
 331 1087 331 1087 316.5 1031.5 c 128,-1,46
 302 976 302 976 295.5 919.5 c 128,-1,47
 289 863 289 863 288 812 c 2,48,-1
 288 644 l 2,49,50
 289 593 289 593 295.5 536 c 128,-1,51
 302 479 302 479 317 423.5 c 128,-1,52
 332 368 332 368 356 317 c 128,-1,53
 380 266 380 266 416 227.5 c 128,-1,54
 452 189 452 189 501 166 c 128,-1,55
 550 143 550 143 615 143 c 256,56,57
 680 143 680 143 729.5 166 c 128,-1,58
 779 189 779 189 814.5 227.5 c 128,-1,59
 850 266 850 266 873.5 316.5 c 128,-1,60
 897 367 897 367 911.5 422.5 c 128,-1,61
 926 478 926 478 931.5 535 c 128,-1,62
 937 592 937 592 938 644 c 2,63,-1
 938 812 l 2,34,35
EndSplineSet
EndChar

StartChar: Lambda
Encoding: 923 923 380
Width: 1229
GlyphClass: 2
Flags: W
LayerCount: 2
Fore
SplineSet
618 1180 m 1,0,-1
 243 0 l 1,1,-1
 54 0 l 1,2,-1
 538 1456 l 1,3,-1
 699 1456 l 1,4,-1
 1184 0 l 1,5,-1
 995 0 l 1,6,-1
 618 1180 l 1,0,-1
EndSplineSet
EndChar

StartChar: Xi
Encoding: 926 926 383
Width: 1229
GlyphClass: 2
Flags: W
LayerCount: 2
Fore
SplineSet
145 151 m 1,0,-1
 1079 151 l 1,1,-1
 1079 0 l 1,2,-1
 145 0 l 1,3,-1
 145 151 l 1,0,-1
230 830 m 1,4,-1
 984 830 l 1,5,-1
 984 678 l 1,6,-1
 230 678 l 1,7,-1
 230 830 l 1,4,-1
147 1456 m 1,8,-1
 1065 1456 l 1,9,-1
 1065 1304 l 1,10,-1
 147 1304 l 1,11,-1
 147 1456 l 1,8,-1
EndSplineSet
EndChar

StartChar: Pi
Encoding: 928 928 385
Width: 1229
GlyphClass: 2
Flags: W
LayerCount: 2
Fore
SplineSet
1066 0 m 1,0,-1
 881 0 l 1,1,-1
 881 1304 l 1,2,-1
 347 1304 l 1,3,-1
 347 0 l 1,4,-1
 162 0 l 1,5,-1
 162 1456 l 1,6,-1
 1066 1456 l 1,7,-1
 1066 0 l 1,0,-1
EndSplineSet
EndChar

StartChar: Sigma
Encoding: 931 931 387
Width: 1229
GlyphClass: 2
Flags: W
LayerCount: 2
Fore
SplineSet
793 717 m 1,0,-1
 341 152 l 1,1,-1
 1135 152 l 1,2,-1
 1135 0 l 1,3,-1
 112 0 l 1,4,-1
 112 144 l 1,5,-1
 597 729 l 1,6,-1
 112 1312 l 1,7,-1
 112 1456 l 1,8,-1
 1085 1456 l 1,9,-1
 1085 1304 l 1,10,-1
 342 1304 l 1,11,-1
 793 742 l 1,12,-1
 793 717 l 1,0,-1
EndSplineSet
EndChar

StartChar: Phi
Encoding: 934 934 390
Width: 1229
GlyphClass: 2
Flags: W
LayerCount: 2
Fore
SplineSet
707 1250 m 1,0,1
 804 1242 804 1242 886.5 1201 c 128,-1,2
 969 1160 969 1160 1029.5 1091 c 128,-1,3
 1090 1022 1090 1022 1124.5 929 c 128,-1,4
 1159 836 1159 836 1159 725 c 0,5,6
 1159 613 1159 613 1124.5 519.5 c 128,-1,7
 1090 426 1090 426 1029.5 356.5 c 128,-1,8
 969 287 969 287 886.5 245 c 128,-1,9
 804 203 804 203 707 196 c 1,10,-1
 707 0 l 1,11,-1
 522 0 l 1,12,-1
 522 196 l 1,13,14
 424 203 424 203 341.5 244 c 128,-1,15
 259 285 259 285 198 354 c 128,-1,16
 137 423 137 423 103 517 c 128,-1,17
 69 611 69 611 69 723 c 0,18,19
 69 834 69 834 103 928 c 128,-1,20
 137 1022 137 1022 198 1091 c 128,-1,21
 259 1160 259 1160 341.5 1201.5 c 128,-1,22
 424 1243 424 1243 522 1250 c 1,23,-1
 522 1456 l 1,24,-1
 707 1456 l 1,25,-1
 707 1250 l 1,0,1
252 723 m 0,26,27
 252 643 252 643 270 576.5 c 128,-1,28
 288 510 288 510 322.5 461.5 c 128,-1,29
 357 413 357 413 407 383.5 c 128,-1,30
 457 354 457 354 522 348 c 1,31,-1
 522 1098 l 1,32,33
 457 1091 457 1091 407 1061.5 c 128,-1,34
 357 1032 357 1032 322.5 983 c 128,-1,35
 288 934 288 934 270 868 c 128,-1,36
 252 802 252 802 252 723 c 0,26,27
975 725 m 0,37,38
 975 804 975 804 957 869.5 c 128,-1,39
 939 935 939 935 904.5 983.5 c 128,-1,40
 870 1032 870 1032 820.5 1061.5 c 128,-1,41
 771 1091 771 1091 707 1098 c 1,42,-1
 707 348 l 1,43,44
 771 355 771 355 820.5 384.5 c 128,-1,45
 870 414 870 414 904.5 463 c 128,-1,46
 939 512 939 512 957 578.5 c 128,-1,47
 975 645 975 645 975 725 c 0,37,38
EndSplineSet
EndChar

StartChar: Psi
Encoding: 936 936 392
Width: 1229
GlyphClass: 2
Flags: W
LayerCount: 2
Fore
SplineSet
711 479 m 1,0,1
 766 491 766 491 810.5 519 c 128,-1,2
 855 547 855 547 886.5 592 c 128,-1,3
 918 637 918 637 935.5 699.5 c 128,-1,4
 953 762 953 762 953 842 c 2,5,-1
 953 1456 l 1,6,-1
 1138 1456 l 1,7,-1
 1138 842 l 2,8,9
 1138 724 1138 724 1106.5 632.5 c 128,-1,10
 1075 541 1075 541 1019 476 c 128,-1,11
 963 411 963 411 884 373 c 128,-1,12
 805 335 805 335 711 324 c 1,13,-1
 711 0 l 1,14,-1
 526 0 l 1,15,-1
 526 324 l 1,16,17
 431 335 431 335 353 373 c 128,-1,18
 275 411 275 411 219 476 c 128,-1,19
 163 541 163 541 132 632.5 c 128,-1,20
 101 724 101 724 101 842 c 2,21,-1
 101 1456 l 1,22,-1
 286 1456 l 1,23,-1
 286 842 l 2,24,25
 286 762 286 762 303 700 c 128,-1,26
 320 638 320 638 351.5 593 c 128,-1,27
 383 548 383 548 427.5 520 c 128,-1,28
 472 492 472 492 526 480 c 1,29,-1
 526 1456 l 1,30,-1
 711 1456 l 1,31,-1
 711 479 l 1,0,1
EndSplineSet
EndChar

StartChar: Omega
Encoding: 937 937 393
AltUni2: 002126.ffffffff.0 002126.ffffffff.0
Width: 1229
GlyphClass: 2
Flags: W
LayerCount: 2
Fore
SplineSet
680 193 m 1,0,1
 808 222 808 222 876 366 c 128,-1,2
 944 510 944 510 944 759 c 2,3,-1
 944 840 l 2,4,5
 944 957 944 957 921.5 1047.5 c 128,-1,6
 899 1138 899 1138 856.5 1199.5 c 128,-1,7
 814 1261 814 1261 752 1293 c 128,-1,8
 690 1325 690 1325 612 1325 c 0,9,10
 535 1325 535 1325 474 1293 c 128,-1,11
 413 1261 413 1261 370.5 1199.5 c 128,-1,12
 328 1138 328 1138 305 1047.5 c 128,-1,13
 282 957 282 957 282 840 c 2,14,-1
 282 759 l 2,15,16
 283 508 283 508 353.5 365 c 128,-1,17
 424 222 424 222 553 193 c 1,18,-1
 553 0 l 1,19,-1
 101 0 l 1,20,-1
 101 151 l 1,21,-1
 363 151 l 1,22,23
 301 198 301 198 251.5 265.5 c 128,-1,24
 202 333 202 333 167.5 413.5 c 128,-1,25
 133 494 133 494 115 582 c 128,-1,26
 97 670 97 670 97 759 c 2,27,-1
 97 838 l 2,28,29
 97 977 97 977 133.5 1094.5 c 128,-1,30
 170 1212 170 1212 237.5 1296.5 c 128,-1,31
 305 1381 305 1381 400 1428.5 c 128,-1,32
 495 1476 495 1476 612 1476 c 256,33,34
 729 1476 729 1476 824.5 1428.5 c 128,-1,35
 920 1381 920 1381 987.5 1296.5 c 128,-1,36
 1055 1212 1055 1212 1092 1094.5 c 128,-1,37
 1129 977 1129 977 1129 838 c 2,38,-1
 1129 759 l 2,39,40
 1129 670 1129 670 1111 581.5 c 128,-1,41
 1093 493 1093 493 1059.5 413 c 128,-1,42
 1026 333 1026 333 977 265.5 c 128,-1,43
 928 198 928 198 866 151 c 1,44,-1
 1132 151 l 1,45,-1
 1132 0 l 1,46,-1
 680 0 l 1,47,-1
 680 193 l 1,0,1
EndSplineSet
EndChar

StartChar: alpha
Encoding: 945 945 401
Width: 1229
GlyphClass: 2
Flags: W
LayerCount: 2
Fore
SplineSet
1007 1082 m 1,0,-1
 1007 277 l 2,1,2
 1007 239 1007 239 1013 213.5 c 128,-1,3
 1019 188 1019 188 1029.5 173 c 128,-1,4
 1040 158 1040 158 1054.5 151.5 c 128,-1,5
 1069 145 1069 145 1087 145 c 0,6,7
 1102 145 1102 145 1115.5 147 c 128,-1,8
 1129 149 1129 149 1139 151 c 1,9,-1
 1162 13 l 1,10,11
 1131 -8 1131 -8 1101.5 -14.5 c 128,-1,12
 1072 -21 1072 -21 1040 -21 c 0,13,14
 965 -21 965 -21 915.5 12.5 c 128,-1,15
 866 46 866 46 842 120 c 1,16,17
 788 51 788 51 711 15 c 128,-1,18
 634 -21 634 -21 531 -21 c 0,19,20
 433 -21 433 -21 358 18.5 c 128,-1,21
 283 58 283 58 232 127.5 c 128,-1,22
 181 197 181 197 155 292.5 c 128,-1,23
 129 388 129 388 129 500 c 2,24,-1
 129 521 l 2,25,26
 129 646 129 646 155 752.5 c 128,-1,27
 181 859 181 859 232 936.5 c 128,-1,28
 283 1014 283 1014 358.5 1058 c 128,-1,29
 434 1102 434 1102 533 1102 c 0,30,31
 637 1102 637 1102 714.5 1064 c 128,-1,32
 792 1026 792 1026 846 955 c 1,33,-1
 895 1082 l 1,34,-1
 1007 1082 l 1,0,-1
314 500 m 2,35,36
 314 425 314 425 328 358 c 128,-1,37
 342 291 342 291 373.5 240.5 c 128,-1,38
 405 190 405 190 455 160 c 128,-1,39
 505 130 505 130 576 130 c 0,40,41
 665 130 665 130 724.5 171 c 128,-1,42
 784 212 784 212 822 277 c 1,43,-1
 822 808 l 1,44,45
 803 839 803 839 779 865 c 128,-1,46
 755 891 755 891 724.5 910 c 128,-1,47
 694 929 694 929 657.5 939.5 c 128,-1,48
 621 950 621 950 578 950 c 0,49,50
 506 950 506 950 455.5 915 c 128,-1,51
 405 880 405 880 373.5 820.5 c 128,-1,52
 342 761 342 761 328 683.5 c 128,-1,53
 314 606 314 606 314 521 c 2,54,-1
 314 500 l 2,35,36
EndSplineSet
EndChar

StartChar: beta
Encoding: 946 946 402
Width: 1229
GlyphClass: 2
Flags: W
LayerCount: 2
Fore
SplineSet
619 1476 m 0,0,1
 716 1476 716 1476 795 1447.5 c 128,-1,2
 874 1419 874 1419 930 1366.5 c 128,-1,3
 986 1314 986 1314 1016.5 1242 c 128,-1,4
 1047 1170 1047 1170 1047 1083 c 0,5,6
 1047 991 1047 991 998 915.5 c 128,-1,7
 949 840 949 840 861 793 c 1,8,9
 982 749 982 749 1048.5 652 c 128,-1,10
 1115 555 1115 555 1115 424 c 0,11,12
 1115 317 1115 317 1081 234.5 c 128,-1,13
 1047 152 1047 152 986 95 c 128,-1,14
 925 38 925 38 842 8.5 c 128,-1,15
 759 -21 759 -21 661 -21 c 0,16,17
 580 -21 580 -21 501 2 c 128,-1,18
 422 25 422 25 360 75 c 1,19,-1
 360 -384 l 1,20,-1
 174 -384 l 1,21,-1
 174 1073 l 2,22,23
 174 1155 174 1155 209.5 1228.5 c 128,-1,24
 245 1302 245 1302 305.5 1357 c 128,-1,25
 366 1412 366 1412 446.5 1444 c 128,-1,26
 527 1476 527 1476 619 1476 c 0,0,1
615 858 m 2,27,28
 679 858 679 858 726 875 c 128,-1,29
 773 892 773 892 803 922 c 128,-1,30
 833 952 833 952 847.5 994 c 128,-1,31
 862 1036 862 1036 862 1087 c 0,32,33
 862 1133 862 1133 846 1176 c 128,-1,34
 830 1219 830 1219 799 1252 c 128,-1,35
 768 1285 768 1285 722.5 1305 c 128,-1,36
 677 1325 677 1325 619 1325 c 0,37,38
 564 1325 564 1325 516.5 1305.5 c 128,-1,39
 469 1286 469 1286 434.5 1252 c 128,-1,40
 400 1218 400 1218 380 1172 c 128,-1,41
 360 1126 360 1126 360 1073 c 2,42,-1
 360 246 l 1,43,44
 405 193 405 193 477 161.5 c 128,-1,45
 549 130 549 130 642 130 c 0,46,47
 709 130 709 130 762.5 151.5 c 128,-1,48
 816 173 816 173 853 211.5 c 128,-1,49
 890 250 890 250 910 303.5 c 128,-1,50
 930 357 930 357 930 420 c 0,51,52
 930 473 930 473 913 524 c 128,-1,53
 896 575 896 575 863 615.5 c 128,-1,54
 830 656 830 656 782.5 681 c 128,-1,55
 735 706 735 706 674 706 c 2,56,-1
 531 706 l 1,57,-1
 531 858 l 1,58,-1
 615 858 l 2,27,28
EndSplineSet
EndChar

StartChar: gamma
Encoding: 947 947 403
Width: 1229
GlyphClass: 2
Flags: W
LayerCount: 2
Fore
SplineSet
984 1082 m 1,0,-1
 1174 1082 l 1,1,-1
 716 47 l 1,2,-1
 716 -416 l 1,3,-1
 530 -416 l 1,4,-1
 530 54 l 1,5,-1
 71 1082 l 1,6,-1
 261 1082 l 1,7,-1
 601 298 l 1,8,-1
 625 201 l 1,9,-1
 651 298 l 1,10,-1
 984 1082 l 1,0,-1
EndSplineSet
EndChar

StartChar: delta
Encoding: 948 948 404
Width: 1229
GlyphClass: 2
Flags: W
LayerCount: 2
Fore
SplineSet
263 1269 m 0,0,1
 263 1338 263 1338 290 1393 c 128,-1,2
 317 1448 317 1448 366.5 1486 c 128,-1,3
 416 1524 416 1524 486 1544 c 128,-1,4
 556 1564 556 1564 642 1564 c 0,5,6
 722 1564 722 1564 801.5 1540.5 c 128,-1,7
 881 1517 881 1517 956 1479 c 1,8,-1
 915 1349 l 1,9,10
 892 1358 892 1358 860.5 1369 c 128,-1,11
 829 1380 829 1380 793 1389.5 c 128,-1,12
 757 1399 757 1399 718 1405.5 c 128,-1,13
 679 1412 679 1412 639 1412 c 0,14,15
 597 1412 597 1412 562.5 1402 c 128,-1,16
 528 1392 528 1392 503 1374 c 128,-1,17
 478 1356 478 1356 464 1330.5 c 128,-1,18
 450 1305 450 1305 450 1274 c 0,19,20
 450 1252 450 1252 461.5 1228.5 c 128,-1,21
 473 1205 473 1205 500 1181 c 128,-1,22
 527 1157 527 1157 571.5 1133 c 128,-1,23
 616 1109 616 1109 683 1086 c 0,24,25
 903 1013 903 1013 1014.5 875 c 128,-1,26
 1126 737 1126 737 1126 530 c 2,27,-1
 1126 509 l 2,28,29
 1126 396 1126 396 1092 299.5 c 128,-1,30
 1058 203 1058 203 993.5 132 c 128,-1,31
 929 61 929 61 836 20.5 c 128,-1,32
 743 -20 743 -20 625 -20 c 0,33,34
 505 -20 505 -20 411.5 20.5 c 128,-1,35
 318 61 318 61 253 132 c 128,-1,36
 188 203 188 203 154 299.5 c 128,-1,37
 120 396 120 396 120 509 c 2,38,-1
 120 530 l 2,39,40
 120 617 120 617 147 693 c 128,-1,41
 174 769 174 769 220.5 829 c 128,-1,42
 267 889 267 889 330.5 930 c 128,-1,43
 394 971 394 971 466 988 c 1,44,-1
 470 999 l 1,45,46
 423 1018 423 1018 385 1045 c 128,-1,47
 347 1072 347 1072 320 1106.5 c 128,-1,48
 293 1141 293 1141 278 1181.5 c 128,-1,49
 263 1222 263 1222 263 1269 c 0,0,1
306 509 m 2,50,51
 306 432 306 432 325 363 c 128,-1,52
 344 294 344 294 383.5 242.5 c 128,-1,53
 423 191 423 191 483 160.5 c 128,-1,54
 543 130 543 130 625 130 c 0,55,56
 706 130 706 130 765 160.5 c 128,-1,57
 824 191 824 191 863 242.5 c 128,-1,58
 902 294 902 294 921 363 c 128,-1,59
 940 432 940 432 940 509 c 2,60,-1
 940 530 l 2,61,62
 940 593 940 593 917.5 655.5 c 128,-1,63
 895 718 895 718 854 770.5 c 128,-1,64
 813 823 813 823 755.5 860.5 c 128,-1,65
 698 898 698 898 627 910 c 1,66,67
 546 911 546 911 486 880.5 c 128,-1,68
 426 850 426 850 386 797.5 c 128,-1,69
 346 745 346 745 326 675.5 c 128,-1,70
 306 606 306 606 306 530 c 2,71,-1
 306 509 l 2,50,51
EndSplineSet
EndChar

StartChar: epsilon
Encoding: 949 949 405
Width: 1229
GlyphClass: 2
Flags: W
LayerCount: 2
Fore
SplineSet
618 478 m 2,0,1
 473 478 473 478 399 437.5 c 128,-1,2
 325 397 325 397 325 304 c 0,3,4
 325 267 325 267 345 235 c 128,-1,5
 365 203 365 203 403.5 179.5 c 128,-1,6
 442 156 442 156 499 142.5 c 128,-1,7
 556 129 556 129 630 129 c 0,8,9
 696 129 696 129 752 144 c 128,-1,10
 808 159 808 159 848.5 185.5 c 128,-1,11
 889 212 889 212 912 246.5 c 128,-1,12
 935 281 935 281 935 320 c 1,13,-1
 1120 320 l 1,14,15
 1119 261 1119 261 1099.5 212.5 c 128,-1,16
 1080 164 1080 164 1045.5 126.5 c 128,-1,17
 1011 89 1011 89 964 61.5 c 128,-1,18
 917 34 917 34 863 15.5 c 128,-1,19
 809 -3 809 -3 749.5 -11.5 c 128,-1,20
 690 -20 690 -20 630 -20 c 0,21,22
 522 -20 522 -20 432 1.5 c 128,-1,23
 342 23 342 23 276.5 64.5 c 128,-1,24
 211 106 211 106 175 166 c 128,-1,25
 139 226 139 226 139 304 c 0,26,27
 139 399 139 399 195.5 462 c 128,-1,28
 252 525 252 525 358 556 c 1,29,30
 263 591 263 591 210.5 651.5 c 128,-1,31
 158 712 158 712 158 787 c 0,32,33
 158 865 158 865 191 923.5 c 128,-1,34
 224 982 224 982 285.5 1021.5 c 128,-1,35
 347 1061 347 1061 434.5 1081 c 128,-1,36
 522 1101 522 1101 630 1101 c 0,37,38
 725 1101 725 1101 810.5 1079 c 128,-1,39
 896 1057 896 1057 960.5 1015.5 c 128,-1,40
 1025 974 1025 974 1063 914.5 c 128,-1,41
 1101 855 1101 855 1102 780 c 1,42,-1
 917 780 l 1,43,44
 917 817 917 817 893.5 848.5 c 128,-1,45
 870 880 870 880 831 902.5 c 128,-1,46
 792 925 792 925 740 938 c 128,-1,47
 688 951 688 951 630 951 c 0,48,49
 555 951 555 951 501 938 c 128,-1,50
 447 925 447 925 412 902.5 c 128,-1,51
 377 880 377 880 360.5 850 c 128,-1,52
 344 820 344 820 344 786 c 0,53,54
 344 749 344 749 359 719.5 c 128,-1,55
 374 690 374 690 407 669 c 128,-1,56
 440 648 440 648 492 637 c 128,-1,57
 544 626 544 626 618 626 c 2,58,-1
 861 626 l 1,59,-1
 861 478 l 1,60,-1
 618 478 l 2,0,1
EndSplineSet
EndChar

StartChar: zeta
Encoding: 950 950 406
Width: 1229
GlyphClass: 2
Flags: W
LayerCount: 2
Fore
SplineSet
1071 1456 m 1,0,-1
 1071 1336 l 1,1,-1
 662 909 l 1,2,3
 593 843 593 843 538 784.5 c 128,-1,4
 483 726 483 726 444.5 666 c 128,-1,5
 406 606 406 606 385.5 541 c 128,-1,6
 365 476 365 476 365 398 c 0,7,8
 365 299 365 299 411 250 c 128,-1,9
 457 201 457 201 547 183 c 2,10,-1
 768 133 l 2,11,12
 822 121 822 121 870 108 c 128,-1,13
 918 95 918 95 953 72 c 128,-1,14
 988 49 988 49 1008.5 11.5 c 128,-1,15
 1029 -26 1029 -26 1029 -88 c 0,16,17
 1028 -127 1028 -127 1010.5 -170 c 128,-1,18
 993 -213 993 -213 967 -252.5 c 128,-1,19
 941 -292 941 -292 909.5 -326.5 c 128,-1,20
 878 -361 878 -361 850 -383 c 1,21,-1
 752 -299 l 1,22,23
 801 -245 801 -245 826 -202.5 c 128,-1,24
 851 -160 851 -160 851 -116 c 0,25,26
 851 -81 851 -81 813.5 -53 c 128,-1,27
 776 -25 776 -25 696 -9 c 2,28,-1
 515 26 l 2,29,30
 426 42 426 42 362.5 71.5 c 128,-1,31
 299 101 299 101 258.5 145.5 c 128,-1,32
 218 190 218 190 199 251 c 128,-1,33
 180 312 180 312 180 393 c 0,34,35
 180 450 180 450 201 517.5 c 128,-1,36
 222 585 222 585 265.5 661 c 128,-1,37
 309 737 309 737 376 819 c 128,-1,38
 443 901 443 901 535 988 c 1,39,-1
 841 1304 l 1,40,-1
 117 1304 l 1,41,-1
 117 1456 l 1,42,-1
 1071 1456 l 1,0,-1
EndSplineSet
EndChar

StartChar: eta
Encoding: 951 951 407
Width: 1229
GlyphClass: 2
Flags: W
LayerCount: 2
Fore
SplineSet
331 1082 m 1,0,-1
 344 922 l 1,1,2
 399 1006 399 1006 484 1053.5 c 128,-1,3
 569 1101 569 1101 681 1102 c 0,4,5
 771 1102 771 1102 842 1080 c 128,-1,6
 913 1058 913 1058 963 1008.5 c 128,-1,7
 1013 959 1013 959 1040 879.5 c 128,-1,8
 1067 800 1067 800 1067 685 c 2,9,-1
 1067 -415 l 1,10,-1
 881 -415 l 1,11,-1
 881 681 l 2,12,13
 881 825 881 825 817 887.5 c 128,-1,14
 753 950 753 950 626 950 c 0,15,16
 525 950 525 950 457 911.5 c 128,-1,17
 389 873 389 873 350 808 c 1,18,-1
 350 0 l 1,19,-1
 164 0 l 1,20,-1
 164 1082 l 1,21,-1
 331 1082 l 1,0,-1
EndSplineSet
EndChar

